<svg width="1189" height="346" viewBox="0 0 1189 346" fill="none" xmlns="http://www.w3.org/2000/svg">
<path d="M0 21.8325H21.6112V0.221406H172.889V21.8325H194.5V173.111H86.4446V194.722H64.8335V324.389H129.667V259.555H194.5V346H0V216.333H21.6112V194.722H43.2223V173.111H86.4446V151.5H129.667V21.8325H64.8335V86.666H0V21.8325ZM280.861 21.8325H302.472V0.221406H453.75V21.8325H475.361V129.888H453.75V151.5H410.528V173.111H453.75V194.722H475.361V324.389H453.75V346H302.472V324.389H280.861V259.555H345.694V324.389H410.528V173.111H324.083V151.5H410.528V21.8325H345.694V86.666H280.861V21.8325ZM561.721 65.0549H626.555V129.888H561.721V65.0549ZM561.721 216.333H626.555V281.167H561.721V216.333ZM713 21.8325H734.611V0.221406H885.889V21.8325H907.5V324.389H885.889V346H734.611V324.389H713V21.8325ZM842.666 151.5H821.055V173.111H799.444V216.333H777.833V324.389H842.666V151.5ZM777.833 173.111H799.444V151.5H821.055V108.277H842.666V21.8325H777.833V173.111ZM993.86 21.8325H1015.47V0.221406H1166.75V21.8325H1188.36V324.389H1166.75V346H1015.47V324.389H993.86V21.8325ZM1123.53 151.5H1101.92V173.111H1080.3V216.333H1058.69V324.389H1123.53V151.5ZM1058.69 173.111H1080.3V151.5H1101.92V108.277H1123.53V21.8325H1058.69V173.111Z" fill="white"/>
</svg>
