<svg xmlns="http://www.w3.org/2000/svg" version="1.1" xmlns:xlink="http://www.w3.org/1999/xlink" xmlns:svgjs="http://svgjs.dev/svgjs" width="1246" height="1198"><svg width="1246" height="1198" viewBox="0 0 1246 1198" fill="none" xmlns="http://www.w3.org/2000/svg">
<path fill-rule="evenodd" clip-rule="evenodd" d="M1122.68 824.545C1120.02 822.994 1117.43 820.088 1114.92 817.265C1112.47 814.514 1110.09 811.84 1107.78 810.574C1105.36 809.256 1101.89 808.549 1098.22 807.803C1093.84 806.913 1089.18 805.965 1085.68 803.855C1079.39 800.065 1076.34 793.814 1073.25 787.49C1071.26 783.397 1069.25 779.272 1066.33 775.765C1044.64 749.68 1035.28 737.035 1017.54 708.686C1015.2 704.942 1010.51 700.357 1006.53 696.455L1006.52 696.454C1005.25 695.205 1004.04 694.027 1003.01 692.968L1007.15 711.861C1020.03 732.208 1032.1 753.605 1043.64 774.075L1043.64 774.077L1045.1 776.666C1051.02 787.192 1057.73 797.624 1064.28 807.801L1064.98 808.892L1062.4 811.77L1054.93 807.81L1058.85 820.513C1055.1 819.414 1051.96 816.375 1048.97 813.487C1046.8 811.394 1044.72 809.38 1042.55 808.241C1041.13 807.492 1039.62 807.481 1038.19 807.471C1036.67 807.46 1035.25 807.45 1034.15 806.54C1026.99 800.589 1014.58 775.325 1005.48 756.786L1005.48 756.786L1005.47 756.783C1002.03 749.765 999.055 743.71 997.019 740.033C990.383 728.056 982.501 714.974 973.265 704.919C974.543 713.202 978.933 720.545 983.291 727.837C985.61 731.716 987.92 735.581 989.749 739.565C994.995 750.999 999.403 763.153 1003.79 775.26C1008.13 787.217 1012.45 799.127 1017.54 810.249C1020.48 816.671 1024.11 822.868 1027.75 829.077L1027.75 829.078C1032.62 837.392 1037.5 845.727 1040.76 854.649C1037.76 855.223 1036.29 851.825 1034.88 848.554C1034 846.542 1033.16 844.578 1031.98 843.618C1030.96 842.793 1029.63 842.404 1028.2 841.987C1026.43 841.468 1024.5 840.904 1022.82 839.399C1021.44 838.163 1020.26 835.633 1018.99 832.929C1015.96 826.469 1012.47 819.013 1004.8 825.804L1002.66 824.667C1000.31 821.797 998.012 816.784 995.762 811.881C993.444 806.832 991.18 801.9 988.977 799.551C978.84 788.747 977.905 785.945 975.976 780.163C974.93 777.026 973.591 773.012 970.331 766.367C966.637 758.828 961.787 751.09 956.989 743.435L956.988 743.434C952.818 736.782 948.689 730.194 945.392 723.855C944.17 721.507 943.313 718.553 942.412 715.448C940.505 708.878 938.404 701.636 932.241 698.049C930.398 698.543 934.012 714.024 934.577 716.099C938.966 731.68 944.854 748.073 950.752 764.494C959.346 788.421 967.96 812.406 971.988 834.019C972.227 835.321 972.962 836.461 973.7 837.607C974.461 838.788 975.226 839.975 975.455 841.349L970.396 842.886L972.169 855.56L960.66 845.188L956.301 851.423C951.755 852.981 951.831 851.445 951.924 849.576C951.968 848.701 952.015 847.751 951.592 847.014C928.311 806.155 924.83 791.563 915.446 752.23C914.598 748.676 913.702 744.92 912.739 740.924C910.961 733.546 907.682 722.459 904.874 715.506C904.608 714.838 904.441 714.147 904.279 713.475C903.817 711.564 903.392 709.799 900.804 709.105C901.882 714.345 903.208 719.561 904.534 724.779L904.535 724.784C905.785 729.703 907.035 734.623 908.078 739.564C911.033 753.538 914.279 767.611 917.533 781.719L917.533 781.72C921.904 800.667 926.289 819.678 930.002 838.597C930.13 839.249 930.276 839.932 930.427 840.637L930.428 840.64C931.402 845.187 932.571 850.644 930.096 854.543C929.103 852.673 928.57 849.398 928.025 846.051C927.367 842.005 926.691 837.852 925.163 835.949C924.345 834.927 922.721 834.745 920.914 834.543C919.145 834.345 917.201 834.127 915.669 833.082C910.805 829.778 910.023 823.944 909.273 818.351C908.906 815.617 908.548 812.94 907.723 810.645C906.284 806.632 904.441 802.722 902.586 798.787C899.88 793.047 897.149 787.253 895.606 781.004L879.497 721.2C878.66 732.915 880.908 744.363 883.152 755.793C885.696 768.748 888.236 781.679 886.273 794.95L895.419 843.602L884.484 844.187L890.824 860.336L882.18 852.565L879.021 878.578L877.264 861.057L864.803 855.674L853.943 738.064L850.602 731.439C848.328 732.216 847.423 754.766 846.529 777.03L846.529 777.032C845.784 795.577 845.047 813.924 843.534 819.325C842.787 821.982 841.502 824.141 840.168 826.383C838.422 829.315 836.593 832.388 835.771 836.905C834.772 842.409 835.634 850.045 836.372 856.572L836.372 856.573C836.574 858.359 836.766 860.062 836.909 861.616L831.546 859.8L822.289 893.235C820.097 891.803 820.897 889.46 821.552 887.54C821.907 886.5 822.22 885.583 821.991 885.003C821.751 884.412 819.819 882.704 817.424 880.587L817.423 880.586C813.805 877.388 809.131 873.256 807.637 870.628C802.497 861.69 800.751 816.822 800.867 804.51C800.918 799.463 801.571 794.21 802.232 788.893L802.232 788.891C803.486 778.803 804.768 768.49 802.021 758.932C800.547 766.919 799.455 775.1 798.359 783.312C795.441 805.161 792.495 827.228 782.253 846.441L778.205 840.051L759.178 879.987L754.936 879.93C751.618 875.882 754.148 853.699 756.208 835.639C757.318 825.911 758.291 817.38 758.14 813.522C758.855 810.655 761.614 716.428 759.178 714.166C739.957 737.754 753.931 660.169 753.931 660.169C758.843 639.551 724.538 638.071 706.608 633.999L706.867 624.755C707.22 614.456 692.442 593.447 690.918 612.919L702.349 634.64C685.956 637.547 690.918 660.169 667.053 669.116L651.109 684.437L579.898 828.705C573.858 825.696 578.618 813.542 580.616 808.438L580.677 808.283C582.305 804.091 584.504 800.194 586.667 796.358L586.667 796.358L586.668 796.357C588.754 792.657 590.808 789.016 592.287 785.223C595.001 778.228 597.237 771.025 599.473 763.817L599.474 763.816C601.865 756.111 604.257 748.401 607.238 740.936L590.691 757.19L576.917 778.105C574.864 777.406 575.559 775.278 576.164 773.428C576.335 772.906 576.498 772.407 576.59 771.967C577.953 765.365 579.844 758.184 585.494 753.909L583.087 750.442C579.203 750.962 573.925 764.884 568.73 778.591L568.729 778.592C564.418 789.966 560.162 801.191 556.807 804.484C556.09 814.495 551.258 823.991 546.656 833.038L546.656 833.038C543.911 838.435 541.247 843.671 539.586 848.761C539.132 850.158 539.257 851.62 539.383 853.086C539.548 855.023 539.715 856.967 538.548 858.781C538.389 859.032 537.965 859.006 537.372 858.968C536.103 858.889 534.06 858.76 532.164 861.196C530.859 862.866 530.199 864.847 529.539 866.826C528.935 868.637 528.332 870.445 527.237 872.012C525.151 874.967 521.527 879.428 517.547 884.327C509.861 893.788 500.849 904.882 499.025 909.911C495.192 920.391 495.186 951.708 495.841 963.874C495.937 965.839 496.673 970.889 498.547 965.835L500.57 962.385C504.104 987.187 501.755 1011.95 499.404 1036.73C498.24 1049.01 497.074 1061.29 496.624 1073.59C496.414 1079.27 496.801 1087.16 497.2 1095.28C497.786 1107.21 498.396 1119.65 497.175 1126.32C495.914 1133.21 493.264 1140.86 490.637 1148.43L490.636 1148.44C488.513 1154.56 486.405 1160.64 485.057 1166.25C482.81 1175.56 481.673 1184.97 480.53 1194.43L480.366 1195.79C480.289 1196.42 480.213 1197.05 480.135 1197.68L477.159 1181.21L470.354 1186.09C468.586 1180.63 467.387 1174.78 466.831 1169.08C466.809 1168.83 466.861 1168.03 466.937 1166.88L466.937 1166.88C467.309 1161.21 468.237 1147.05 463.677 1148.49C462.778 1160.08 459.227 1194.31 445.793 1196.68C442.17 1197.33 439.257 1195.06 436.201 1192.67C433.211 1190.34 430.083 1187.9 426.02 1187.98C427.675 1183.34 421.909 1164.27 416.169 1165.89L414.203 1177.61L404.349 1168.15C401.814 1173.82 387.006 1195.8 380.232 1191.51C379.403 1184.13 383.693 1178.36 388.049 1172.5C392.356 1166.71 396.728 1160.83 396.281 1153.22C389.822 1157.87 383.407 1167.15 378.93 1173.76C378.407 1174.53 377.877 1175.94 377.296 1177.49C375.766 1181.55 373.883 1186.55 370.852 1183.35L348.266 1164.2C341.359 1165.37 336.645 1169.63 331.981 1173.85C328.043 1177.41 324.14 1180.94 318.982 1182.55L309.451 1160.39L318.987 1148.46L312.669 1144.84L313.449 1132.74C312.281 1131.14 310.302 1132.45 308.317 1133.76C305.897 1135.36 303.467 1136.97 302.48 1133.33C302.893 1131.39 303.565 1129.29 304.26 1127.12C306.164 1121.17 308.244 1114.67 305.645 1109.41L292.699 1121.74L283.741 1110.59C281.961 1111.2 282.361 1114.62 282.879 1119.04C283.736 1126.36 284.916 1136.43 277.117 1141.2C274.439 1142.37 271.675 1141.5 269.026 1140.67C267.324 1140.14 265.669 1139.62 264.116 1139.66C262.384 1139.71 260.915 1140.79 259.616 1141.74C257.934 1142.97 256.536 1144 255.215 1142.33C255.725 1139.01 254.96 1134.06 254.261 1129.56C253.702 1125.94 253.185 1122.61 253.403 1120.62C253.925 1115.71 258.131 1098.29 259.612 1092.25C260.69 1087.83 262.262 1083.52 263.837 1079.19C265.861 1073.64 267.891 1068.06 268.886 1062.24C265.95 1061.37 264.748 1063.13 263.483 1064.98C263.167 1065.44 262.847 1065.91 262.494 1066.34C256.92 1073.25 251.989 1080.82 247.065 1088.38L247.064 1088.38C243.148 1094.4 239.236 1100.41 235.007 1106.07L233.856 1088.92C243.005 1078.28 246.214 1065.17 249.456 1051.92C250.802 1046.43 252.152 1040.91 253.935 1035.54C273.942 975.008 305.173 920.261 338.867 866.154C339.619 864.948 340.904 864.072 342.15 863.222C343.64 862.206 345.073 861.228 345.465 859.774C346.181 857.138 344.921 854.993 343.789 853.065C343.077 851.854 342.416 850.729 342.328 849.623C342.161 847.576 343.05 844.753 343.943 841.922C344.909 838.856 345.879 835.779 345.513 833.666C345.36 832.797 344.744 832.093 343.994 831.235C342.843 829.92 341.377 828.243 340.782 825.056C337.487 807.255 352.783 784.141 367.044 762.593C379.544 743.704 391.249 726.017 388.937 714.166C388.866 713.809 389.302 711.519 389.98 707.953C393.362 690.177 402.779 640.684 385.533 640.641C383.989 649.937 356.621 689.579 356.255 684.559L349.385 689.407L346.998 686.006C344.248 694.427 339.181 701.091 334.198 707.644C328.924 714.58 323.744 721.392 321.504 730.033C319.984 724.354 320.779 718.078 321.58 711.757C322.589 703.794 323.607 695.761 320.013 688.768L302.032 714.166L286.256 728.388C289.77 717.045 293.561 703.242 295.232 691.504C296.057 685.705 295.64 680.487 295.244 675.537C294.839 670.466 294.456 665.675 295.453 660.828C297.356 651.562 301.108 641.43 304.928 631.113C310.237 616.775 315.679 602.079 316.476 588.854C316.53 587.995 316.732 587.308 316.901 586.734C317.351 585.206 317.568 584.47 314.127 583.392C309.689 593.322 305.995 604.414 302.222 615.74L302.222 615.741C292.531 644.836 282.324 675.482 257.663 691.986C250.664 696.676 246.634 696.141 244.977 695.92C244.587 695.868 244.328 695.834 244.193 695.889C243.476 696.18 242.892 697 242.269 697.877C241.112 699.505 239.816 701.328 237.268 700.32L257.704 653.641L248.458 655.122C248.267 646.476 251.157 640.656 255.683 633.372L251.495 633.317C252.791 629.58 253.73 625.569 254.669 621.558C255.744 616.967 256.819 612.376 258.428 608.195C261.966 598.984 266.684 589.467 271.427 579.902L271.428 579.9L271.428 579.899C276.679 569.31 281.959 558.661 285.701 548.299C287.085 544.483 289.214 537.482 284.149 535.575C277.588 548.082 271.387 560.831 265.183 573.587C248.106 608.698 231.001 643.865 206.283 674.191C204.837 675.977 203.359 677.719 200.838 676.771C202.293 674.474 202.314 670.897 202.332 667.64C202.346 665.214 202.359 662.966 202.963 661.557C203.463 660.401 204.816 659.276 206.397 657.961L206.398 657.96C208.335 656.349 210.616 654.451 212.096 651.86C220.274 637.519 222.023 623.399 223.773 609.28C225.129 598.334 226.484 587.39 230.835 576.345C233.707 569.062 238.107 561.224 242.442 553.502C245.045 548.865 247.624 544.27 249.835 539.862C251.554 536.432 253.441 533.087 255.321 529.752L255.321 529.752C260.808 520.025 266.243 510.39 267.305 498.99L254.069 512.45C237.685 546.823 212.9 576.162 186.558 603.15L190.253 590.211C185.918 591.446 182.985 596.149 180.294 600.466C178.441 603.438 176.702 606.226 174.699 607.574C171.69 609.586 171.149 606.525 171.309 604.391C178.251 592.818 184.432 579.96 190.625 567.08L190.625 567.08C198.017 551.705 205.423 536.299 214.157 523.009C218.282 516.733 223.583 510.671 228.977 504.503C237.057 495.264 245.344 485.787 250.196 474.999L243.032 476.529C237.635 482.948 232.363 489.519 227.085 496.097L227.084 496.098C217.102 508.539 207.099 521.007 196.19 532.519C190.836 538.171 172.247 557.283 167.153 560.353C158.35 565.674 152.927 561.202 149.856 558.67C148.798 557.797 148.019 557.155 147.478 557.224C146.886 557.298 146.245 557.885 145.543 558.529C144.339 559.632 142.953 560.901 141.325 560.039C149.505 550.78 152.791 545.364 156.785 533.692C157.061 532.906 156.936 531.855 156.801 530.712C156.643 529.374 156.469 527.91 156.909 526.6C158.63 521.52 178.39 501.087 183.597 496.079C185.578 494.172 190.213 490.351 195.929 485.64C211.773 472.58 235.921 452.676 234.853 447.727C232.539 445.743 231.013 446.665 229.266 447.721C228.709 448.058 228.129 448.408 227.494 448.682C216.039 453.667 201.731 465.036 188.079 475.885C174.016 487.061 160.649 497.684 151.809 500.206C150.268 500.648 148.154 500.555 145.853 500.455C142.977 500.329 139.808 500.191 137.095 501.065C135.277 501.653 133.478 502.827 131.621 504.039C128.994 505.753 126.25 507.544 123.172 507.863C123.901 503.471 127.552 499.53 131.01 495.799C133.374 493.248 135.647 490.794 136.836 488.36C137.796 486.388 137.715 484.519 137.635 482.683C137.532 480.311 137.431 477.994 139.583 475.585C141.126 473.869 150.585 468.725 159.228 464.025L159.23 464.024C164.97 460.903 170.351 457.976 172.814 456.38C176.932 453.709 181.345 450.91 185.876 448.036C198.462 440.052 211.957 431.493 222.564 423.487C232.869 415.715 230.19 413.075 218.413 414.463C212.116 418.098 205.829 421.86 199.527 425.632L199.525 425.633C185.866 433.807 172.133 442.025 158.062 449.09C157.399 449.424 156.734 449.759 156.069 450.095C138.853 458.783 121.64 467.469 128.06 437.964L209.084 399.976C198.257 394.196 186.957 399.896 176.852 404.994L176.852 404.994C173.799 406.534 170.854 408.019 168.065 409.116C163.173 411.042 158.25 412.891 153.327 414.741L153.325 414.742L153.324 414.742C143.254 418.525 133.184 422.308 123.38 426.745C122.199 426.701 117.987 427.674 113.027 428.819C104.048 430.892 92.6147 433.532 92.2403 431.743C91.6205 428.892 94.3376 428.124 97.2143 427.31C99.0197 426.799 100.888 426.27 102.034 425.198C105.372 422.077 107.349 417.697 109.213 413.567C111.156 409.262 112.976 405.23 116.086 403.183C120.653 400.178 127.673 398.065 134.288 396.074L134.288 396.074C138.16 394.908 141.893 393.784 144.914 392.548C146.609 391.857 148.083 390.792 149.554 389.728C151.062 388.639 152.566 387.551 154.303 386.871C156.687 385.921 161.539 384.396 167.217 382.611L167.217 382.611C180.049 378.578 197.095 373.219 199.371 370.194C205.847 361.586 196.474 357.285 188.349 357.279C185.004 357.271 182.356 358.798 179.86 360.237C178.118 361.241 176.45 362.202 174.67 362.57C171.234 363.292 167.038 363.411 162.766 363.533C158.928 363.642 155.027 363.753 151.558 364.305C149.821 364.58 146.317 365.255 141.929 366.1L141.927 366.1L141.927 366.1C127.792 368.821 104.495 373.305 101.616 371.907C100.056 371.135 97.485 368.552 96.7975 367.023C94.7909 362.46 98.478 362.414 101.043 362.381C103.093 362.355 104.426 362.339 101.557 360.03L77.0711 361.896C72.1903 351.856 84.1017 349.068 93.1349 346.954C94.5912 346.613 95.9727 346.29 97.197 345.956C112.615 341.781 143.608 335.54 159.175 334.801C161.25 334.701 163.931 334.911 166.87 335.14C175.827 335.84 187.178 336.728 191.054 329.612C195.468 321.492 174.15 320.571 168.759 320.432C164.292 320.307 158.076 320.48 151.977 320.651C148.111 320.759 144.292 320.866 140.994 320.894C130.557 320.995 120.146 321.674 109.732 322.354L109.731 322.354C99.1114 323.046 88.4881 323.739 77.829 323.82L71.89 315.29C70.2642 314.748 67.1977 315.548 63.7815 316.439C58.2823 317.873 51.8767 319.544 49.1143 316.232C91.4143 306.245 134.827 302.063 177.414 298.969L177.072 293.489L41.0177 285.337C38.6387 284.853 37.8569 283.135 39.8468 281.526C40.8755 280.684 62.9747 273.114 65.0011 272.746C72.2145 271.436 92.0786 269.811 100.22 269.159C105.603 268.733 115.785 269.932 126.302 271.171L126.302 271.171C140.337 272.825 154.967 274.548 159.583 272.57C159.884 272.44 160.166 272.323 160.428 272.215L160.428 272.214C162.832 271.218 163.593 270.902 162.28 267.48C160.196 263.662 150.581 261.953 145.111 260.98L145.105 260.979C144.482 260.869 143.914 260.768 143.416 260.674C115.753 255.447 83.7828 252.904 56.5951 250.758C55.8638 250.701 54.5365 250.617 52.8078 250.507C43.0756 249.889 20.6194 248.463 20.1246 246.551C22.76 237.598 25.8398 238.338 30.274 239.402C32.1394 239.85 34.2444 240.355 36.6568 240.22C57.1848 239.078 72.2636 240.634 89.2904 242.391L89.2907 242.391C96.3526 243.12 103.75 243.883 112.009 244.503C116.576 244.841 121.073 244.839 125.516 244.838L125.517 244.838C131.67 244.837 137.72 244.835 143.704 245.735L148.213 237.749C140.613 231.309 131.66 230.399 122.786 229.497C118.292 229.04 113.819 228.585 109.552 227.415C101.049 225.082 92.8394 222.362 84.6093 219.635L84.6084 219.635C77.601 217.313 70.5784 214.987 63.3464 212.889C60.2269 211.981 57.1495 211.845 54.1264 211.712C50.8382 211.567 47.6143 211.425 44.4703 210.294C40.5653 208.903 36.7449 206.657 32.9342 204.417L32.934 204.416C29.8897 202.627 26.8516 200.841 23.7814 199.497L35.5893 197.265L0.518986 187.17C1.19136 185.168 2.18328 184.029 4.36887 183.883C5.07632 183.828 10.0101 185.675 15.6479 187.786C22.0043 190.165 29.2556 192.88 32.3539 193.581C40.7219 195.472 49.9409 196.577 59.2969 197.698C68.4164 198.791 77.6661 199.899 86.3849 201.767C93.1381 203.211 101.451 205.923 109.902 208.68C121.875 212.586 134.125 216.582 142.602 217.187C145.865 217.418 150.625 216.445 152.559 213.475C153.709 209.367 140.839 205.309 132.461 202.667L132.461 202.667C129.754 201.814 127.516 201.108 126.371 200.596C123.308 199.23 120.388 197.558 117.471 195.886L117.47 195.886L117.47 195.886C114.402 194.128 111.337 192.372 108.111 190.975C100.197 187.528 92.1633 184.331 84.1274 181.133L84.1271 181.133C65.5685 173.747 46.9983 166.357 29.8685 155.866C31.7132 153.554 33.655 154.287 35.6502 155.04C36.2461 155.265 36.8467 155.492 37.451 155.64C47.492 158.103 59.0447 162.949 68.2973 167.686C70.5656 156.601 62.7563 158.865 59.4313 159.829C58.7399 160.03 58.2423 160.174 58.0697 160.13C55.1596 159.339 51.5263 157.482 47.7416 155.547L47.7411 155.547C43.4207 153.338 38.903 151.028 35.0383 150.089L37.6667 145.129L146.397 188.876C145.855 182.801 141.588 180.734 137.087 178.554C135.18 177.631 133.232 176.687 131.506 175.409C127.549 172.462 123.615 169.478 119.68 166.494C102.173 153.217 84.6458 139.925 64.9836 129.755C69.399 124.295 73.1498 126.001 77.0412 127.771C80.0987 129.161 83.243 130.591 86.8649 128.616L69.8098 119.495L66.264 111.319C69.4521 113.039 72.6808 114.732 75.9201 116.431C87.4558 122.481 99.1256 128.601 109.57 136.237C111.349 137.535 111.159 138.839 111.006 139.89C110.908 140.564 110.825 141.133 111.287 141.53C113.63 143.548 141.74 162.328 144.042 163.271C144.419 163.424 144.767 163.599 145.086 163.761C146.489 164.467 147.36 164.906 147.864 162.078C149.724 151.872 146.506 150.057 141.737 147.366C139.945 146.355 137.934 145.221 135.891 143.472C133.559 141.487 124.64 132.821 123.467 130.951C122.738 129.787 122.75 128.032 122.759 126.57C122.767 125.32 122.774 124.284 122.316 124.016C122.235 123.973 121.923 124.072 121.453 124.22C120.146 124.633 117.617 125.431 115.458 124.654C110.424 122.846 98.4471 113.67 104.152 107.982C98.7325 107.163 90.2137 100.152 87.3468 95.72C87.002 95.1778 87.0358 94.36 87.073 93.4611C87.1191 92.3482 87.1702 91.111 86.5143 90.1189C85.131 88.0521 82.4728 86.2678 79.6719 84.3878C75.0741 81.3017 70.0918 77.9575 69.7328 72.6815C78.1119 77.8619 85.7459 84.243 93.3248 90.5781C95.1205 92.0791 96.9131 93.5775 98.7119 95.0568C104.261 99.6215 111.139 106.072 118.346 112.83C130.711 124.426 144.042 136.928 153.287 142.37C161.127 146.996 160.541 141.193 157.73 135.347C156.873 133.566 155.825 132.408 154.951 131.441C152.956 129.235 151.864 128.027 156 122.696C155.335 122.28 154.588 121.832 153.794 121.356L153.793 121.355C150.084 119.13 145.366 116.299 143.358 113.361C142.268 111.767 142.168 110.013 142.076 108.394C141.987 106.833 141.905 105.396 140.951 104.346C138.809 101.996 135.438 100.894 131.81 99.7091C128.396 98.5939 124.755 97.4043 121.696 95.0301C110.855 86.6148 99.9965 70.7151 89.74 55.6963C83.7995 46.9977 78.0609 38.5945 72.6441 32.1121C70.4095 29.4342 67.9205 27.2016 65.458 24.9928C61.1521 21.1305 56.9271 17.3409 54.2849 11.3697L58.8755 0.874584C67.9516 9.08456 73.3002 18.541 78.75 28.1765C82.8151 35.3638 86.9365 42.6506 92.7033 49.5941C100.04 58.4298 111.137 68.4848 122.202 78.5104L122.202 78.5106L122.203 78.5107C136.014 91.025 149.776 103.493 156.108 113.488C157.063 114.988 157.512 116.528 157.948 118.026C159.032 121.752 160.04 125.218 168.581 127.172L175.629 113.872L187.117 124.232C196.466 112.051 201.389 122.6 205.288 130.958C207.07 134.777 208.639 138.139 210.319 138.664C212.322 139.281 216.466 136.539 214.339 133.276L206.108 124.726L213.188 121.209C217.284 127.562 221.788 133.566 226.29 139.567C230.925 145.745 235.558 151.921 239.742 158.472C240.195 159.184 240.365 160.19 240.569 161.392C240.868 163.162 241.24 165.358 242.694 167.666C243.857 169.502 254.277 182.82 255.142 183.334C256.168 183.957 257.442 183.717 258.644 183.49C259.95 183.244 261.173 183.013 261.905 183.921C263.212 185.534 264.207 189.696 265.315 194.329C266.779 200.455 268.44 207.403 271.28 210.362L267.586 210.932C270.645 211.4 275.494 219.909 279.431 226.819C282.752 232.646 285.424 237.336 285.827 235.104L286.506 225.865C290.448 228.426 295.326 232.675 292.979 237.784L296.271 239.529L301.358 235.899C304.289 246.122 309.976 254.962 315.656 263.792C318.337 267.96 321.017 272.126 323.405 276.434C324.311 278.061 324.836 279.941 325.378 281.879L325.378 281.88C325.923 283.832 326.485 285.843 327.469 287.715C328.687 290.01 330.551 291.96 332.218 293.703C336.099 297.762 338.911 300.702 330.005 304.289L328.402 303.439C331.534 296.013 326.317 298.471 324.084 299.523C323.617 299.742 323.281 299.901 323.179 299.895C321.994 299.816 320.834 299.491 319.677 299.166L319.676 299.166C317.326 298.507 314.986 297.851 312.469 299.268L311.756 294.646C304.471 304.425 321.53 312.754 330.125 316.951C332.754 318.234 334.591 319.131 334.699 319.565C334.78 319.883 334.27 320.638 333.662 321.539C332.918 322.642 332.028 323.961 331.896 324.96C331.816 325.571 332.21 326.431 332.678 327.453C333.699 329.681 335.072 332.677 332.643 335.537L344.331 337.458L340.807 344.108L345.84 344.611L344.043 350.095L350.82 347.305L354.752 360.042C360.362 354.975 360.029 358.111 359.789 360.367C359.713 361.084 359.646 361.712 359.783 361.959C360.319 362.93 361.022 363.618 361.676 364.259C363.373 365.918 364.742 367.259 362.026 372.385L370.421 372.562L371.095 379.3L374.486 376.88C373.472 378.007 377.403 388.912 377.908 389.374C379.083 390.431 380.759 391.117 382.475 391.82C384.162 392.511 385.889 393.218 387.221 394.309C387.531 394.556 388.448 396.381 389.7 398.873C392.237 403.921 396.147 411.702 399.154 414.615C400.542 415.96 403.114 416.489 405.967 417.076C410.387 417.985 415.484 419.033 417.904 423.469C416.328 432.149 394.911 427.596 402.872 423.881C405.449 425.649 405.925 424.749 406.69 423.303C407.138 422.454 407.686 421.418 408.815 420.622L401.446 419.241L392.6 431.171C400.246 435.223 409.195 433.779 417.016 431.376C419.246 435.804 421.443 439.354 426.653 443.03L423.255 449.441L416.536 450.236L423.612 452.904C423.421 453.968 419.943 453.64 416.452 453.31C411.638 452.855 406.798 452.398 410.51 455.587C411.878 455.806 413.257 456.062 414.642 456.319C420.767 457.456 427.028 458.619 433.129 456.671C438.234 455.029 441.726 451.651 445.019 448.467C447.421 446.144 449.717 443.923 452.455 442.554C453.542 442.021 474.632 436.774 475.84 436.693C477.654 436.572 478.979 437.36 480.133 438.047C481.23 438.699 482.173 439.26 483.235 438.863C484.711 438.307 485.951 436.997 487.221 435.656C488.425 434.384 489.656 433.084 491.141 432.372C493.439 431.274 496.807 430.368 500.248 429.442L500.249 429.442L500.249 429.442C503.816 428.482 507.462 427.501 510.08 426.263C509.894 423.39 507.459 424.225 505.528 424.887C505.044 425.052 504.592 425.207 504.215 425.291C498.041 426.614 491.906 428.927 485.703 431.266C476.999 434.548 468.164 437.879 458.909 438.595C459.628 436.182 461.457 435.29 463.346 434.368C463.895 434.1 464.449 433.83 464.983 433.519C490.209 418.881 507.748 415.755 529.713 411.839C536.49 410.631 543.688 409.348 551.664 407.629C558.398 406.176 565.522 397.967 558.278 399.649C558.192 399.671 558.028 399.868 557.792 400.153C557.157 400.92 555.995 402.322 554.38 402.66C553.59 402.83 552.774 403.006 551.936 403.186L551.829 403.209C543.722 404.957 533.662 407.124 526.448 408.359C523.299 408.9 519.959 409.046 516.601 409.192C512.96 409.35 509.3 409.509 505.844 410.175C507.68 408.193 508.668 406.003 509.65 403.827C510.853 401.16 512.047 398.513 514.781 396.295C516.659 394.772 519.162 394.161 521.609 393.563C523.662 393.062 525.676 392.57 527.251 391.557C529.41 390.17 531.228 388.616 532.991 387.108C537.722 383.064 542.063 379.353 551.559 380.081C547.2 376.638 541.683 378.631 536.269 380.587C532.939 381.791 529.647 382.98 526.688 382.881L539.927 373.917L537.486 370.515C541.608 370.435 542.669 367.848 543.703 365.327C544.265 363.957 544.819 362.606 545.853 361.688C546.981 360.681 548.734 360.008 550.236 359.431C553.433 358.203 555.494 357.412 547.969 354.764C554.56 351.056 559.399 344.09 563.996 337.474C566.925 333.258 569.756 329.184 572.878 326.185C577.524 321.711 601.388 308.613 608.037 305.645C611.298 304.195 614.772 303.492 618.22 302.794C622.869 301.853 627.47 300.922 631.439 298.182L635.426 302.071C637.285 298.09 639.834 296.056 644.226 297.191C647.214 297.974 651.062 298.623 655.114 299.308L655.115 299.308C661.171 300.331 667.683 301.43 672.464 303.166C674.042 303.745 675.75 305.173 677.574 306.7C680.072 308.789 682.789 311.062 685.697 311.594L682.482 305.673L699.256 316.476L702.602 314.088C712.306 322.892 740.004 350.303 742.2 361.759C742.68 364.255 742.089 366.387 741.569 368.265C741.072 370.06 740.639 371.624 741.264 373.054C743.927 379.181 749.956 382.514 756.345 383.126L752.247 378.818L758.189 375.614L749.11 368.667C756.354 369.515 759.946 372.902 763.807 376.542C766.573 379.15 769.476 381.887 773.959 383.915C779.475 386.412 788.113 386.977 793.178 387.309C795.366 387.452 796.887 387.551 797.203 387.744C803.71 391.747 813.123 399.897 815.921 407.234C811.073 407.458 806.237 406.684 801.411 405.912C799.527 405.611 797.644 405.31 795.762 405.068C779.692 402.988 764.879 400.631 747.653 397.801C745.075 397.378 728.481 395.187 727.49 395.383C720.35 396.832 713.782 403.279 708.016 408.938C704.795 412.099 701.825 415.014 699.145 416.676C697.564 417.662 695.847 417.553 694.385 417.461C693.357 417.395 692.456 417.338 691.818 417.676C684.61 421.541 657.859 451.919 653.836 459.774C651.597 464.152 650.817 469.274 650.112 473.905C649.618 477.147 649.16 480.147 648.265 482.483C648.142 482.809 647.584 482.722 646.881 482.612C645.989 482.472 644.863 482.296 644.089 482.878C637.963 487.515 639.254 489.138 640.661 490.905C641.253 491.65 641.867 492.42 641.953 493.453C642.023 494.212 641.876 507.367 641.802 508.187C641.678 509.597 640.976 511.249 640.331 512.767C639.654 514.36 639.04 515.805 639.222 516.669C639.311 517.103 640.065 517.517 640.867 517.958C641.734 518.435 642.658 518.943 642.86 519.54C643.313 520.897 643.456 522.543 643.607 524.272C643.838 526.924 644.086 529.769 645.492 532.059C644.306 532.671 642.699 530.73 640.981 528.653C638.549 525.716 635.895 522.508 633.894 525.885C635.26 527.826 636.079 530.994 636.878 534.083L636.878 534.084C637.736 537.401 638.571 540.628 640.034 542.15C642.84 545.075 648.147 546.431 653.507 547.8C658.694 549.125 663.931 550.463 666.998 553.249C669.29 555.325 667.636 557.203 666.331 558.684C665.118 560.061 664.207 561.095 667.053 561.628C676.384 554.479 686.695 555.155 697.042 555.833C705.801 556.407 714.586 556.983 722.823 552.814L722.653 559.105C725.285 550.734 744.096 552.353 748.685 556.31C749.433 556.945 748.808 558.01 748.363 558.77C748.136 559.157 747.955 559.464 748.026 559.595C749.085 561.529 750.847 560.649 753.044 559.551C755.995 558.076 759.732 556.209 763.604 560.249C765.018 561.736 764.441 563.397 763.913 564.917C763.251 566.824 762.665 568.51 766.185 569.356L771.578 559.703L778.793 563.415L782.443 558.83L785.659 564.751L786.641 558.918L794.915 563.303L796.793 555.781L800.236 559.492C802.396 557.258 805.344 558.316 808.389 559.409C810.621 560.209 812.905 561.029 814.969 560.586C815.939 560.37 816.987 559.405 818.135 558.347L818.135 558.346C819.781 556.83 821.632 555.125 823.749 555.168L821.944 560.565C824.185 561.076 825.738 561.897 827.034 562.582C829.676 563.978 831.249 564.809 835.392 561.31L837.761 566.838L840.413 561.835C845.003 574.532 852.82 564.859 854.01 556.279L865.62 562.431L861.979 557.312L864.532 556.473C866.425 558.982 867.555 557.981 869.138 556.577C870.703 555.189 872.712 553.408 876.34 554.241L870.148 549.906C869.837 547.771 882.136 541 883.724 544.338L880.636 550.165C885.862 548.411 890.649 545.2 895.386 542.024L895.387 542.023C899.918 538.984 904.403 535.976 909.182 534.304C912.622 533.105 917.198 532.416 921.78 531.727L921.781 531.727C925.948 531.101 930.118 530.473 933.443 529.461C935.356 528.873 939 527.146 942.909 525.293C948.951 522.429 955.627 519.265 957.538 519.537L957.428 523.723L983.75 514.257L964.485 528.572L965.636 532.316L1009.03 524.549C1019.65 530.723 1032.2 527.69 1044.6 524.694C1049.74 523.453 1054.85 522.218 1059.79 521.648C1067.83 520.72 1076.31 520.527 1084.58 520.338L1084.58 520.338C1090.68 520.199 1096.66 520.062 1102.27 519.637C1104.99 519.431 1109.6 517.261 1113.85 515.261C1117.7 513.454 1121.25 511.785 1122.83 511.833C1124.17 511.865 1125.45 512.496 1126.79 513.158C1128.2 513.85 1129.67 514.576 1131.36 514.689C1132.02 514.732 1135.6 514.093 1140.06 513.298L1140.07 513.297L1140.07 513.297C1146.4 512.168 1154.5 510.723 1158.6 510.453C1159.6 510.384 1162.99 508.543 1166.44 506.67L1166.44 506.669C1170.34 504.55 1174.32 502.391 1174.99 502.715C1175.74 509.576 1174.83 516.364 1171.18 521.947C1173.96 521.165 1177.34 519.989 1180.99 518.719L1181 518.719C1190.86 515.288 1202.7 511.172 1209.99 512.305C1210.69 512.412 1211.23 512.417 1211.65 512.422C1213.02 512.435 1213.21 512.437 1213.79 515.816L1205.3 519.804L1207.74 523.206C1203.71 526.781 1198.59 525.649 1194.81 524.815C1193.11 524.438 1191.68 524.122 1190.75 524.328C1188.5 524.842 1185.6 526.209 1182.48 527.678C1177.93 529.818 1172.93 532.175 1168.81 532.429C1172.57 535.642 1177.76 534.319 1183.15 532.945C1188.41 531.604 1193.86 530.214 1198.36 532.941L1229.7 521.916L1234.95 528.082C1231.4 528.685 1228.34 530.896 1225.59 532.881L1225.59 532.882C1224.04 534.001 1222.59 535.049 1221.21 535.696C1220.8 535.887 1218.13 536.295 1214.68 536.821C1208.7 537.734 1200.39 539.003 1197.59 540.105C1192.93 541.936 1175.79 550.413 1188.76 552.156C1191.3 552.492 1194.61 551.245 1198.04 549.953C1202.93 548.11 1208.06 546.176 1211.54 548.604C1217.86 555.448 1208.82 559.345 1201.02 562.708C1196.01 564.87 1191.51 566.811 1191.93 569.172L1204.62 567.466L1206.04 572.379C1207.39 572.47 1208.84 572.519 1210.33 572.569L1210.33 572.569C1213.28 572.668 1216.35 572.77 1218.92 573.21C1219.14 573.248 1219.52 573.259 1219.98 573.272C1222.15 573.333 1226.12 573.446 1224.08 576.611C1223.46 577.57 1220.48 577.782 1217.58 577.99C1215.42 578.145 1213.29 578.297 1212.21 578.753C1210.63 579.416 1209.55 580.93 1208.72 582.089L1208.72 582.09C1208.21 582.802 1207.79 583.379 1207.42 583.542C1207.24 583.621 1206.7 583.355 1205.91 582.965C1202.44 581.25 1194.07 577.122 1189.73 589.286L1245.16 593.108L1237.23 608.075C1232.49 606.553 1227.28 607.198 1222.2 607.828C1219.03 608.221 1215.9 608.609 1212.97 608.455C1211.75 608.39 1210.64 607.746 1209.48 607.074C1208.21 606.337 1206.88 605.566 1205.28 605.488C1202.49 605.358 1199.67 605.497 1196.84 605.636C1191.89 605.88 1186.92 606.125 1182.02 604.927C1179.68 605.431 1175.03 612.986 1178.19 615.1L1185.51 608.08L1232.87 616.394L1219.65 641.345C1212.79 640.087 1206.72 637.398 1200.71 634.737C1192.85 631.251 1185.08 627.812 1175.78 627.698L1177.55 633.518L1216.13 647.995L1204.67 669.611C1200.94 668.297 1196.74 665.674 1192.57 663.064C1187.86 660.117 1183.18 657.187 1179.2 656.168C1178.51 655.996 1177.89 656.569 1177.27 657.152C1176.61 657.756 1175.95 658.37 1175.19 658.179C1174.04 657.9 1172.83 657.196 1171.6 656.474C1168.79 654.839 1165.83 653.109 1162.95 655.992L1199.39 679.575L1189.69 697.877L1140.83 665.601C1142.9 673.838 1151.67 678.903 1159.57 683.469C1162.57 685.202 1165.45 686.862 1167.78 688.597C1170.87 690.874 1173.83 693.643 1176.81 696.428C1179.86 699.282 1182.94 702.152 1186.17 704.527L1177.36 721.161C1162.11 714.798 1148.38 703.67 1134.99 692.82C1125.83 685.397 1116.83 678.104 1107.62 672.558C1105.71 671.405 1101.52 669.211 1100.68 673.04L1169.42 736.128L1157.97 757.744L1076.03 683.445C1075 688.528 1078.98 692.564 1082.64 696.276C1084.16 697.816 1085.62 699.3 1086.65 700.78C1086.97 701.249 1086.97 701.917 1086.96 702.685C1086.96 703.78 1086.95 705.078 1087.89 706.292C1097.47 718.845 1109.72 730.336 1121.95 741.806L1121.95 741.807C1132.14 751.366 1142.32 760.911 1150.92 771.043L1144.75 782.696C1141.68 781.491 1140.99 779.754 1140.21 777.795C1139.49 776 1138.7 774.02 1135.94 772.093C1134.3 770.95 1132.43 770.277 1130.74 769.668C1129.18 769.105 1127.77 768.596 1126.83 767.82C1124.8 766.152 1123.56 762.884 1122.23 759.375C1120.25 754.167 1118.07 748.427 1112.8 746.599L1125.93 778.051L1114.76 771.076L1116.2 780.332C1113.93 777.744 1110.93 776.495 1107.99 775.268C1105.67 774.303 1103.39 773.352 1101.52 771.772C1097.28 768.215 1090.77 757.198 1084.68 746.887L1084.68 746.885C1080.74 740.22 1076.98 733.85 1074.11 729.981C1063.31 715.405 1050.41 700.581 1037.66 687.636C1042.94 701.36 1052.74 714.171 1062.19 726.539L1062.19 726.54C1065.42 730.757 1068.6 734.922 1071.55 739.055C1072.31 740.12 1072.41 741.188 1072.5 742.262C1072.59 743.348 1072.69 744.438 1073.47 745.537C1089.73 768.05 1109.7 790.618 1131.52 807.648L1122.71 824.283L1122.68 824.545ZM702.349 634.64L706.386 642.31L709.371 646.882L706.608 633.999C705.184 634.176 703.763 634.39 702.349 634.64ZM695.6 321.28L670.67 308.069L669.727 311.786L679.75 315.017L668.04 313.084C668.436 318.186 674.626 318.661 679.643 319.046C681.767 319.209 683.68 319.356 684.855 319.831C686.887 320.651 688.391 322.092 689.899 323.537C691.326 324.904 692.756 326.274 694.639 327.124L695.612 321.258L695.6 321.28ZM673.685 384.662L673.686 384.661C676.773 382.329 680.091 379.823 683.351 378.79C686.278 375.571 682.705 374.615 679.594 373.783C678.182 373.405 676.865 373.053 676.295 372.526C675.483 371.788 675.18 370.624 674.862 369.402C674.52 368.088 674.161 366.708 673.133 365.718C672.017 364.645 669.273 363.364 666.22 361.938C662.591 360.243 658.525 358.345 656.238 356.349C652.436 353.016 650.136 349.718 648.044 346.72C644.239 341.262 641.123 336.795 630.899 334.904C609.238 330.916 577.348 346.752 584.26 373.025C585.599 378.09 597.882 396.112 602.775 397.872C605.437 398.832 607.54 397.969 609.498 397.165C610.795 396.633 612.028 396.126 613.319 396.192C614.813 396.268 616.263 396.348 617.677 396.425C636.032 397.428 648.238 398.096 667.599 388.78L667.577 388.768C669.43 387.876 671.5 386.312 673.685 384.662ZM1163.1 647.859C1162.33 647.501 1161.35 646.9 1160.25 646.229C1156.04 643.654 1150.12 640.034 1147.64 644.994C1146.11 648.068 1151.64 649.767 1155.99 651.099C1158.03 651.726 1159.8 652.272 1160.46 652.841L1163.1 647.859ZM628.416 456.124L630.294 448.603C630.133 448.778 629.971 448.956 629.806 449.137C625.059 454.334 618.562 461.448 620.546 468.987L624.926 462.764L627.322 466.198L632.625 456.191L628.438 456.136L628.416 456.124ZM584.421 430.675C581.084 427.891 578.321 430.39 576.25 432.263C575.492 432.949 574.826 433.551 574.259 433.779C573.174 434.209 573.318 433.183 573.502 431.866C573.764 429.986 574.11 427.513 571.077 427.848L557.37 437.59C557.851 439.038 583.42 438.217 584.432 430.653L584.421 430.675ZM561.943 420.899C561.245 418.865 549.987 420.583 549.548 421.045C549.083 421.513 549.071 422.333 549.059 423.205C549.045 424.229 549.03 425.323 548.279 426.004C547.614 426.603 543.452 427.127 538.556 427.743C531.752 428.6 523.531 429.635 521.311 431.298L522.712 426.77L519.835 424.136C516.929 429.846 511.335 432.077 505.767 434.297C501.045 436.18 496.342 438.056 493.314 442.04L515.367 434.557L516.08 439.179C520.151 435.372 530.989 431.461 536.457 430.724C538.138 430.509 539.797 430.976 541.41 431.43C543.195 431.932 544.924 432.418 546.571 431.951C547.979 431.551 550.266 429.556 552.787 427.357L552.788 427.356C555.881 424.659 559.328 421.653 561.943 420.899ZM600.824 447.884C597.785 445.911 597.767 445.948 597.25 447.029C597.054 447.438 596.786 447.997 596.255 448.653C592.82 452.864 589.892 458.18 586.98 463.464L586.98 463.465C584.723 467.561 582.477 471.639 580.013 475.167C583.245 475.463 585.523 472.159 587.698 469.002C588.888 467.275 590.048 465.592 591.317 464.568C592.062 463.972 593.047 463.861 594.087 463.743C596.338 463.487 598.848 463.203 599.754 457.914L595.566 457.859L600.857 447.874L600.824 447.884ZM555.281 453.572C555.778 454.834 573.851 447.794 573.154 443.874C571.658 444.071 570.105 444.167 568.568 444.262C561.919 444.672 555.554 445.065 555.281 453.572ZM623.036 470.307L620.342 511.455L611.72 503.704C612.532 502.719 613.468 503.909 614.383 505.074C615.567 506.579 616.716 508.041 617.519 504.696C618.458 500.812 618.508 496.388 618.56 491.863C618.646 484.268 618.736 476.39 623.036 470.307ZM535.592 439.005C535.954 438.957 536.388 439.418 536.94 440.003C538.117 441.251 539.828 443.063 542.502 441.723L548.124 434.882C538.242 433.45 529.975 439.065 522.038 444.455C516.546 448.185 511.213 451.808 505.612 452.913C504.672 453.1 503.744 452.685 502.838 452.279C501.8 451.815 500.791 451.364 499.826 451.844C497.861 452.796 495.675 456.007 493.393 459.359C491.513 462.12 489.569 464.976 487.63 466.743C485.44 468.734 482.569 470.374 479.648 472.043C475.574 474.37 471.401 476.754 468.835 480.225C477.634 479.274 483.65 473.777 489.495 468.437L489.495 468.436C492.056 466.097 494.583 463.789 497.296 461.905C501.392 459.063 505.937 457.134 510.391 455.244L510.391 455.244C513.381 453.975 516.33 452.723 519.074 451.225C520.797 450.273 524.891 447.087 528.584 444.212L528.586 444.21C532.036 441.525 535.135 439.112 535.624 439.05L535.592 439.005ZM539.518 451.489C539.368 451.103 539.725 450.567 540.102 449.999C540.787 448.969 541.54 447.836 539.452 447.32L524.662 467.169C527.292 469.647 529.495 467.796 531.644 465.989C532.081 465.622 532.515 465.257 532.95 464.931C536.031 462.624 541.597 457.723 543.847 454.837C546.062 452.01 544.328 452.079 542.428 452.154C541.166 452.205 539.831 452.258 539.53 451.467L539.518 451.489ZM594.251 476.359C587.225 472.902 585.003 483.078 583.469 490.102C583.086 491.855 582.746 493.412 582.385 494.512L586.983 498.086C588.142 489.878 589.138 483.443 594.24 476.381L594.251 476.359ZM600.922 479.894C604.525 482.302 603.177 498.233 601.259 499.265L598.319 496.797L594.571 499.943L600.922 479.894ZM556.249 479.027C556.371 483.759 556.489 488.379 553.483 493.09L548.885 489.41L548.905 489.35C551.447 481.583 553.037 476.724 549.898 468.863L560.124 462.547C555.975 468.366 556.114 473.766 556.249 479.027ZM577.064 498.323C575.459 493.869 573.934 492.682 572.795 491.796C572.1 491.256 571.55 490.827 571.212 489.839C570.266 487.066 571.518 482.188 572.619 477.899C573.655 473.861 574.558 470.344 573.368 469.593C566.663 472.195 567.451 479.164 568.187 485.66C568.535 488.738 568.871 491.709 568.393 494.06L578.207 512.605C580.827 508.263 579.173 503.923 577.623 499.858C577.425 499.338 577.228 498.822 577.043 498.311L577.064 498.323ZM494.84 451.374L494.841 451.374C497.506 450.366 501.821 448.733 500.765 445.989C496.379 446.025 491.804 448.673 487.955 450.901C486.057 452 484.335 452.996 482.899 453.527C481.469 454.052 481.803 452.775 482.149 451.45C482.537 449.968 482.94 448.425 480.905 449.28L452.311 467.169C466.508 463.623 480.188 457.805 493.53 451.893C493.871 451.741 494.325 451.569 494.84 451.374ZM594.143 523.457L594.143 523.457C595.048 516.075 595.947 508.739 593.665 501.599C589.021 514.812 584.94 535.287 595.09 547.074C592.206 539.272 593.178 531.338 594.143 523.457ZM513.041 461.039C512.758 461.602 510.967 463.123 508.655 465.087C502.609 470.222 492.995 478.388 497.429 480.397C500.738 481.9 509.49 469.782 511.377 466.954C511.629 466.58 512.006 466.15 512.407 465.691C513.852 464.042 515.615 462.028 513.031 461.006L513.041 461.039ZM618.418 555.247C610.939 548.876 608.953 538.836 606.987 528.896C605.872 523.263 604.764 517.662 602.667 512.777C598.488 518.511 600.925 523.154 603.272 527.625C604.293 529.568 605.296 531.479 605.731 533.432C606.022 534.746 606.021 536.636 606.021 538.69L606.021 538.691C606.021 542.241 606.021 546.284 607.519 548.695C607.847 549.229 617.207 558.212 618.439 555.258L618.418 555.247ZM537.561 480.32C536.408 479.601 535.925 479.299 535.583 479.415C535.337 479.498 535.164 479.797 534.867 480.311C534.658 480.672 534.389 481.139 533.99 481.711C531.913 484.688 520.219 502.044 520.419 503.288C523.051 505.427 523.63 504.89 524.825 503.781C525.233 503.402 525.713 502.957 526.37 502.53C532.051 498.855 533.279 494.803 534.665 490.23C535.533 487.365 536.463 484.295 538.59 480.986L538.602 480.965C538.204 480.722 537.86 480.507 537.561 480.32ZM575.109 551.799C575.1 551.624 574.743 550.998 574.222 550.085C572.884 547.741 570.467 543.506 570.12 540.167C569.882 537.837 570.243 535.539 570.603 533.246C571.117 529.969 571.63 526.706 570.386 523.385L567.761 525.878L563.697 521.977L572.141 556.247C573.849 556.846 575.132 553.115 575.075 551.809L575.109 551.799ZM542.092 510.501C538.456 507.482 537.595 509.939 536.491 513.087C536.332 513.541 536.168 514.01 535.989 514.479C534.188 519.24 531.552 527.774 534.845 532.238L542.081 510.522L542.092 510.501ZM443.199 460.231C442.817 458.631 438.095 460.033 433.546 461.385C429.883 462.473 426.331 463.527 425.249 462.954C416.108 458.02 406.666 458.21 397.63 458.393C392.7 458.492 387.891 458.589 383.317 457.85C382.808 457.768 381.757 457.463 380.376 457.062C373.585 455.092 358.785 450.798 360.775 459.137C361.394 461.739 362.862 460.684 364.483 459.521C366.127 458.341 367.927 457.049 369.159 459.335L363.978 465.08L373.068 472.06L367.838 479.941C369.641 480.632 371.336 480.334 373.118 480.021C374.504 479.778 375.942 479.525 377.526 479.721C380.393 480.076 386.331 481.466 392.396 482.885C400.209 484.713 408.234 486.59 410.177 486.371C412.882 486.084 413.485 484.683 414.449 482.393L410.475 473.767L421.074 469.785L411.459 467.88C412.553 467.294 416.633 466.817 421.521 466.246C431.175 465.117 443.981 463.62 443.167 460.187L443.199 460.231ZM429.688 497.82L459.045 477.811L461.419 472.022C457.522 476.039 452.567 478.956 447.646 481.852C440.446 486.09 433.319 490.284 429.688 497.82ZM480.577 514.134C482.324 511.703 484.322 509.587 486.301 507.493C489.948 503.631 493.53 499.84 495.346 494.274C489.789 495.546 475.882 508.178 480.577 514.134ZM673.845 602.207C673.494 600.828 661.495 587.978 660.568 588.208C660.687 590.168 658.989 592.533 657.562 594.522C656.525 595.967 655.63 597.213 655.677 597.962C655.756 599.279 670.391 621.239 673.752 615.419C672.594 613.204 673.123 609.618 673.563 606.634C673.84 604.755 674.082 603.115 673.845 602.207ZM518.432 514.996C517.402 511.232 515.34 513.607 513.81 515.709C509.455 521.78 507.978 527.184 507.588 534.412C507.536 535.328 507.185 536.062 506.886 536.687C506.228 538.066 505.821 538.918 509.407 540.036L518.41 514.985L518.432 514.996ZM609.128 592.88C609.285 581.589 605.226 570.089 598.126 561.5C596.227 563.687 596.991 565.35 597.842 567.202L597.842 567.203C598.107 567.78 598.381 568.376 598.585 569.011C599.423 571.584 600.232 574.234 601.041 576.882L601.042 576.885L601.043 576.889C602.067 580.243 603.091 583.594 604.173 586.787C604.394 587.433 604.545 588.016 604.682 588.545C605.227 590.648 605.552 591.9 609.138 592.913L609.128 592.88ZM539.904 566.878C542.447 564.591 546.752 535.108 540.633 537.441C537.68 546.363 536.176 558.05 539.904 566.878ZM587.129 577.887L587.129 577.886C586.354 569.633 585.536 560.912 584.667 560.776C580.917 560.161 581.261 562.181 581.596 564.147C581.694 564.724 581.791 565.296 581.785 565.796C581.568 581.378 587.485 596.928 592.991 611.4C593.431 612.555 593.868 613.703 594.299 614.844C596.581 613.835 595.936 602.174 595.641 601.213C595.189 599.773 593.871 598.375 592.487 596.907C591.088 595.424 589.623 593.869 588.914 592.128L588.903 592.15C588.337 590.754 587.747 584.469 587.129 577.887ZM439.332 515.691C441.571 513.06 444.329 510.901 447.08 508.746C451.647 505.17 456.195 501.608 458.32 495.931L439.169 508.669L439.343 515.67L439.332 515.691ZM508.312 586.34C513.403 580.757 513.45 575.077 513.497 569.253C513.518 566.746 513.538 564.212 513.962 561.647C514.003 561.387 514.261 560.563 514.631 559.384C516.475 553.499 521.094 538.763 515.293 541.075L507.378 569.255L508.312 586.34ZM477.252 548.575L489.502 529.488C478.923 528.459 473.892 539.471 477.252 548.575ZM572.334 618.13C577.525 607.043 571.606 590.822 567.58 579.789L567.407 579.316C564.469 586.38 566.73 593.127 568.963 599.787C569.884 602.537 570.801 605.271 571.345 608.007C571.641 609.509 571.484 611.078 571.337 612.558C571.114 614.802 570.91 616.841 572.334 618.13ZM405.189 535.938L430.241 508.765L411.362 522.037C409.299 524.411 402.421 532.889 405.189 535.938ZM444.28 554.517C449.185 550.272 451.06 543.639 452.787 537.531L452.857 537.284C452.894 537.153 452.934 537.011 452.977 536.86L452.986 536.826C453.82 533.88 455.673 527.328 453.437 525.302L442.181 538.479L450.665 534.458L444.292 554.495L444.28 554.517ZM522.24 604.346C525.897 610.167 528.359 592.275 528.443 590.599C528.512 589.054 528.73 583.094 526.946 583.425C520.379 588.514 520.981 593.083 521.732 598.783C521.961 600.521 522.204 602.363 522.262 604.357L522.24 604.346ZM454.254 559.83C451.306 557.548 450.895 558.194 450.003 559.599C449.656 560.144 449.237 560.803 448.568 561.45C439.23 570.539 435.041 578.444 433.343 591.332L454.254 559.83ZM474.345 634.366C478.839 630.517 479.707 626.263 480.581 621.972C480.992 619.957 481.404 617.935 482.194 615.943C483.174 613.468 484.497 610.707 485.89 607.801L485.892 607.798C490.331 598.536 495.48 587.793 492.516 580.078C491.709 582.456 489.424 585.44 487.041 588.551C481.695 595.53 475.861 603.147 485.138 605.99C484.065 609.654 481.562 612.894 479.097 616.084C474.792 621.658 470.603 627.08 474.357 634.344L474.345 634.366ZM578.376 646.882C578.726 644.127 577.158 623.738 572.996 624.889C573.17 626.847 572.986 629.063 572.798 631.331C572.284 637.529 571.737 644.116 578.376 646.882ZM547.359 641.126C555.385 635.227 550.744 625.31 547.363 618.085L547.18 617.693L547.115 617.555C543.751 624.899 542.677 634.151 547.359 641.126ZM418.329 586.165L418.329 586.165C420.509 579.731 422.729 573.174 420.442 567.462C415.508 575.778 412.186 587.334 415.494 596.799C415.875 593.411 417.095 589.808 418.329 586.165ZM555.941 669.116C556.259 667.801 556.668 666.391 557.093 664.924C559.29 657.336 561.928 648.226 554.902 643.015C548.744 651.181 549.419 661.582 555.941 669.116ZM495.104 1028.87C500.387 1012.31 500.185 991.171 496.453 974.185C496.271 980.407 495.239 986.85 494.206 993.296C492.94 1001.2 491.674 1009.11 491.973 1016.61L491.974 1016.64C492.136 1020.88 492.309 1025.37 495.104 1028.87ZM281.983 991.762L281.983 991.763C277.268 1000.37 272.616 1008.87 269.718 1016.85C268.653 1019.79 268.392 1022.85 268.131 1025.91C267.757 1030.29 267.383 1034.68 264.64 1038.68L268.962 1042.31L264.045 1051.32L269.005 1053.95L279.687 1029.76L275.5 1029.71C276.197 1028.01 277.44 1026.74 278.686 1025.47C279.852 1024.28 281.02 1023.08 281.746 1021.53C289.64 1004.7 295.284 981.901 299.753 963.843L299.781 963.733L295.18 964.457C292.052 973.377 286.982 982.635 281.983 991.762ZM310.006 1044.17C308.46 1041.38 306.05 1040.38 304.126 1043.8C302.42 1046.86 291.807 1073.69 299.674 1072.09L301.486 1069.2L303.938 1070.33C303.945 1070.53 303.953 1070.73 303.96 1070.92C304.165 1076.44 304.225 1078.07 310.438 1080.15C312.202 1079.76 310.835 1045.74 309.985 1044.15L310.006 1044.17Z" fill="#238655"></path>
</svg><style>@media (prefers-color-scheme: light) { :root { filter: none; } }
@media (prefers-color-scheme: dark) { :root { filter: none; } }
</style></svg>