<svg width="253" height="350" viewBox="0 0 253 350" fill="none" xmlns="http://www.w3.org/2000/svg">
<path d="M19.348 175.043H48.5218V250.53H19.348V175.043Z" fill="#238655"/>
<path d="M-9.82681 204.217H19.347V233.391H-9.82681V204.217Z" fill="#238655"/>
<path d="M-39 233.391H156.1V320.912H-39V233.391Z" fill="#238655"/>
<path d="M-39 262.565H-9.82617V291.738H-39V262.565Z" fill="#238655"/>
<path d="M-39 291.738H-9.82617V320.912L-39 320.912V291.738Z" fill="#238655"/>
<path d="M-9.82617 320.912L19.347 320.912V350.086H-9.82681L-9.82617 320.912Z" fill="#238655"/>
<path d="M48.5212 58.3478H77.695V87.5216H48.5212V58.3478Z" fill="#238655"/>
<path d="M77.695 87.5216L106.87 87.5216V116.695H77.696L77.695 87.5216Z" fill="#238655"/>
<path d="M47.9642 117.319L77.696 116.695H106.87L106.869 145.869L77.696 145.869L47.9642 145.049V117.319Z" fill="#238655"/>
<path d="M77.696 145.869H194.391V233.391H77.696V145.869Z" fill="#238655"/>
<path d="M48.5218 175.043H77.695V320.912H48.5212L48.5218 175.043Z" fill="#238655"/>
<path d="M48.5212 0H77.695V29.1738H48.5212V0Z" fill="#238655"/>
<path d="M48.5212 0H106.869L106.87 87.5216L48.5212 87.5216V0Z" fill="#238655"/>
<path d="M106.869 29.174H136.043V58.3478H106.869V29.174Z" fill="#238655"/>
<path d="M106.869 58.3478H136.043V87.5216L106.87 87.5216L106.869 58.3478Z" fill="#238655"/>
<path d="M106.87 87.5216L136.043 87.5216V116.695H106.87V87.5216Z" fill="#238655"/>
<path d="M106.87 116.695H136.043V145.869H106.869L106.87 116.695Z" fill="#238655"/>
<path d="M136.043 145.869L165.216 145.869V175.043H136.042L136.043 145.869Z" fill="#238655"/>
<path d="M106.869 145.869H136.043L136.042 175.043H106.869V145.869Z" fill="#238655"/>
<path d="M223.565 145.869H252.739V175.043H223.565V145.869Z" fill="#238655"/>
<path d="M165.216 145.869H194.391L194.391 175.043H165.216V145.869Z" fill="#238655"/>
<path d="M194.39 116.695H223.564L223.565 145.869H194.391L194.39 116.695Z" fill="#238655"/>
<path d="M194.391 175.043H223.565L223.564 204.217H194.39L194.391 175.043Z" fill="#238655"/>
<path d="M165.217 204.217L194.39 204.217L194.391 233.391L165.217 233.391V204.217Z" fill="#238655"/>
<path d="M136.042 233.391L165.217 233.391L165.216 262.565H136.042V233.391Z" fill="#238655"/>
<path d="M136.042 262.565H165.216V291.738H136.042V262.565Z" fill="#238655"/>
<path d="M165.216 262.565L194.391 262.565V291.738H165.216V262.565Z" fill="#238655"/>
<path d="M194.391 291.738L223.564 291.738V320.912H194.39L194.391 291.738Z" fill="#238655"/>
<path d="M77.695 320.912H106.87V350.086H77.696L77.695 320.912Z" fill="#238655"/>
<path d="M19.347 320.912H48.5212L48.5218 350.086H19.347V320.912Z" fill="#238655"/>
<path d="M48.5212 320.912H77.695L77.696 350.086H48.5218L48.5212 320.912Z" fill="#238655"/>
<path d="M106.87 320.912H136.043V350.086H106.87V320.912Z" fill="#238655"/>
<path d="M136.043 320.912H165.216V350.086H136.043V320.912Z" fill="#238655"/>
<path d="M136.042 291.738H194.391L194.39 320.912L136.043 320.912L136.042 291.738Z" fill="#238655"/>
</svg>
