<svg width="1919" height="215" viewBox="0 0 1919 215" fill="none" xmlns="http://www.w3.org/2000/svg">
<path d="M386.431 10.7325C389.256 11.1828 389.427 8.4702 390.641 7.90616C392.985 6.80463 417.71 4.71873 420.726 5.15663C421.825 5.31765 421.01 7.52323 421.7 8.09061C422.235 8.54141 423.875 7.9287 424.433 8.4202C425.327 9.20661 423.707 11.612 428.139 11.6628L428.532 19.953C424.132 20.5755 425.969 22.7571 425.155 23.654C424.342 24.5509 421.936 22.9971 421.801 27.3747L394.174 29.1631C393.571 25.0232 391.657 26.6245 390.632 25.7833C384.885 21.0055 386.655 18.1683 386.452 10.7311L386.431 10.7325Z" fill="#EC1D1D"/>
<path d="M386.431 10.7325C389.256 11.1828 389.427 8.4702 390.641 7.90616C392.985 6.80463 417.71 4.71873 420.726 5.15663C421.825 5.31765 421.01 7.52323 421.7 8.09061C422.235 8.54141 423.875 7.9287 424.433 8.4202C425.327 9.20661 423.707 11.612 428.139 11.6628L428.532 19.953C424.132 20.5755 425.969 22.7571 425.155 23.654C424.342 24.5509 421.936 22.9971 421.801 27.3747L394.174 29.1631C393.571 25.0232 391.657 26.6245 390.632 25.7833C384.885 21.0055 386.655 18.1683 386.452 10.7311L386.431 10.7325Z" fill="#EC1D1D"/>
<path d="M278.517 10.4446C281.095 10.8556 281.251 8.37961 282.359 7.86476C284.499 6.85931 307.067 4.95533 309.821 5.35503C310.824 5.50201 310.08 7.51523 310.71 8.03313C311.198 8.44461 312.695 7.88534 313.205 8.33398C314.02 9.0518 312.542 11.2474 316.587 11.2937L316.946 18.8609C312.93 19.4291 314.606 21.4205 313.864 22.2391C313.121 23.0578 310.925 21.6395 310.802 25.6353L285.584 27.2678C285.034 23.4889 283.286 24.9506 282.352 24.1827C277.105 19.8217 278.721 17.2319 278.536 10.4433L278.517 10.4446Z" fill="#EC1D1D"/>
<path d="M278.517 10.4446C281.095 10.8556 281.251 8.37961 282.359 7.86476C284.499 6.85931 307.067 4.95533 309.821 5.35503C310.824 5.50201 310.08 7.51523 310.71 8.03313C311.198 8.44461 312.695 7.88534 313.205 8.33398C314.02 9.0518 312.542 11.2474 316.587 11.2937L316.946 18.8609C312.93 19.4291 314.606 21.4205 313.864 22.2391C313.121 23.0578 310.925 21.6395 310.802 25.6353L285.584 27.2678C285.034 23.4889 283.286 24.9506 282.352 24.1827C277.105 19.8217 278.721 17.2319 278.536 10.4433L278.517 10.4446Z" fill="#EC1D1D"/>
<path d="M336.144 12.1342C336.491 11.7736 338.314 12.2474 338.905 11.6173C339.354 11.1444 338.812 9.65785 339.337 8.96875C342.382 4.94638 357.345 3.72418 362.298 4.69274C362.687 4.77319 367.735 7.27841 367.918 7.54125C370.295 11.107 370.071 20.3994 365.639 22.7363C363.84 23.6769 361.652 23.6073 359.864 24.3147C359.044 24.6426 359.18 26.1554 358.377 26.3976C357.384 26.6944 348.605 28.1925 348.107 28.0768C346.653 27.706 346.627 25.3407 345.482 25.1401C343.927 24.8814 340.703 26.0411 339.9 25.3746C339.61 25.1397 339.98 23.4462 339.369 22.7461C338.711 21.9856 337.043 22.0513 336.536 20.8583C336.075 19.7258 335.736 12.5622 336.124 12.1566L336.144 12.1342Z" fill="#EC1D1D"/>
<path d="M336.144 12.1342C336.491 11.7736 338.314 12.2474 338.905 11.6173C339.354 11.1444 338.812 9.65785 339.337 8.96875C342.382 4.94638 357.345 3.72418 362.298 4.69274C362.687 4.77319 367.735 7.27841 367.918 7.54125C370.295 11.107 370.071 20.3994 365.639 22.7363C363.84 23.6769 361.652 23.6073 359.864 24.3147C359.044 24.6426 359.18 26.1554 358.377 26.3976C357.384 26.6944 348.605 28.1925 348.107 28.0768C346.653 27.706 346.627 25.3407 345.482 25.1401C343.927 24.8814 340.703 26.0411 339.9 25.3746C339.61 25.1397 339.98 23.4462 339.369 22.7461C338.711 21.9856 337.043 22.0513 336.536 20.8583C336.075 19.7258 335.736 12.5622 336.124 12.1566L336.144 12.1342Z" fill="#EC1D1D"/>
<path d="M219.824 11.3751C222.648 11.8254 222.819 9.11284 224.034 8.5488C226.378 7.44727 251.102 5.36137 254.119 5.79926C255.218 5.96029 254.402 8.16587 255.093 8.73325C255.628 9.18405 257.268 8.57134 257.826 9.06284C258.719 9.84925 257.1 12.2546 261.532 12.3054L261.925 20.5956C257.525 21.2181 259.361 23.3998 258.548 24.2966C257.735 25.1935 255.328 23.6397 255.193 28.0173L227.566 29.8057C226.963 25.6658 225.049 27.2671 224.025 26.4259C218.277 21.6482 220.048 18.8109 219.845 11.3737L219.824 11.3751Z" fill="#EC1D1D"/>
<path d="M219.824 11.3751C222.648 11.8254 222.819 9.11284 224.034 8.5488C226.378 7.44727 251.102 5.36137 254.119 5.79926C255.218 5.96029 254.402 8.16587 255.093 8.73325C255.628 9.18405 257.268 8.57134 257.826 9.06284C258.719 9.84925 257.1 12.2546 261.532 12.3054L261.925 20.5956C257.525 21.2181 259.361 23.3998 258.548 24.2966C257.735 25.1935 255.328 23.6397 255.193 28.0173L227.566 29.8057C226.963 25.6658 225.049 27.2671 224.025 26.4259C218.277 21.6482 220.048 18.8109 219.845 11.3737L219.824 11.3751Z" fill="#EC1D1D"/>
<path d="M111.897 11.0872C114.475 11.4983 114.631 9.02225 115.739 8.5074C117.879 7.50195 140.447 5.59797 143.201 5.99767C144.204 6.14465 143.46 8.15787 144.09 8.67577C144.578 9.08725 146.075 8.52798 146.585 8.97662C147.4 9.69444 145.922 11.89 149.967 11.9364L150.326 19.5035C146.31 20.0718 147.986 22.0631 147.244 22.8818C146.501 23.7004 144.305 22.2822 144.182 26.278L118.964 27.9104C118.414 24.1316 116.666 25.5932 115.732 24.8253C110.485 20.4643 112.101 17.8745 111.916 11.086L111.897 11.0872Z" fill="#EC1D1D"/>
<path d="M111.897 11.0872C114.475 11.4983 114.631 9.02225 115.739 8.5074C117.879 7.50195 140.447 5.59797 143.201 5.99767C144.204 6.14465 143.46 8.15787 144.09 8.67577C144.578 9.08725 146.075 8.52798 146.585 8.97662C147.4 9.69444 145.922 11.89 149.967 11.9364L150.326 19.5035C146.31 20.0718 147.986 22.0631 147.244 22.8818C146.501 23.7004 144.305 22.2822 144.182 26.278L118.964 27.9104C118.414 24.1316 116.666 25.5932 115.732 24.8253C110.485 20.4643 112.101 17.8745 111.916 11.086L111.897 11.0872Z" fill="#EC1D1D"/>
<path d="M169.535 12.7768C169.882 12.4162 171.704 12.8899 172.296 12.2599C172.745 11.787 172.203 10.3004 172.727 9.61132C175.772 5.58895 190.736 4.36676 195.688 5.33532C196.078 5.41577 201.125 7.92099 201.309 8.18383C203.685 11.7496 203.461 21.042 199.029 23.3789C197.231 24.3195 195.042 24.2498 193.254 24.9573C192.434 25.2852 192.57 26.798 191.767 27.0402C190.774 27.3369 181.996 28.8351 181.497 28.7194C180.044 28.3485 180.018 25.9832 178.872 25.7826C177.317 25.524 174.094 26.6837 173.291 26.0171C173.001 25.7823 173.371 24.0888 172.759 23.3887C172.102 22.6282 170.433 22.6939 169.927 21.5009C169.466 20.3684 169.126 13.2047 169.514 12.7992L169.535 12.7768Z" fill="#EC1D1D"/>
<path d="M169.535 12.7768C169.882 12.4162 171.704 12.8899 172.296 12.2599C172.745 11.787 172.203 10.3004 172.727 9.61132C175.772 5.58895 190.736 4.36676 195.688 5.33532C196.078 5.41577 201.125 7.92099 201.309 8.18383C203.685 11.7496 203.461 21.042 199.029 23.3789C197.231 24.3195 195.042 24.2498 193.254 24.9573C192.434 25.2852 192.57 26.798 191.767 27.0402C190.774 27.3369 181.996 28.8351 181.497 28.7194C180.044 28.3485 180.018 25.9832 178.872 25.7826C177.317 25.524 174.094 26.6837 173.291 26.0171C173.001 25.7823 173.371 24.0888 172.759 23.3887C172.102 22.6282 170.433 22.6939 169.927 21.5009C169.466 20.3684 169.126 13.2047 169.514 12.7992L169.535 12.7768Z" fill="#EC1D1D"/>
<path d="M50.9212 12.0027C53.7459 12.4531 53.9169 9.74047 55.1313 9.17642C57.4758 8.0749 82.2001 5.989 85.2167 6.42689C86.3157 6.58791 85.5001 8.79349 86.1904 9.36087C86.7253 9.81168 88.3654 9.19897 88.9237 9.69047C89.8169 10.4769 88.1976 12.8822 92.6297 12.933L93.0226 21.2232C88.6225 21.8458 90.4592 24.0274 89.6457 24.9243C88.8323 25.8212 86.4261 24.2674 86.2912 28.645L58.6639 30.4334C58.0611 26.2935 56.1469 27.8948 55.1227 27.0535C49.3752 22.2758 51.1453 19.4386 50.9425 12.0014L50.9212 12.0027Z" fill="#EC1D1D"/>
<path d="M50.9212 12.0027C53.7459 12.4531 53.9169 9.74047 55.1313 9.17642C57.4758 8.0749 82.2001 5.989 85.2167 6.42689C86.3157 6.58791 85.5001 8.79349 86.1904 9.36087C86.7253 9.81168 88.3654 9.19897 88.9237 9.69047C89.8169 10.4769 88.1976 12.8822 92.6297 12.933L93.0226 21.2232C88.6225 21.8458 90.4592 24.0274 89.6457 24.9243C88.8323 25.8212 86.4261 24.2674 86.2912 28.645L58.6639 30.4334C58.0611 26.2935 56.1469 27.8948 55.1227 27.0535C49.3752 22.2758 51.1453 19.4386 50.9425 12.0014L50.9212 12.0027Z" fill="#EC1D1D"/>
<path d="M0.632458 13.4065C0.979642 13.0459 2.80205 13.5197 3.3936 12.8897C3.8426 12.4168 3.30072 10.9302 3.82518 10.2411C6.87016 6.21872 21.8332 4.99652 26.7861 5.96508C27.1757 6.04553 32.2228 8.55075 32.4067 8.81359C34.7828 12.3794 34.559 21.6717 30.127 24.0086C28.3288 24.9493 26.1398 24.8796 24.352 25.5871C23.5318 25.9149 23.6678 27.4278 22.865 27.6699C21.872 27.9667 13.0932 29.4649 12.5949 29.3492C11.1417 28.9783 11.1153 26.613 9.97006 26.4124C8.41499 26.1538 5.19147 27.3135 4.38847 26.6469C4.09878 26.412 4.46853 24.7185 3.85679 24.0184C3.19933 23.2579 1.53107 23.3236 1.02454 22.1307C0.563727 20.9981 0.224195 13.8345 0.612106 13.429L0.632458 13.4065Z" fill="#EC1D1D"/>
<path d="M0.632458 13.4065C0.979642 13.0459 2.80205 13.5197 3.3936 12.8897C3.8426 12.4168 3.30072 10.9302 3.82518 10.2411C6.87016 6.21872 21.8332 4.99652 26.7861 5.96508C27.1757 6.04553 32.2228 8.55075 32.4067 8.81359C34.7828 12.3794 34.559 21.6717 30.127 24.0086C28.3288 24.9493 26.1398 24.8796 24.352 25.5871C23.5318 25.9149 23.6678 27.4278 22.865 27.6699C21.872 27.9667 13.0932 29.4649 12.5949 29.3492C11.1417 28.9783 11.1153 26.613 9.97006 26.4124C8.41499 26.1538 5.19147 27.3135 4.38847 26.6469C4.09878 26.412 4.46853 24.7185 3.85679 24.0184C3.19933 23.2579 1.53107 23.3236 1.02454 22.1307C0.563727 20.9981 0.224195 13.8345 0.612106 13.429L0.632458 13.4065Z" fill="#EC1D1D"/>
<path d="M888.189 10.7325C891.014 11.1828 891.185 8.4702 892.399 7.90616C894.744 6.80463 919.468 4.71873 922.485 5.15663C923.584 5.31765 922.768 7.52323 923.458 8.09061C923.993 8.54141 925.633 7.9287 926.192 8.4202C927.085 9.20661 925.465 11.612 929.898 11.6628L930.29 19.953C925.89 20.5755 927.727 22.7571 926.914 23.654C926.1 24.5509 923.694 22.9971 923.559 27.3747L895.932 29.1631C895.329 25.0232 893.415 26.6245 892.391 25.7833C886.643 21.0055 888.413 18.1683 888.21 10.7311L888.189 10.7325Z" fill="#EC1D1D"/>
<path d="M888.189 10.7325C891.014 11.1828 891.185 8.4702 892.399 7.90616C894.744 6.80463 919.468 4.71873 922.485 5.15663C923.584 5.31765 922.768 7.52323 923.458 8.09061C923.993 8.54141 925.633 7.9287 926.192 8.4202C927.085 9.20661 925.465 11.612 929.898 11.6628L930.29 19.953C925.89 20.5755 927.727 22.7571 926.914 23.654C926.1 24.5509 923.694 22.9971 923.559 27.3747L895.932 29.1631C895.329 25.0232 893.415 26.6245 892.391 25.7833C886.643 21.0055 888.413 18.1683 888.21 10.7311L888.189 10.7325Z" fill="#EC1D1D"/>
<path d="M780.275 10.4446C782.853 10.8556 783.009 8.37961 784.118 7.86476C786.258 6.85931 808.826 4.95533 811.579 5.35503C812.582 5.50201 811.838 7.51523 812.468 8.03313C812.956 8.44461 814.453 7.88534 814.963 8.33398C815.778 9.0518 814.3 11.2474 818.346 11.2937L818.704 18.8609C814.688 19.4291 816.365 21.4205 815.622 22.2391C814.88 23.0578 812.683 21.6395 812.56 25.6353L787.342 27.2678C786.792 23.4889 785.045 24.9506 784.11 24.1827C778.864 19.8217 780.479 17.2319 780.294 10.4433L780.275 10.4446Z" fill="#EC1D1D"/>
<path d="M780.275 10.4446C782.853 10.8556 783.009 8.37961 784.118 7.86476C786.258 6.85931 808.826 4.95533 811.579 5.35503C812.582 5.50201 811.838 7.51523 812.468 8.03313C812.956 8.44461 814.453 7.88534 814.963 8.33398C815.778 9.0518 814.3 11.2474 818.346 11.2937L818.704 18.8609C814.688 19.4291 816.365 21.4205 815.622 22.2391C814.88 23.0578 812.683 21.6395 812.56 25.6353L787.342 27.2678C786.792 23.4889 785.045 24.9506 784.11 24.1827C778.864 19.8217 780.479 17.2319 780.294 10.4433L780.275 10.4446Z" fill="#EC1D1D"/>
<path d="M837.902 12.1342C838.25 11.7736 840.072 12.2474 840.664 11.6173C841.113 11.1444 840.571 9.65785 841.095 8.96875C844.14 4.94638 859.103 3.72418 864.056 4.69274C864.446 4.77319 869.493 7.27841 869.677 7.54125C872.053 11.107 871.829 20.3994 867.397 22.7363C865.599 23.6769 863.41 23.6073 861.622 24.3147C860.802 24.6426 860.938 26.1554 860.135 26.3976C859.142 26.6944 850.363 28.1925 849.865 28.0768C848.412 27.706 848.385 25.3407 847.24 25.1401C845.685 24.8814 842.461 26.0411 841.658 25.3746C841.369 25.1397 841.739 23.4462 841.127 22.7461C840.469 21.9856 838.801 22.0513 838.295 20.8583C837.834 19.7258 837.494 12.5622 837.882 12.1566L837.902 12.1342Z" fill="#EC1D1D"/>
<path d="M837.902 12.1342C838.25 11.7736 840.072 12.2474 840.664 11.6173C841.113 11.1444 840.571 9.65785 841.095 8.96875C844.14 4.94638 859.103 3.72418 864.056 4.69274C864.446 4.77319 869.493 7.27841 869.677 7.54125C872.053 11.107 871.829 20.3994 867.397 22.7363C865.599 23.6769 863.41 23.6073 861.622 24.3147C860.802 24.6426 860.938 26.1554 860.135 26.3976C859.142 26.6944 850.363 28.1925 849.865 28.0768C848.412 27.706 848.385 25.3407 847.24 25.1401C845.685 24.8814 842.461 26.0411 841.658 25.3746C841.369 25.1397 841.739 23.4462 841.127 22.7461C840.469 21.9856 838.801 22.0513 838.295 20.8583C837.834 19.7258 837.494 12.5622 837.882 12.1566L837.902 12.1342Z" fill="#EC1D1D"/>
<path d="M721.58 11.3751C724.404 11.8254 724.575 9.11284 725.79 8.5488C728.134 7.44727 752.859 5.36137 755.875 5.79926C756.974 5.96029 756.159 8.16587 756.849 8.73325C757.384 9.18405 759.024 8.57134 759.582 9.06284C760.475 9.84925 758.856 12.2546 763.288 12.3054L763.681 20.5956C759.281 21.2181 761.118 23.3998 760.304 24.2966C759.491 25.1935 757.085 23.6397 756.95 28.0173L729.322 29.8057C728.72 25.6658 726.805 27.2671 725.781 26.4259C720.034 21.6482 721.804 18.8109 721.601 11.3737L721.58 11.3751Z" fill="#EC1D1D"/>
<path d="M721.58 11.3751C724.404 11.8254 724.575 9.11284 725.79 8.5488C728.134 7.44727 752.859 5.36137 755.875 5.79926C756.974 5.96029 756.159 8.16587 756.849 8.73325C757.384 9.18405 759.024 8.57134 759.582 9.06284C760.475 9.84925 758.856 12.2546 763.288 12.3054L763.681 20.5956C759.281 21.2181 761.118 23.3998 760.304 24.2966C759.491 25.1935 757.085 23.6397 756.95 28.0173L729.322 29.8057C728.72 25.6658 726.805 27.2671 725.781 26.4259C720.034 21.6482 721.804 18.8109 721.601 11.3737L721.58 11.3751Z" fill="#EC1D1D"/>
<path d="M613.657 11.0872C616.235 11.4983 616.391 9.02225 617.5 8.5074C619.64 7.50195 642.208 5.59797 644.961 5.99767C645.964 6.14465 645.22 8.15787 645.85 8.67577C646.338 9.08725 647.835 8.52798 648.345 8.97662C649.16 9.69444 647.682 11.89 651.728 11.9364L652.086 19.5035C648.07 20.0718 649.747 22.0631 649.004 22.8818C648.262 23.7004 646.065 22.2822 645.942 26.278L620.724 27.9104C620.174 24.1316 618.427 25.5932 617.492 24.8253C612.246 20.4643 613.861 17.8745 613.676 11.086L613.657 11.0872Z" fill="#EC1D1D"/>
<path d="M613.657 11.0872C616.235 11.4983 616.391 9.02225 617.5 8.5074C619.64 7.50195 642.208 5.59797 644.961 5.99767C645.964 6.14465 645.22 8.15787 645.85 8.67577C646.338 9.08725 647.835 8.52798 648.345 8.97662C649.16 9.69444 647.682 11.89 651.728 11.9364L652.086 19.5035C648.07 20.0718 649.747 22.0631 649.004 22.8818C648.262 23.7004 646.065 22.2822 645.942 26.278L620.724 27.9104C620.174 24.1316 618.427 25.5932 617.492 24.8253C612.246 20.4643 613.861 17.8745 613.676 11.086L613.657 11.0872Z" fill="#EC1D1D"/>
<path d="M671.293 12.7768C671.64 12.4162 673.463 12.8899 674.054 12.2599C674.503 11.787 673.961 10.3004 674.486 9.61132C677.531 5.58895 692.494 4.36676 697.447 5.33532C697.836 5.41577 702.883 7.92099 703.067 8.18383C705.443 11.7496 705.219 21.042 700.788 23.3789C698.989 24.3195 696.8 24.2498 695.013 24.9573C694.192 25.2852 694.328 26.798 693.526 27.0402C692.533 27.3369 683.754 28.8351 683.255 28.7194C681.802 28.3485 681.776 25.9832 680.631 25.7826C679.076 25.524 675.852 26.6837 675.049 26.0171C674.759 25.7823 675.129 24.0888 674.517 23.3887C673.86 22.6282 672.192 22.6939 671.685 21.5009C671.224 20.3684 670.885 13.2047 671.273 12.7992L671.293 12.7768Z" fill="#EC1D1D"/>
<path d="M671.293 12.7768C671.64 12.4162 673.463 12.8899 674.054 12.2599C674.503 11.787 673.961 10.3004 674.486 9.61132C677.531 5.58895 692.494 4.36676 697.447 5.33532C697.836 5.41577 702.883 7.92099 703.067 8.18383C705.443 11.7496 705.219 21.042 700.788 23.3789C698.989 24.3195 696.8 24.2498 695.013 24.9573C694.192 25.2852 694.328 26.798 693.526 27.0402C692.533 27.3369 683.754 28.8351 683.255 28.7194C681.802 28.3485 681.776 25.9832 680.631 25.7826C679.076 25.524 675.852 26.6837 675.049 26.0171C674.759 25.7823 675.129 24.0888 674.517 23.3887C673.86 22.6282 672.192 22.6939 671.685 21.5009C671.224 20.3684 670.885 13.2047 671.273 12.7992L671.293 12.7768Z" fill="#EC1D1D"/>
<path d="M552.673 12.0027C555.498 12.4531 555.669 9.74047 556.883 9.17642C559.228 8.0749 583.952 5.989 586.969 6.42689C588.068 6.58791 587.252 8.79349 587.942 9.36087C588.477 9.81168 590.117 9.19897 590.676 9.69047C591.569 10.4769 589.95 12.8822 594.382 12.933L594.774 21.2232C590.374 21.8458 592.211 24.0274 591.398 24.9243C590.584 25.8212 588.178 24.2674 588.043 28.645L560.416 30.4334C559.813 26.2935 557.899 27.8948 556.875 27.0535C551.127 22.2758 552.897 19.4386 552.694 12.0014L552.673 12.0027Z" fill="#EC1D1D"/>
<path d="M552.673 12.0027C555.498 12.4531 555.669 9.74047 556.883 9.17642C559.228 8.0749 583.952 5.989 586.969 6.42689C588.068 6.58791 587.252 8.79349 587.942 9.36087C588.477 9.81168 590.117 9.19897 590.676 9.69047C591.569 10.4769 589.95 12.8822 594.382 12.933L594.774 21.2232C590.374 21.8458 592.211 24.0274 591.398 24.9243C590.584 25.8212 588.178 24.2674 588.043 28.645L560.416 30.4334C559.813 26.2935 557.899 27.8948 556.875 27.0535C551.127 22.2758 552.897 19.4386 552.694 12.0014L552.673 12.0027Z" fill="#EC1D1D"/>
<path d="M444.759 11.7213C447.337 12.1323 447.493 9.65629 448.602 9.14144C450.742 8.13598 473.31 6.232 476.063 6.63171C477.066 6.77868 476.322 8.7919 476.952 9.3098C477.44 9.72128 478.937 9.16201 479.447 9.61065C480.262 10.3285 478.784 12.524 482.83 12.5704L483.188 20.1376C479.172 20.7058 480.848 22.6972 480.106 23.5158C479.363 24.3345 477.167 22.9162 477.044 26.912L451.826 28.5444C451.276 24.7656 449.529 26.2273 448.594 25.4594C443.348 21.0983 444.963 18.5086 444.778 11.72L444.759 11.7213Z" fill="#EC1D1D"/>
<path d="M444.759 11.7213C447.337 12.1323 447.493 9.65629 448.602 9.14144C450.742 8.13598 473.31 6.232 476.063 6.63171C477.066 6.77868 476.322 8.7919 476.952 9.3098C477.44 9.72128 478.937 9.16201 479.447 9.61065C480.262 10.3285 478.784 12.524 482.83 12.5704L483.188 20.1376C479.172 20.7058 480.848 22.6972 480.106 23.5158C479.363 24.3345 477.167 22.9162 477.044 26.912L451.826 28.5444C451.276 24.7656 449.529 26.2273 448.594 25.4594C443.348 21.0983 444.963 18.5086 444.778 11.72L444.759 11.7213Z" fill="#EC1D1D"/>
<path d="M502.389 13.4065C502.736 13.0459 504.558 13.5197 505.15 12.8897C505.599 12.4168 505.057 10.9302 505.581 10.2411C508.626 6.21872 523.589 4.99652 528.542 5.96508C528.932 6.04553 533.979 8.55075 534.163 8.81359C536.539 12.3794 536.315 21.6717 531.883 24.0086C530.085 24.9493 527.896 24.8796 526.108 25.5871C525.288 25.9149 525.424 27.4278 524.621 27.6699C523.628 27.9667 514.849 29.4649 514.351 29.3492C512.898 28.9783 512.871 26.613 511.726 26.4124C510.171 26.1538 506.948 27.3135 506.145 26.6469C505.855 26.412 506.225 24.7185 505.613 24.0184C504.955 23.2579 503.287 23.3236 502.781 22.1307C502.32 20.9981 501.98 13.8345 502.368 13.429L502.389 13.4065Z" fill="#EC1D1D"/>
<path d="M502.389 13.4065C502.736 13.0459 504.558 13.5197 505.15 12.8897C505.599 12.4168 505.057 10.9302 505.581 10.2411C508.626 6.21872 523.589 4.99652 528.542 5.96508C528.932 6.04553 533.979 8.55075 534.163 8.81359C536.539 12.3794 536.315 21.6717 531.883 24.0086C530.085 24.9493 527.896 24.8796 526.108 25.5871C525.288 25.9149 525.424 27.4278 524.621 27.6699C523.628 27.9667 514.849 29.4649 514.351 29.3492C512.898 28.9783 512.871 26.613 511.726 26.4124C510.171 26.1538 506.948 27.3135 506.145 26.6469C505.855 26.412 506.225 24.7185 505.613 24.0184C504.955 23.2579 503.287 23.3236 502.781 22.1307C502.32 20.9981 501.98 13.8345 502.368 13.429L502.389 13.4065Z" fill="#EC1D1D"/>
<path d="M1389.95 10.7325C1392.77 11.1828 1392.94 8.4702 1394.16 7.90616C1396.5 6.80463 1421.23 4.71873 1424.24 5.15663C1425.34 5.31765 1424.53 7.52323 1425.22 8.09061C1425.75 8.54141 1427.39 7.9287 1427.95 8.4202C1428.84 9.20661 1427.22 11.612 1431.66 11.6628L1432.05 19.953C1427.65 20.5755 1429.49 22.7571 1428.67 23.654C1427.86 24.5509 1425.45 22.9971 1425.32 27.3747L1397.69 29.1631C1397.09 25.0232 1395.17 26.6245 1394.15 25.7833C1388.4 21.0055 1390.17 18.1683 1389.97 10.7311L1389.95 10.7325Z" fill="#EC1D1D"/>
<path d="M1389.95 10.7325C1392.77 11.1828 1392.94 8.4702 1394.16 7.90616C1396.5 6.80463 1421.23 4.71873 1424.24 5.15663C1425.34 5.31765 1424.53 7.52323 1425.22 8.09061C1425.75 8.54141 1427.39 7.9287 1427.95 8.4202C1428.84 9.20661 1427.22 11.612 1431.66 11.6628L1432.05 19.953C1427.65 20.5755 1429.49 22.7571 1428.67 23.654C1427.86 24.5509 1425.45 22.9971 1425.32 27.3747L1397.69 29.1631C1397.09 25.0232 1395.17 26.6245 1394.15 25.7833C1388.4 21.0055 1390.17 18.1683 1389.97 10.7311L1389.95 10.7325Z" fill="#EC1D1D"/>
<path d="M1282.03 10.4446C1284.61 10.8556 1284.77 8.37961 1285.88 7.86476C1288.02 6.85931 1310.58 4.95533 1313.34 5.35503C1314.34 5.50201 1313.6 7.51523 1314.23 8.03313C1314.71 8.44461 1316.21 7.88534 1316.72 8.33398C1317.54 9.0518 1316.06 11.2474 1320.1 11.2937L1320.46 18.8609C1316.45 19.4291 1318.12 21.4205 1317.38 22.2391C1316.64 23.0578 1314.44 21.6395 1314.32 25.6353L1289.1 27.2678C1288.55 23.4889 1286.8 24.9506 1285.87 24.1827C1280.62 19.8217 1282.24 17.2319 1282.05 10.4433L1282.03 10.4446Z" fill="#EC1D1D"/>
<path d="M1282.03 10.4446C1284.61 10.8556 1284.77 8.37961 1285.88 7.86476C1288.02 6.85931 1310.58 4.95533 1313.34 5.35503C1314.34 5.50201 1313.6 7.51523 1314.23 8.03313C1314.71 8.44461 1316.21 7.88534 1316.72 8.33398C1317.54 9.0518 1316.06 11.2474 1320.1 11.2937L1320.46 18.8609C1316.45 19.4291 1318.12 21.4205 1317.38 22.2391C1316.64 23.0578 1314.44 21.6395 1314.32 25.6353L1289.1 27.2678C1288.55 23.4889 1286.8 24.9506 1285.87 24.1827C1280.62 19.8217 1282.24 17.2319 1282.05 10.4433L1282.03 10.4446Z" fill="#EC1D1D"/>
<path d="M1339.66 12.1342C1340 11.7736 1341.83 12.2474 1342.42 11.6173C1342.87 11.1444 1342.32 9.65785 1342.85 8.96875C1345.89 4.94638 1360.86 3.72418 1365.81 4.69274C1366.2 4.77319 1371.25 7.27841 1371.43 7.54125C1373.81 11.107 1373.58 20.3994 1369.15 22.7363C1367.35 23.6769 1365.16 23.6073 1363.38 24.3147C1362.56 24.6426 1362.69 26.1554 1361.89 26.3976C1360.9 26.6944 1352.12 28.1925 1351.62 28.0768C1350.17 27.706 1350.14 25.3407 1348.99 25.1401C1347.44 24.8814 1344.22 26.0411 1343.41 25.3746C1343.12 25.1397 1343.49 23.4462 1342.88 22.7461C1342.22 21.9856 1340.56 22.0513 1340.05 20.8583C1339.59 19.7258 1339.25 12.5622 1339.64 12.1566L1339.66 12.1342Z" fill="#EC1D1D"/>
<path d="M1339.66 12.1342C1340 11.7736 1341.83 12.2474 1342.42 11.6173C1342.87 11.1444 1342.32 9.65785 1342.85 8.96875C1345.89 4.94638 1360.86 3.72418 1365.81 4.69274C1366.2 4.77319 1371.25 7.27841 1371.43 7.54125C1373.81 11.107 1373.58 20.3994 1369.15 22.7363C1367.35 23.6769 1365.16 23.6073 1363.38 24.3147C1362.56 24.6426 1362.69 26.1554 1361.89 26.3976C1360.9 26.6944 1352.12 28.1925 1351.62 28.0768C1350.17 27.706 1350.14 25.3407 1348.99 25.1401C1347.44 24.8814 1344.22 26.0411 1343.41 25.3746C1343.12 25.1397 1343.49 23.4462 1342.88 22.7461C1342.22 21.9856 1340.56 22.0513 1340.05 20.8583C1339.59 19.7258 1339.25 12.5622 1339.64 12.1566L1339.66 12.1342Z" fill="#EC1D1D"/>
<path d="M1223.34 11.3751C1226.17 11.8254 1226.34 9.11284 1227.55 8.5488C1229.9 7.44727 1254.62 5.36137 1257.64 5.79926C1258.74 5.96029 1257.92 8.16587 1258.61 8.73325C1259.15 9.18405 1260.79 8.57134 1261.34 9.06284C1262.24 9.84925 1260.62 12.2546 1265.05 12.3054L1265.44 20.5956C1261.04 21.2181 1262.88 23.3998 1262.07 24.2966C1261.25 25.1935 1258.85 23.6397 1258.71 28.0173L1231.08 29.8057C1230.48 25.6658 1228.57 27.2671 1227.54 26.4259C1221.8 21.6482 1223.57 18.8109 1223.36 11.3737L1223.34 11.3751Z" fill="#EC1D1D"/>
<path d="M1223.34 11.3751C1226.17 11.8254 1226.34 9.11284 1227.55 8.5488C1229.9 7.44727 1254.62 5.36137 1257.64 5.79926C1258.74 5.96029 1257.92 8.16587 1258.61 8.73325C1259.15 9.18405 1260.79 8.57134 1261.34 9.06284C1262.24 9.84925 1260.62 12.2546 1265.05 12.3054L1265.44 20.5956C1261.04 21.2181 1262.88 23.3998 1262.07 24.2966C1261.25 25.1935 1258.85 23.6397 1258.71 28.0173L1231.08 29.8057C1230.48 25.6658 1228.57 27.2671 1227.54 26.4259C1221.8 21.6482 1223.57 18.8109 1223.36 11.3737L1223.34 11.3751Z" fill="#EC1D1D"/>
<path d="M1115.42 11.0872C1117.99 11.4983 1118.15 9.02225 1119.26 8.5074C1121.4 7.50195 1143.97 5.59797 1146.72 5.99767C1147.72 6.14465 1146.98 8.15787 1147.61 8.67577C1148.1 9.08725 1149.59 8.52798 1150.1 8.97662C1150.92 9.69444 1149.44 11.89 1153.49 11.9364L1153.84 19.5035C1149.83 20.0718 1151.5 22.0631 1150.76 22.8818C1150.02 23.7004 1147.82 22.2822 1147.7 26.278L1122.48 27.9104C1121.93 24.1316 1120.19 25.5932 1119.25 24.8253C1114 20.4643 1115.62 17.8745 1115.43 11.086L1115.42 11.0872Z" fill="#EC1D1D"/>
<path d="M1115.42 11.0872C1117.99 11.4983 1118.15 9.02225 1119.26 8.5074C1121.4 7.50195 1143.97 5.59797 1146.72 5.99767C1147.72 6.14465 1146.98 8.15787 1147.61 8.67577C1148.1 9.08725 1149.59 8.52798 1150.1 8.97662C1150.92 9.69444 1149.44 11.89 1153.49 11.9364L1153.84 19.5035C1149.83 20.0718 1151.5 22.0631 1150.76 22.8818C1150.02 23.7004 1147.82 22.2822 1147.7 26.278L1122.48 27.9104C1121.93 24.1316 1120.19 25.5932 1119.25 24.8253C1114 20.4643 1115.62 17.8745 1115.43 11.086L1115.42 11.0872Z" fill="#EC1D1D"/>
<path d="M1173.05 12.7768C1173.4 12.4162 1175.22 12.8899 1175.81 12.2599C1176.26 11.787 1175.72 10.3004 1176.24 9.61132C1179.29 5.58895 1194.25 4.36676 1199.2 5.33532C1199.59 5.41577 1204.64 7.92099 1204.83 8.18383C1207.2 11.7496 1206.98 21.042 1202.55 23.3789C1200.75 24.3195 1198.56 24.2498 1196.77 24.9573C1195.95 25.2852 1196.09 26.798 1195.28 27.0402C1194.29 27.3369 1185.51 28.8351 1185.01 28.7194C1183.56 28.3485 1183.53 25.9832 1182.39 25.7826C1180.83 25.524 1177.61 26.6837 1176.81 26.0171C1176.52 25.7823 1176.89 24.0888 1176.28 23.3887C1175.62 22.6282 1173.95 22.6939 1173.44 21.5009C1172.98 20.3684 1172.64 13.2047 1173.03 12.7992L1173.05 12.7768Z" fill="#EC1D1D"/>
<path d="M1173.05 12.7768C1173.4 12.4162 1175.22 12.8899 1175.81 12.2599C1176.26 11.787 1175.72 10.3004 1176.24 9.61132C1179.29 5.58895 1194.25 4.36676 1199.2 5.33532C1199.59 5.41577 1204.64 7.92099 1204.83 8.18383C1207.2 11.7496 1206.98 21.042 1202.55 23.3789C1200.75 24.3195 1198.56 24.2498 1196.77 24.9573C1195.95 25.2852 1196.09 26.798 1195.28 27.0402C1194.29 27.3369 1185.51 28.8351 1185.01 28.7194C1183.56 28.3485 1183.53 25.9832 1182.39 25.7826C1180.83 25.524 1177.61 26.6837 1176.81 26.0171C1176.52 25.7823 1176.89 24.0888 1176.28 23.3887C1175.62 22.6282 1173.95 22.6939 1173.44 21.5009C1172.98 20.3684 1172.64 13.2047 1173.03 12.7992L1173.05 12.7768Z" fill="#EC1D1D"/>
<path d="M1054.43 12.0027C1057.26 12.4531 1057.43 9.74047 1058.64 9.17642C1060.99 8.0749 1085.71 5.989 1088.73 6.42689C1089.83 6.58791 1089.01 8.79349 1089.7 9.36087C1090.24 9.81168 1091.88 9.19897 1092.43 9.69047C1093.33 10.4769 1091.71 12.8822 1096.14 12.933L1096.53 21.2232C1092.13 21.8458 1093.97 24.0274 1093.16 24.9243C1092.34 25.8212 1089.94 24.2674 1089.8 28.645L1062.17 30.4334C1061.57 26.2935 1059.66 27.8948 1058.63 27.0535C1052.89 22.2758 1054.66 19.4386 1054.45 12.0014L1054.43 12.0027Z" fill="#EC1D1D"/>
<path d="M1054.43 12.0027C1057.26 12.4531 1057.43 9.74047 1058.64 9.17642C1060.99 8.0749 1085.71 5.989 1088.73 6.42689C1089.83 6.58791 1089.01 8.79349 1089.7 9.36087C1090.24 9.81168 1091.88 9.19897 1092.43 9.69047C1093.33 10.4769 1091.71 12.8822 1096.14 12.933L1096.53 21.2232C1092.13 21.8458 1093.97 24.0274 1093.16 24.9243C1092.34 25.8212 1089.94 24.2674 1089.8 28.645L1062.17 30.4334C1061.57 26.2935 1059.66 27.8948 1058.63 27.0535C1052.89 22.2758 1054.66 19.4386 1054.45 12.0014L1054.43 12.0027Z" fill="#EC1D1D"/>
<path d="M946.517 11.7213C949.095 12.1323 949.252 9.65629 950.36 9.14144C952.5 8.13598 975.068 6.232 977.822 6.63171C978.825 6.77868 978.08 8.7919 978.71 9.3098C979.199 9.72128 980.696 9.16201 981.205 9.61065C982.021 10.3285 980.542 12.524 984.588 12.5704L984.947 20.1376C980.93 20.7058 982.607 22.6972 981.864 23.5158C981.122 24.3345 978.925 22.9162 978.802 26.912L953.585 28.5444C953.034 24.7656 951.287 26.2273 950.352 25.4594C945.106 21.0983 946.722 18.5086 946.537 11.72L946.517 11.7213Z" fill="#EC1D1D"/>
<path d="M946.517 11.7213C949.095 12.1323 949.252 9.65629 950.36 9.14144C952.5 8.13598 975.068 6.232 977.822 6.63171C978.825 6.77868 978.08 8.7919 978.71 9.3098C979.199 9.72128 980.696 9.16201 981.205 9.61065C982.021 10.3285 980.542 12.524 984.588 12.5704L984.947 20.1376C980.93 20.7058 982.607 22.6972 981.864 23.5158C981.122 24.3345 978.925 22.9162 978.802 26.912L953.585 28.5444C953.034 24.7656 951.287 26.2273 950.352 25.4594C945.106 21.0983 946.722 18.5086 946.537 11.72L946.517 11.7213Z" fill="#EC1D1D"/>
<path d="M1004.15 13.4065C1004.5 13.0459 1006.32 13.5197 1006.91 12.8897C1007.36 12.4168 1006.82 10.9302 1007.34 10.2411C1010.39 6.21872 1025.35 4.99652 1030.3 5.96508C1030.69 6.04553 1035.74 8.55075 1035.92 8.81359C1038.3 12.3794 1038.08 21.6717 1033.64 24.0086C1031.85 24.9493 1029.66 24.8796 1027.87 25.5871C1027.05 25.9149 1027.18 27.4278 1026.38 27.6699C1025.39 27.9667 1016.61 29.4649 1016.11 29.3492C1014.66 28.9783 1014.63 26.613 1013.49 26.4124C1011.93 26.1538 1008.71 27.3135 1007.91 26.6469C1007.62 26.412 1007.99 24.7185 1007.37 24.0184C1006.72 23.2579 1005.05 23.3236 1004.54 22.1307C1004.08 20.9981 1003.74 13.8345 1004.13 13.429L1004.15 13.4065Z" fill="#EC1D1D"/>
<path d="M1004.15 13.4065C1004.5 13.0459 1006.32 13.5197 1006.91 12.8897C1007.36 12.4168 1006.82 10.9302 1007.34 10.2411C1010.39 6.21872 1025.35 4.99652 1030.3 5.96508C1030.69 6.04553 1035.74 8.55075 1035.92 8.81359C1038.3 12.3794 1038.08 21.6717 1033.64 24.0086C1031.85 24.9493 1029.66 24.8796 1027.87 25.5871C1027.05 25.9149 1027.18 27.4278 1026.38 27.6699C1025.39 27.9667 1016.61 29.4649 1016.11 29.3492C1014.66 28.9783 1014.63 26.613 1013.49 26.4124C1011.93 26.1538 1008.71 27.3135 1007.91 26.6469C1007.62 26.412 1007.99 24.7185 1007.37 24.0184C1006.72 23.2579 1005.05 23.3236 1004.54 22.1307C1004.08 20.9981 1003.74 13.8345 1004.13 13.429L1004.15 13.4065Z" fill="#EC1D1D"/>
<path d="M1894.57 7.87176C1897.39 8.32209 1897.56 5.60949 1898.78 5.04544C1901.12 3.94392 1925.85 1.85801 1928.86 2.29591C1929.96 2.45693 1929.15 4.66251 1929.84 5.22989C1930.37 5.68069 1932.01 5.06798 1932.57 5.55949C1933.46 6.34589 1931.84 8.75124 1936.27 8.80204L1936.67 17.0923C1932.27 17.7148 1934.1 19.8964 1933.29 20.7933C1932.48 21.6902 1930.07 20.1364 1929.94 24.514L1902.31 26.3024C1901.71 22.1625 1899.79 23.7638 1898.77 22.9225C1893.02 18.1448 1894.79 15.3076 1894.59 7.87038L1894.57 7.87176Z" fill="#EC1D1D"/>
<path d="M1894.57 7.87176C1897.39 8.32209 1897.56 5.60949 1898.78 5.04544C1901.12 3.94392 1925.85 1.85801 1928.86 2.29591C1929.96 2.45693 1929.15 4.66251 1929.84 5.22989C1930.37 5.68069 1932.01 5.06798 1932.57 5.55949C1933.46 6.34589 1931.84 8.75124 1936.27 8.80204L1936.67 17.0923C1932.27 17.7148 1934.1 19.8964 1933.29 20.7933C1932.48 21.6902 1930.07 20.1364 1929.94 24.514L1902.31 26.3024C1901.71 22.1625 1899.79 23.7638 1898.77 22.9225C1893.02 18.1448 1894.79 15.3076 1894.59 7.87038L1894.57 7.87176Z" fill="#EC1D1D"/>
<path d="M1786.65 7.586C1789.23 7.99705 1789.38 5.52103 1790.49 5.00618C1792.63 4.00073 1815.2 2.09675 1817.95 2.49645C1818.96 2.64343 1818.21 4.65665 1818.84 5.17454C1819.33 5.58603 1820.83 5.02676 1821.34 5.4754C1822.15 6.19321 1820.67 8.38878 1824.72 8.43514L1825.08 16.0023C1821.06 16.5706 1822.74 18.5619 1822 19.3806C1821.25 20.1992 1819.06 18.7809 1818.93 22.7768L1793.72 24.4092C1793.17 20.6303 1791.42 22.092 1790.48 21.3241C1785.24 16.9631 1786.85 14.3733 1786.67 7.58474L1786.65 7.586Z" fill="#EC1D1D"/>
<path d="M1786.65 7.586C1789.23 7.99705 1789.38 5.52103 1790.49 5.00618C1792.63 4.00073 1815.2 2.09675 1817.95 2.49645C1818.96 2.64343 1818.21 4.65665 1818.84 5.17454C1819.33 5.58603 1820.83 5.02676 1821.34 5.4754C1822.15 6.19321 1820.67 8.38878 1824.72 8.43514L1825.08 16.0023C1821.06 16.5706 1822.74 18.5619 1822 19.3806C1821.25 20.1992 1819.06 18.7809 1818.93 22.7768L1793.72 24.4092C1793.17 20.6303 1791.42 22.092 1790.48 21.3241C1785.24 16.9631 1786.85 14.3733 1786.67 7.58474L1786.65 7.586Z" fill="#EC1D1D"/>
<path d="M1844.28 9.27343C1844.63 8.91281 1846.45 9.38658 1847.04 8.75654C1847.49 8.28366 1846.95 6.79707 1847.47 6.10797C1850.52 2.0856 1865.48 0.863399 1870.43 1.83196C1870.82 1.91241 1875.87 4.41764 1876.05 4.68048C1878.43 8.24625 1878.21 17.5386 1873.77 19.8755C1871.98 20.8161 1869.79 20.7465 1868 21.454C1867.18 21.7818 1867.31 23.2947 1866.51 23.5368C1865.52 23.8336 1856.74 25.3317 1856.24 25.2161C1854.79 24.8452 1854.76 22.4799 1853.62 22.2793C1852.06 22.0207 1848.84 23.1804 1848.04 22.5138C1847.75 22.2789 1848.12 20.5854 1847.5 19.8853C1846.85 19.1248 1845.18 19.1905 1844.67 17.9975C1844.21 16.865 1843.87 9.70139 1844.26 9.29587L1844.28 9.27343Z" fill="#EC1D1D"/>
<path d="M1844.28 9.27343C1844.63 8.91281 1846.45 9.38658 1847.04 8.75654C1847.49 8.28366 1846.95 6.79707 1847.47 6.10797C1850.52 2.0856 1865.48 0.863399 1870.43 1.83196C1870.82 1.91241 1875.87 4.41764 1876.05 4.68048C1878.43 8.24625 1878.21 17.5386 1873.77 19.8755C1871.98 20.8161 1869.79 20.7465 1868 21.454C1867.18 21.7818 1867.31 23.2947 1866.51 23.5368C1865.52 23.8336 1856.74 25.3317 1856.24 25.2161C1854.79 24.8452 1854.76 22.4799 1853.62 22.2793C1852.06 22.0207 1848.84 23.1804 1848.04 22.5138C1847.75 22.2789 1848.12 20.5854 1847.5 19.8853C1846.85 19.1248 1845.18 19.1905 1844.67 17.9975C1844.21 16.865 1843.87 9.70139 1844.26 9.29587L1844.28 9.27343Z" fill="#EC1D1D"/>
<path d="M1727.96 8.5188C1730.79 8.96912 1730.96 6.25652 1732.17 5.69248C1734.52 4.59095 1759.24 2.50505 1762.26 2.94294C1763.36 3.10396 1762.54 5.30954 1763.23 5.87692C1763.77 6.32773 1765.41 5.71502 1765.96 6.20652C1766.86 6.99293 1765.24 9.39828 1769.67 9.44907L1770.06 17.7393C1765.66 18.3618 1767.5 20.5434 1766.69 21.4403C1765.87 22.3372 1763.47 20.7834 1763.33 25.161L1735.7 26.9494C1735.1 22.8095 1733.19 24.4108 1732.16 23.5696C1726.41 18.7918 1728.19 15.9546 1727.98 8.51742L1727.96 8.5188Z" fill="#EC1D1D"/>
<path d="M1727.96 8.5188C1730.79 8.96912 1730.96 6.25652 1732.17 5.69248C1734.52 4.59095 1759.24 2.50505 1762.26 2.94294C1763.36 3.10396 1762.54 5.30954 1763.23 5.87692C1763.77 6.32773 1765.41 5.71502 1765.96 6.20652C1766.86 6.99293 1765.24 9.39828 1769.67 9.44907L1770.06 17.7393C1765.66 18.3618 1767.5 20.5434 1766.69 21.4403C1765.87 22.3372 1763.47 20.7834 1763.33 25.161L1735.7 26.9494C1735.1 22.8095 1733.19 24.4108 1732.16 23.5696C1726.41 18.7918 1728.19 15.9546 1727.98 8.51742L1727.96 8.5188Z" fill="#EC1D1D"/>
<path d="M1620.03 8.22864C1622.61 8.63969 1622.77 6.16367 1623.88 5.64882C1626.02 4.64337 1648.58 2.73939 1651.34 3.13909C1652.34 3.28607 1651.6 5.29929 1652.23 5.81718C1652.72 6.22867 1654.21 5.6694 1654.72 6.11803C1655.54 6.83585 1654.06 9.03142 1658.1 9.07778L1658.46 16.645C1654.45 17.2132 1656.12 19.2045 1655.38 20.0232C1654.64 20.8419 1652.44 19.4236 1652.32 23.4194L1627.1 25.0518C1626.55 21.273 1624.8 22.7346 1623.87 21.9668C1618.62 17.6057 1620.24 15.0159 1620.05 8.22738L1620.03 8.22864Z" fill="#EC1D1D"/>
<path d="M1620.03 8.22864C1622.61 8.63969 1622.77 6.16367 1623.88 5.64882C1626.02 4.64337 1648.58 2.73939 1651.34 3.13909C1652.34 3.28607 1651.6 5.29929 1652.23 5.81718C1652.72 6.22867 1654.21 5.6694 1654.72 6.11803C1655.54 6.83585 1654.06 9.03142 1658.1 9.07778L1658.46 16.645C1654.45 17.2132 1656.12 19.2045 1655.38 20.0232C1654.64 20.8419 1652.44 19.4236 1652.32 23.4194L1627.1 25.0518C1626.55 21.273 1624.8 22.7346 1623.87 21.9668C1618.62 17.6057 1620.24 15.0159 1620.05 8.22738L1620.03 8.22864Z" fill="#EC1D1D"/>
<path d="M1677.67 9.9182C1678.01 9.55759 1679.84 10.0314 1680.43 9.40131C1680.88 8.92843 1680.33 7.44185 1680.86 6.75274C1683.9 2.73037 1698.87 1.50817 1703.82 2.47673C1704.21 2.55719 1709.26 5.06241 1709.44 5.32525C1711.82 8.89103 1711.59 18.1834 1707.16 20.5203C1705.36 21.4609 1703.17 21.3913 1701.39 22.0987C1700.57 22.4266 1700.7 23.9394 1699.9 24.1816C1698.91 24.4784 1690.13 25.9765 1689.63 25.8608C1688.18 25.49 1688.15 23.1247 1687 22.924C1685.45 22.6654 1682.22 23.8251 1681.42 23.1586C1681.13 22.9237 1681.5 21.2302 1680.89 20.5301C1680.23 19.7696 1678.56 19.8353 1678.06 18.6423C1677.6 17.5098 1677.26 10.3462 1677.65 9.94064L1677.67 9.9182Z" fill="#EC1D1D"/>
<path d="M1677.67 9.9182C1678.01 9.55759 1679.84 10.0314 1680.43 9.40131C1680.88 8.92843 1680.33 7.44185 1680.86 6.75274C1683.9 2.73037 1698.87 1.50817 1703.82 2.47673C1704.21 2.55719 1709.26 5.06241 1709.44 5.32525C1711.82 8.89103 1711.59 18.1834 1707.16 20.5203C1705.36 21.4609 1703.17 21.3913 1701.39 22.0987C1700.57 22.4266 1700.7 23.9394 1699.9 24.1816C1698.91 24.4784 1690.13 25.9765 1689.63 25.8608C1688.18 25.49 1688.15 23.1247 1687 22.924C1685.45 22.6654 1682.22 23.8251 1681.42 23.1586C1681.13 22.9237 1681.5 21.2302 1680.89 20.5301C1680.23 19.7696 1678.56 19.8353 1678.06 18.6423C1677.6 17.5098 1677.26 10.3462 1677.65 9.94064L1677.67 9.9182Z" fill="#EC1D1D"/>
<path d="M1559.05 9.14203C1561.87 9.59235 1562.05 6.87975 1563.26 6.31571C1565.6 5.21418 1590.33 3.12828 1593.35 3.56617C1594.44 3.72719 1593.63 5.93277 1594.32 6.50015C1594.85 6.95096 1596.49 6.33825 1597.05 6.82975C1597.95 7.61616 1596.33 10.0215 1600.76 10.0723L1601.15 18.3625C1596.75 18.985 1598.59 21.1667 1597.77 22.0635C1596.96 22.9604 1594.56 21.4066 1594.42 25.7843L1566.79 27.5726C1566.19 23.4327 1564.28 25.0341 1563.25 24.1928C1557.5 19.4151 1559.27 16.5778 1559.07 9.14065L1559.05 9.14203Z" fill="#EC1D1D"/>
<path d="M1559.05 9.14203C1561.87 9.59235 1562.05 6.87975 1563.26 6.31571C1565.6 5.21418 1590.33 3.12828 1593.35 3.56617C1594.44 3.72719 1593.63 5.93277 1594.32 6.50015C1594.85 6.95096 1596.49 6.33825 1597.05 6.82975C1597.95 7.61616 1596.33 10.0215 1600.76 10.0723L1601.15 18.3625C1596.75 18.985 1598.59 21.1667 1597.77 22.0635C1596.96 22.9604 1594.56 21.4066 1594.42 25.7843L1566.79 27.5726C1566.19 23.4327 1564.28 25.0341 1563.25 24.1928C1557.5 19.4151 1559.27 16.5778 1559.07 9.14065L1559.05 9.14203Z" fill="#EC1D1D"/>
<path d="M1451.13 8.86268C1453.71 9.27372 1453.87 6.7977 1454.97 6.28285C1457.11 5.2774 1479.68 3.37342 1482.44 3.77312C1483.44 3.9201 1482.69 5.93332 1483.32 6.45122C1483.81 6.8627 1485.31 6.30343 1485.82 6.75207C1486.64 7.46989 1485.16 9.66545 1489.2 9.71181L1489.56 17.279C1485.54 17.8472 1487.22 19.8386 1486.48 20.6572C1485.74 21.4759 1483.54 20.0576 1483.42 24.0534L1458.2 25.6859C1457.65 21.907 1455.9 23.3687 1454.97 22.6008C1449.72 18.2397 1451.34 15.65 1451.15 8.86142L1451.13 8.86268Z" fill="#EC1D1D"/>
<path d="M1451.13 8.86268C1453.71 9.27372 1453.87 6.7977 1454.97 6.28285C1457.11 5.2774 1479.68 3.37342 1482.44 3.77312C1483.44 3.9201 1482.69 5.93332 1483.32 6.45122C1483.81 6.8627 1485.31 6.30343 1485.82 6.75207C1486.64 7.46989 1485.16 9.66545 1489.2 9.71181L1489.56 17.279C1485.54 17.8472 1487.22 19.8386 1486.48 20.6572C1485.74 21.4759 1483.54 20.0576 1483.42 24.0534L1458.2 25.6859C1457.65 21.907 1455.9 23.3687 1454.97 22.6008C1449.72 18.2397 1451.34 15.65 1451.15 8.86142L1451.13 8.86268Z" fill="#EC1D1D"/>
<path d="M1508.77 10.548C1509.12 10.1873 1510.94 10.6611 1511.53 10.0311C1511.98 9.55819 1511.44 8.07161 1511.96 7.3825C1515.01 3.36013 1529.97 2.13794 1534.92 3.1065C1535.31 3.18695 1540.36 5.69217 1540.54 5.95501C1542.92 9.52079 1542.69 18.8131 1538.26 21.15C1536.46 22.0907 1534.28 22.021 1532.49 22.7285C1531.67 23.0563 1531.8 24.5692 1531 24.8114C1530.01 25.1081 1521.23 26.6063 1520.73 26.4906C1519.28 26.1197 1519.25 23.7544 1518.11 23.5538C1516.55 23.2952 1513.33 24.4549 1512.52 23.7883C1512.23 23.5535 1512.6 21.86 1511.99 21.1599C1511.33 20.3993 1509.67 20.4651 1509.16 19.2721C1508.7 18.1395 1508.36 10.9759 1508.75 10.5704L1508.77 10.548Z" fill="#EC1D1D"/>
<path d="M1508.77 10.548C1509.12 10.1873 1510.94 10.6611 1511.53 10.0311C1511.98 9.55819 1511.44 8.07161 1511.96 7.3825C1515.01 3.36013 1529.97 2.13794 1534.92 3.1065C1535.31 3.18695 1540.36 5.69217 1540.54 5.95501C1542.92 9.52079 1542.69 18.8131 1538.26 21.15C1536.46 22.0907 1534.28 22.021 1532.49 22.7285C1531.67 23.0563 1531.8 24.5692 1531 24.8114C1530.01 25.1081 1521.23 26.6063 1520.73 26.4906C1519.28 26.1197 1519.25 23.7544 1518.11 23.5538C1516.55 23.2952 1513.33 24.4549 1512.52 23.7883C1512.23 23.5535 1512.6 21.86 1511.99 21.1599C1511.33 20.3993 1509.67 20.4651 1509.16 19.2721C1508.7 18.1395 1508.36 10.9759 1508.75 10.5704L1508.77 10.548Z" fill="#EC1D1D"/>
<path d="M386.431 194.468C389.256 194.918 389.427 192.206 390.641 191.642C392.985 190.54 417.71 188.454 420.726 188.892C421.825 189.053 421.01 191.259 421.7 191.826C422.235 192.277 423.875 191.664 424.433 192.156C425.327 192.942 423.707 195.347 428.139 195.398L428.532 203.688C424.132 204.311 425.969 206.493 425.155 207.389C424.342 208.286 421.936 206.733 421.801 211.11L394.174 212.899C393.571 208.759 391.657 210.36 390.632 209.519C384.885 204.741 386.655 201.904 386.452 194.467L386.431 194.468Z" fill="#EC1D1D"/>
<path d="M386.431 194.468C389.256 194.918 389.427 192.206 390.641 191.642C392.985 190.54 417.71 188.454 420.726 188.892C421.825 189.053 421.01 191.259 421.7 191.826C422.235 192.277 423.875 191.664 424.433 192.156C425.327 192.942 423.707 195.347 428.139 195.398L428.532 203.688C424.132 204.311 425.969 206.493 425.155 207.389C424.342 208.286 421.936 206.733 421.801 211.11L394.174 212.899C393.571 208.759 391.657 210.36 390.632 209.519C384.885 204.741 386.655 201.904 386.452 194.467L386.431 194.468Z" fill="#EC1D1D"/>
<path d="M278.517 194.182C281.095 194.593 281.251 192.117 282.36 191.602C284.5 190.597 307.068 188.693 309.821 189.093C310.824 189.24 310.08 191.253 310.71 191.771C311.198 192.182 312.695 191.623 313.205 192.072C314.02 192.789 312.542 194.985 316.587 195.031L316.946 202.598C312.93 203.167 314.606 205.158 313.864 205.977C313.121 206.795 310.925 205.377 310.802 209.373L285.584 211.005C285.034 207.226 283.287 208.688 282.352 207.92C277.105 203.559 278.721 200.969 278.536 194.181L278.517 194.182Z" fill="#EC1D1D"/>
<path d="M278.517 194.182C281.095 194.593 281.251 192.117 282.36 191.602C284.5 190.597 307.068 188.693 309.821 189.093C310.824 189.24 310.08 191.253 310.71 191.771C311.198 192.182 312.695 191.623 313.205 192.072C314.02 192.789 312.542 194.985 316.587 195.031L316.946 202.598C312.93 203.167 314.606 205.158 313.864 205.977C313.121 206.795 310.925 205.377 310.802 209.373L285.584 211.005C285.034 207.226 283.287 208.688 282.352 207.92C277.105 203.559 278.721 200.969 278.536 194.181L278.517 194.182Z" fill="#EC1D1D"/>
<path d="M336.144 195.872C336.491 195.511 338.314 195.985 338.905 195.355C339.354 194.882 338.812 193.395 339.337 192.706C342.382 188.684 357.345 187.462 362.298 188.43C362.687 188.511 367.735 191.016 367.918 191.279C370.295 194.845 370.071 204.137 365.639 206.474C363.84 207.414 361.652 207.345 359.864 208.052C359.044 208.38 359.18 209.893 358.377 210.135C357.384 210.432 348.605 211.93 348.107 211.814C346.653 211.443 346.627 209.078 345.482 208.878C343.927 208.619 340.703 209.779 339.9 209.112C339.61 208.877 339.98 207.184 339.369 206.484C338.711 205.723 337.043 205.789 336.536 204.596C336.075 203.463 335.736 196.3 336.124 195.894L336.144 195.872Z" fill="#EC1D1D"/>
<path d="M336.144 195.872C336.491 195.511 338.314 195.985 338.905 195.355C339.354 194.882 338.812 193.395 339.337 192.706C342.382 188.684 357.345 187.462 362.298 188.43C362.687 188.511 367.735 191.016 367.918 191.279C370.295 194.845 370.071 204.137 365.639 206.474C363.84 207.414 361.652 207.345 359.864 208.052C359.044 208.38 359.18 209.893 358.377 210.135C357.384 210.432 348.605 211.93 348.107 211.814C346.653 211.443 346.627 209.078 345.482 208.878C343.927 208.619 340.703 209.779 339.9 209.112C339.61 208.877 339.98 207.184 339.369 206.484C338.711 205.723 337.043 205.789 336.536 204.596C336.075 203.463 335.736 196.3 336.124 195.894L336.144 195.872Z" fill="#EC1D1D"/>
<path d="M219.824 195.113C222.648 195.563 222.819 192.85 224.034 192.286C226.378 191.185 251.102 189.099 254.119 189.537C255.218 189.698 254.402 191.903 255.093 192.471C255.628 192.922 257.268 192.309 257.826 192.8C258.719 193.587 257.1 195.992 261.532 196.043L261.925 204.333C257.525 204.956 259.361 207.137 258.548 208.034C257.735 208.931 255.328 207.377 255.193 211.755L227.566 213.543C226.963 209.403 225.049 211.005 224.025 210.163C218.277 205.386 220.048 202.548 219.845 195.111L219.824 195.113Z" fill="#EC1D1D"/>
<path d="M219.824 195.113C222.648 195.563 222.819 192.85 224.034 192.286C226.378 191.185 251.102 189.099 254.119 189.537C255.218 189.698 254.402 191.903 255.093 192.471C255.628 192.922 257.268 192.309 257.826 192.8C258.719 193.587 257.1 195.992 261.532 196.043L261.925 204.333C257.525 204.956 259.361 207.137 258.548 208.034C257.735 208.931 255.328 207.377 255.193 211.755L227.566 213.543C226.963 209.403 225.049 211.005 224.025 210.163C218.277 205.386 220.048 202.548 219.845 195.111L219.824 195.113Z" fill="#EC1D1D"/>
<path d="M111.897 194.823C114.475 195.234 114.631 192.758 115.739 192.243C117.879 191.237 140.447 189.333 143.201 189.733C144.204 189.88 143.46 191.893 144.09 192.411C144.578 192.823 146.075 192.263 146.585 192.712C147.4 193.43 145.922 195.625 149.967 195.672L150.326 203.239C146.31 203.807 147.986 205.799 147.244 206.617C146.501 207.436 144.305 206.018 144.182 210.013L118.964 211.646C118.414 207.867 116.666 209.329 115.732 208.561C110.485 204.2 112.101 201.61 111.916 194.821L111.897 194.823Z" fill="#EC1D1D"/>
<path d="M111.897 194.823C114.475 195.234 114.631 192.758 115.739 192.243C117.879 191.237 140.447 189.333 143.201 189.733C144.204 189.88 143.46 191.893 144.09 192.411C144.578 192.823 146.075 192.263 146.585 192.712C147.4 193.43 145.922 195.625 149.967 195.672L150.326 203.239C146.31 203.807 147.986 205.799 147.244 206.617C146.501 207.436 144.305 206.018 144.182 210.013L118.964 211.646C118.414 207.867 116.666 209.329 115.732 208.561C110.485 204.2 112.101 201.61 111.916 194.821L111.897 194.823Z" fill="#EC1D1D"/>
<path d="M169.535 196.512C169.882 196.152 171.704 196.625 172.296 195.995C172.745 195.522 172.203 194.036 172.727 193.347C175.772 189.324 190.736 188.102 195.688 189.071C196.078 189.151 201.125 191.656 201.309 191.919C203.685 195.485 203.461 204.777 199.029 207.114C197.231 208.055 195.042 207.985 193.254 208.693C192.434 209.021 192.57 210.533 191.767 210.776C190.774 211.072 181.996 212.571 181.497 212.455C180.044 212.084 180.018 209.719 178.872 209.518C177.317 209.259 174.094 210.419 173.291 209.753C173.001 209.518 173.371 207.824 172.759 207.124C172.102 206.364 170.433 206.429 169.927 205.236C169.466 204.104 169.126 196.94 169.514 196.535L169.535 196.512Z" fill="#EC1D1D"/>
<path d="M169.535 196.512C169.882 196.152 171.704 196.625 172.296 195.995C172.745 195.522 172.203 194.036 172.727 193.347C175.772 189.324 190.736 188.102 195.688 189.071C196.078 189.151 201.125 191.656 201.309 191.919C203.685 195.485 203.461 204.777 199.029 207.114C197.231 208.055 195.042 207.985 193.254 208.693C192.434 209.021 192.57 210.533 191.767 210.776C190.774 211.072 181.996 212.571 181.497 212.455C180.044 212.084 180.018 209.719 178.872 209.518C177.317 209.259 174.094 210.419 173.291 209.753C173.001 209.518 173.371 207.824 172.759 207.124C172.102 206.364 170.433 206.429 169.927 205.236C169.466 204.104 169.126 196.94 169.514 196.535L169.535 196.512Z" fill="#EC1D1D"/>
<path d="M50.9212 195.738C53.7459 196.188 53.9169 193.476 55.1313 192.912C57.4758 191.81 82.2001 189.724 85.2167 190.162C86.3157 190.323 85.5001 192.529 86.1904 193.096C86.7253 193.547 88.3654 192.934 88.9237 193.426C89.8169 194.212 88.1976 196.618 92.6297 196.668L93.0226 204.959C88.6225 205.581 90.4592 207.763 89.6457 208.66C88.8323 209.557 86.4261 208.003 86.2912 212.38L58.6639 214.169C58.0611 210.029 56.1469 211.63 55.1227 210.789C49.3752 206.011 51.1453 203.174 50.9425 195.737L50.9212 195.738Z" fill="#EC1D1D"/>
<path d="M50.9212 195.738C53.7459 196.188 53.9169 193.476 55.1313 192.912C57.4758 191.81 82.2001 189.724 85.2167 190.162C86.3157 190.323 85.5001 192.529 86.1904 193.096C86.7253 193.547 88.3654 192.934 88.9237 193.426C89.8169 194.212 88.1976 196.618 92.6297 196.668L93.0226 204.959C88.6225 205.581 90.4592 207.763 89.6457 208.66C88.8323 209.557 86.4261 208.003 86.2912 212.38L58.6639 214.169C58.0611 210.029 56.1469 211.63 55.1227 210.789C49.3752 206.011 51.1453 203.174 50.9425 195.737L50.9212 195.738Z" fill="#EC1D1D"/>
<path d="M0.632458 197.142C0.979642 196.781 2.80205 197.255 3.3936 196.625C3.8426 196.152 3.30072 194.666 3.82518 193.976C6.87016 189.954 21.8332 188.732 26.7861 189.7C27.1757 189.781 32.2228 192.286 32.4067 192.549C34.7828 196.115 34.559 205.407 30.127 207.744C28.3288 208.685 26.1398 208.615 24.352 209.322C23.5318 209.65 23.6678 211.163 22.865 211.405C21.872 211.702 13.0932 213.2 12.5949 213.085C11.1417 212.714 11.1153 210.348 9.97006 210.148C8.41499 209.889 5.19147 211.049 4.38847 210.382C4.09878 210.147 4.46853 208.454 3.85679 207.754C3.19933 206.993 1.53107 207.059 1.02454 205.866C0.563727 204.734 0.224195 197.57 0.612106 197.164L0.632458 197.142Z" fill="#EC1D1D"/>
<path d="M0.632458 197.142C0.979642 196.781 2.80205 197.255 3.3936 196.625C3.8426 196.152 3.30072 194.666 3.82518 193.976C6.87016 189.954 21.8332 188.732 26.7861 189.7C27.1757 189.781 32.2228 192.286 32.4067 192.549C34.7828 196.115 34.559 205.407 30.127 207.744C28.3288 208.685 26.1398 208.615 24.352 209.322C23.5318 209.65 23.6678 211.163 22.865 211.405C21.872 211.702 13.0932 213.2 12.5949 213.085C11.1417 212.714 11.1153 210.348 9.97006 210.148C8.41499 209.889 5.19147 211.049 4.38847 210.382C4.09878 210.147 4.46853 208.454 3.85679 207.754C3.19933 206.993 1.53107 207.059 1.02454 205.866C0.563727 204.734 0.224195 197.57 0.612106 197.164L0.632458 197.142Z" fill="#EC1D1D"/>
<path d="M888.189 194.468C891.014 194.918 891.185 192.206 892.399 191.642C894.744 190.54 919.468 188.454 922.485 188.892C923.584 189.053 922.768 191.259 923.458 191.826C923.993 192.277 925.633 191.664 926.192 192.156C927.085 192.942 925.465 195.347 929.898 195.398L930.29 203.688C925.89 204.311 927.727 206.493 926.914 207.389C926.1 208.286 923.694 206.733 923.559 211.11L895.932 212.899C895.329 208.759 893.415 210.36 892.391 209.519C886.643 204.741 888.413 201.904 888.21 194.467L888.189 194.468Z" fill="#EC1D1D"/>
<path d="M888.189 194.468C891.014 194.918 891.185 192.206 892.399 191.642C894.744 190.54 919.468 188.454 922.485 188.892C923.584 189.053 922.768 191.259 923.458 191.826C923.993 192.277 925.633 191.664 926.192 192.156C927.085 192.942 925.465 195.347 929.898 195.398L930.29 203.688C925.89 204.311 927.727 206.493 926.914 207.389C926.1 208.286 923.694 206.733 923.559 211.11L895.932 212.899C895.329 208.759 893.415 210.36 892.391 209.519C886.643 204.741 888.413 201.904 888.21 194.467L888.189 194.468Z" fill="#EC1D1D"/>
<path d="M780.275 194.182C782.853 194.593 783.009 192.117 784.118 191.602C786.258 190.597 808.826 188.693 811.579 189.093C812.582 189.24 811.838 191.253 812.468 191.771C812.956 192.182 814.453 191.623 814.963 192.072C815.778 192.789 814.3 194.985 818.346 195.031L818.704 202.598C814.688 203.167 816.365 205.158 815.622 205.977C814.88 206.795 812.683 205.377 812.56 209.373L787.342 211.005C786.792 207.226 785.045 208.688 784.11 207.92C778.864 203.559 780.479 200.969 780.294 194.181L780.275 194.182Z" fill="#EC1D1D"/>
<path d="M780.275 194.182C782.853 194.593 783.009 192.117 784.118 191.602C786.258 190.597 808.826 188.693 811.579 189.093C812.582 189.24 811.838 191.253 812.468 191.771C812.956 192.182 814.453 191.623 814.963 192.072C815.778 192.789 814.3 194.985 818.346 195.031L818.704 202.598C814.688 203.167 816.365 205.158 815.622 205.977C814.88 206.795 812.683 205.377 812.56 209.373L787.342 211.005C786.792 207.226 785.045 208.688 784.11 207.92C778.864 203.559 780.479 200.969 780.294 194.181L780.275 194.182Z" fill="#EC1D1D"/>
<path d="M837.902 195.872C838.25 195.511 840.072 195.985 840.664 195.355C841.113 194.882 840.571 193.395 841.095 192.706C844.14 188.684 859.103 187.462 864.056 188.43C864.446 188.511 869.493 191.016 869.677 191.279C872.053 194.845 871.829 204.137 867.397 206.474C865.599 207.414 863.41 207.345 861.622 208.052C860.802 208.38 860.938 209.893 860.135 210.135C859.142 210.432 850.363 211.93 849.865 211.814C848.412 211.443 848.385 209.078 847.24 208.878C845.685 208.619 842.461 209.779 841.658 209.112C841.369 208.877 841.739 207.184 841.127 206.484C840.469 205.723 838.801 205.789 838.295 204.596C837.834 203.463 837.494 196.3 837.882 195.894L837.902 195.872Z" fill="#EC1D1D"/>
<path d="M837.902 195.872C838.25 195.511 840.072 195.985 840.664 195.355C841.113 194.882 840.571 193.395 841.095 192.706C844.14 188.684 859.103 187.462 864.056 188.43C864.446 188.511 869.493 191.016 869.677 191.279C872.053 194.845 871.829 204.137 867.397 206.474C865.599 207.414 863.41 207.345 861.622 208.052C860.802 208.38 860.938 209.893 860.135 210.135C859.142 210.432 850.363 211.93 849.865 211.814C848.412 211.443 848.385 209.078 847.24 208.878C845.685 208.619 842.461 209.779 841.658 209.112C841.369 208.877 841.739 207.184 841.127 206.484C840.469 205.723 838.801 205.789 838.295 204.596C837.834 203.463 837.494 196.3 837.882 195.894L837.902 195.872Z" fill="#EC1D1D"/>
<path d="M721.58 195.113C724.404 195.563 724.575 192.85 725.79 192.286C728.134 191.185 752.859 189.099 755.875 189.537C756.974 189.698 756.159 191.903 756.849 192.471C757.384 192.922 759.024 192.309 759.582 192.8C760.475 193.587 758.856 195.992 763.288 196.043L763.681 204.333C759.281 204.956 761.118 207.137 760.304 208.034C759.491 208.931 757.085 207.377 756.95 211.755L729.322 213.543C728.72 209.403 726.805 211.005 725.781 210.163C720.034 205.386 721.804 202.548 721.601 195.111L721.58 195.113Z" fill="#EC1D1D"/>
<path d="M721.58 195.113C724.404 195.563 724.575 192.85 725.79 192.286C728.134 191.185 752.859 189.099 755.875 189.537C756.974 189.698 756.159 191.903 756.849 192.471C757.384 192.922 759.024 192.309 759.582 192.8C760.475 193.587 758.856 195.992 763.288 196.043L763.681 204.333C759.281 204.956 761.118 207.137 760.304 208.034C759.491 208.931 757.085 207.377 756.95 211.755L729.322 213.543C728.72 209.403 726.805 211.005 725.781 210.163C720.034 205.386 721.804 202.548 721.601 195.111L721.58 195.113Z" fill="#EC1D1D"/>
<path d="M613.657 194.823C616.235 195.234 616.391 192.758 617.5 192.243C619.64 191.237 642.208 189.333 644.961 189.733C645.964 189.88 645.22 191.893 645.85 192.411C646.338 192.823 647.835 192.263 648.345 192.712C649.16 193.43 647.682 195.625 651.728 195.672L652.086 203.239C648.07 203.807 649.747 205.799 649.004 206.617C648.262 207.436 646.065 206.018 645.942 210.013L620.724 211.646C620.174 207.867 618.427 209.329 617.492 208.561C612.246 204.2 613.861 201.61 613.676 194.821L613.657 194.823Z" fill="#EC1D1D"/>
<path d="M613.657 194.823C616.235 195.234 616.391 192.758 617.5 192.243C619.64 191.237 642.208 189.333 644.961 189.733C645.964 189.88 645.22 191.893 645.85 192.411C646.338 192.823 647.835 192.263 648.345 192.712C649.16 193.43 647.682 195.625 651.728 195.672L652.086 203.239C648.07 203.807 649.747 205.799 649.004 206.617C648.262 207.436 646.065 206.018 645.942 210.013L620.724 211.646C620.174 207.867 618.427 209.329 617.492 208.561C612.246 204.2 613.861 201.61 613.676 194.821L613.657 194.823Z" fill="#EC1D1D"/>
<path d="M671.293 196.512C671.64 196.152 673.463 196.625 674.054 195.995C674.503 195.522 673.961 194.036 674.486 193.347C677.531 189.324 692.494 188.102 697.447 189.071C697.836 189.151 702.883 191.656 703.067 191.919C705.443 195.485 705.219 204.777 700.788 207.114C698.989 208.055 696.8 207.985 695.013 208.693C694.192 209.021 694.328 210.533 693.526 210.776C692.533 211.072 683.754 212.571 683.255 212.455C681.802 212.084 681.776 209.719 680.631 209.518C679.076 209.259 675.852 210.419 675.049 209.753C674.759 209.518 675.129 207.824 674.517 207.124C673.86 206.364 672.192 206.429 671.685 205.236C671.224 204.104 670.885 196.94 671.273 196.535L671.293 196.512Z" fill="#EC1D1D"/>
<path d="M671.293 196.512C671.64 196.152 673.463 196.625 674.054 195.995C674.503 195.522 673.961 194.036 674.486 193.347C677.531 189.324 692.494 188.102 697.447 189.071C697.836 189.151 702.883 191.656 703.067 191.919C705.443 195.485 705.219 204.777 700.788 207.114C698.989 208.055 696.8 207.985 695.013 208.693C694.192 209.021 694.328 210.533 693.526 210.776C692.533 211.072 683.754 212.571 683.255 212.455C681.802 212.084 681.776 209.719 680.631 209.518C679.076 209.259 675.852 210.419 675.049 209.753C674.759 209.518 675.129 207.824 674.517 207.124C673.86 206.364 672.192 206.429 671.685 205.236C671.224 204.104 670.885 196.94 671.273 196.535L671.293 196.512Z" fill="#EC1D1D"/>
<path d="M552.673 195.738C555.498 196.188 555.669 193.476 556.883 192.912C559.228 191.81 583.952 189.724 586.969 190.162C588.068 190.323 587.252 192.529 587.942 193.096C588.477 193.547 590.117 192.934 590.676 193.426C591.569 194.212 589.95 196.618 594.382 196.668L594.774 204.959C590.374 205.581 592.211 207.763 591.398 208.66C590.584 209.557 588.178 208.003 588.043 212.38L560.416 214.169C559.813 210.029 557.899 211.63 556.875 210.789C551.127 206.011 552.897 203.174 552.694 195.737L552.673 195.738Z" fill="#EC1D1D"/>
<path d="M552.673 195.738C555.498 196.188 555.669 193.476 556.883 192.912C559.228 191.81 583.952 189.724 586.969 190.162C588.068 190.323 587.252 192.529 587.942 193.096C588.477 193.547 590.117 192.934 590.676 193.426C591.569 194.212 589.95 196.618 594.382 196.668L594.774 204.959C590.374 205.581 592.211 207.763 591.398 208.66C590.584 209.557 588.178 208.003 588.043 212.38L560.416 214.169C559.813 210.029 557.899 211.63 556.875 210.789C551.127 206.011 552.897 203.174 552.694 195.737L552.673 195.738Z" fill="#EC1D1D"/>
<path d="M444.759 195.459C447.337 195.87 447.493 193.394 448.602 192.879C450.742 191.873 473.31 189.969 476.063 190.369C477.066 190.516 476.322 192.529 476.952 193.047C477.44 193.459 478.937 192.899 479.447 193.348C480.262 194.066 478.784 196.262 482.83 196.308L483.188 203.875C479.172 204.443 480.848 206.435 480.106 207.253C479.363 208.072 477.167 206.654 477.044 210.65L451.826 212.282C451.276 208.503 449.529 209.965 448.594 209.197C443.348 204.836 444.963 202.246 444.778 195.457L444.759 195.459Z" fill="#EC1D1D"/>
<path d="M444.759 195.459C447.337 195.87 447.493 193.394 448.602 192.879C450.742 191.873 473.31 189.969 476.063 190.369C477.066 190.516 476.322 192.529 476.952 193.047C477.44 193.459 478.937 192.899 479.447 193.348C480.262 194.066 478.784 196.262 482.83 196.308L483.188 203.875C479.172 204.443 480.848 206.435 480.106 207.253C479.363 208.072 477.167 206.654 477.044 210.65L451.826 212.282C451.276 208.503 449.529 209.965 448.594 209.197C443.348 204.836 444.963 202.246 444.778 195.457L444.759 195.459Z" fill="#EC1D1D"/>
<path d="M502.389 197.142C502.736 196.781 504.558 197.255 505.15 196.625C505.599 196.152 505.057 194.666 505.581 193.976C508.626 189.954 523.589 188.732 528.542 189.7C528.932 189.781 533.979 192.286 534.163 192.549C536.539 196.115 536.315 205.407 531.883 207.744C530.085 208.685 527.896 208.615 526.108 209.322C525.288 209.65 525.424 211.163 524.621 211.405C523.628 211.702 514.849 213.2 514.351 213.085C512.898 212.714 512.871 210.348 511.726 210.148C510.171 209.889 506.948 211.049 506.145 210.382C505.855 210.147 506.225 208.454 505.613 207.754C504.955 206.993 503.287 207.059 502.781 205.866C502.32 204.734 501.98 197.57 502.368 197.164L502.389 197.142Z" fill="#EC1D1D"/>
<path d="M502.389 197.142C502.736 196.781 504.558 197.255 505.15 196.625C505.599 196.152 505.057 194.666 505.581 193.976C508.626 189.954 523.589 188.732 528.542 189.7C528.932 189.781 533.979 192.286 534.163 192.549C536.539 196.115 536.315 205.407 531.883 207.744C530.085 208.685 527.896 208.615 526.108 209.322C525.288 209.65 525.424 211.163 524.621 211.405C523.628 211.702 514.849 213.2 514.351 213.085C512.898 212.714 512.871 210.348 511.726 210.148C510.171 209.889 506.948 211.049 506.145 210.382C505.855 210.147 506.225 208.454 505.613 207.754C504.955 206.993 503.287 207.059 502.781 205.866C502.32 204.734 501.98 197.57 502.368 197.164L502.389 197.142Z" fill="#EC1D1D"/>
<path d="M1389.95 194.468C1392.77 194.918 1392.94 192.206 1394.16 191.642C1396.5 190.54 1421.23 188.454 1424.24 188.892C1425.34 189.053 1424.53 191.259 1425.22 191.826C1425.75 192.277 1427.39 191.664 1427.95 192.156C1428.84 192.942 1427.22 195.347 1431.66 195.398L1432.05 203.688C1427.65 204.311 1429.49 206.493 1428.67 207.389C1427.86 208.286 1425.45 206.733 1425.32 211.11L1397.69 212.899C1397.09 208.759 1395.17 210.36 1394.15 209.519C1388.4 204.741 1390.17 201.904 1389.97 194.467L1389.95 194.468Z" fill="#EC1D1D"/>
<path d="M1389.95 194.468C1392.77 194.918 1392.94 192.206 1394.16 191.642C1396.5 190.54 1421.23 188.454 1424.24 188.892C1425.34 189.053 1424.53 191.259 1425.22 191.826C1425.75 192.277 1427.39 191.664 1427.95 192.156C1428.84 192.942 1427.22 195.347 1431.66 195.398L1432.05 203.688C1427.65 204.311 1429.49 206.493 1428.67 207.389C1427.86 208.286 1425.45 206.733 1425.32 211.11L1397.69 212.899C1397.09 208.759 1395.17 210.36 1394.15 209.519C1388.4 204.741 1390.17 201.904 1389.97 194.467L1389.95 194.468Z" fill="#EC1D1D"/>
<path d="M1282.03 194.182C1284.61 194.593 1284.77 192.117 1285.88 191.602C1288.02 190.597 1310.58 188.693 1313.34 189.093C1314.34 189.24 1313.6 191.253 1314.23 191.771C1314.71 192.182 1316.21 191.623 1316.72 192.072C1317.54 192.789 1316.06 194.985 1320.1 195.031L1320.46 202.598C1316.45 203.167 1318.12 205.158 1317.38 205.977C1316.64 206.795 1314.44 205.377 1314.32 209.373L1289.1 211.005C1288.55 207.226 1286.8 208.688 1285.87 207.92C1280.62 203.559 1282.24 200.969 1282.05 194.181L1282.03 194.182Z" fill="#EC1D1D"/>
<path d="M1282.03 194.182C1284.61 194.593 1284.77 192.117 1285.88 191.602C1288.02 190.597 1310.58 188.693 1313.34 189.093C1314.34 189.24 1313.6 191.253 1314.23 191.771C1314.71 192.182 1316.21 191.623 1316.72 192.072C1317.54 192.789 1316.06 194.985 1320.1 195.031L1320.46 202.598C1316.45 203.167 1318.12 205.158 1317.38 205.977C1316.64 206.795 1314.44 205.377 1314.32 209.373L1289.1 211.005C1288.55 207.226 1286.8 208.688 1285.87 207.92C1280.62 203.559 1282.24 200.969 1282.05 194.181L1282.03 194.182Z" fill="#EC1D1D"/>
<path d="M1339.66 195.872C1340 195.511 1341.83 195.985 1342.42 195.355C1342.87 194.882 1342.32 193.395 1342.85 192.706C1345.89 188.684 1360.86 187.462 1365.81 188.43C1366.2 188.511 1371.25 191.016 1371.43 191.279C1373.81 194.845 1373.58 204.137 1369.15 206.474C1367.35 207.414 1365.16 207.345 1363.38 208.052C1362.56 208.38 1362.69 209.893 1361.89 210.135C1360.9 210.432 1352.12 211.93 1351.62 211.814C1350.17 211.443 1350.14 209.078 1348.99 208.878C1347.44 208.619 1344.22 209.779 1343.41 209.112C1343.12 208.877 1343.49 207.184 1342.88 206.484C1342.22 205.723 1340.56 205.789 1340.05 204.596C1339.59 203.463 1339.25 196.3 1339.64 195.894L1339.66 195.872Z" fill="#EC1D1D"/>
<path d="M1339.66 195.872C1340 195.511 1341.83 195.985 1342.42 195.355C1342.87 194.882 1342.32 193.395 1342.85 192.706C1345.89 188.684 1360.86 187.462 1365.81 188.43C1366.2 188.511 1371.25 191.016 1371.43 191.279C1373.81 194.845 1373.58 204.137 1369.15 206.474C1367.35 207.414 1365.16 207.345 1363.38 208.052C1362.56 208.38 1362.69 209.893 1361.89 210.135C1360.9 210.432 1352.12 211.93 1351.62 211.814C1350.17 211.443 1350.14 209.078 1348.99 208.878C1347.44 208.619 1344.22 209.779 1343.41 209.112C1343.12 208.877 1343.49 207.184 1342.88 206.484C1342.22 205.723 1340.56 205.789 1340.05 204.596C1339.59 203.463 1339.25 196.3 1339.64 195.894L1339.66 195.872Z" fill="#EC1D1D"/>
<path d="M1223.34 195.113C1226.17 195.563 1226.34 192.85 1227.55 192.286C1229.9 191.185 1254.62 189.099 1257.64 189.537C1258.74 189.698 1257.92 191.903 1258.61 192.471C1259.15 192.922 1260.79 192.309 1261.34 192.8C1262.24 193.587 1260.62 195.992 1265.05 196.043L1265.44 204.333C1261.04 204.956 1262.88 207.137 1262.07 208.034C1261.25 208.931 1258.85 207.377 1258.71 211.755L1231.08 213.543C1230.48 209.403 1228.57 211.005 1227.54 210.163C1221.8 205.386 1223.57 202.548 1223.36 195.111L1223.34 195.113Z" fill="#EC1D1D"/>
<path d="M1223.34 195.113C1226.17 195.563 1226.34 192.85 1227.55 192.286C1229.9 191.185 1254.62 189.099 1257.64 189.537C1258.74 189.698 1257.92 191.903 1258.61 192.471C1259.15 192.922 1260.79 192.309 1261.34 192.8C1262.24 193.587 1260.62 195.992 1265.05 196.043L1265.44 204.333C1261.04 204.956 1262.88 207.137 1262.07 208.034C1261.25 208.931 1258.85 207.377 1258.71 211.755L1231.08 213.543C1230.48 209.403 1228.57 211.005 1227.54 210.163C1221.8 205.386 1223.57 202.548 1223.36 195.111L1223.34 195.113Z" fill="#EC1D1D"/>
<path d="M1115.42 194.823C1117.99 195.234 1118.15 192.758 1119.26 192.243C1121.4 191.237 1143.97 189.333 1146.72 189.733C1147.72 189.88 1146.98 191.893 1147.61 192.411C1148.1 192.823 1149.59 192.263 1150.1 192.712C1150.92 193.43 1149.44 195.625 1153.49 195.672L1153.84 203.239C1149.83 203.807 1151.5 205.799 1150.76 206.617C1150.02 207.436 1147.82 206.018 1147.7 210.013L1122.48 211.646C1121.93 207.867 1120.19 209.329 1119.25 208.561C1114 204.2 1115.62 201.61 1115.43 194.821L1115.42 194.823Z" fill="#EC1D1D"/>
<path d="M1115.42 194.823C1117.99 195.234 1118.15 192.758 1119.26 192.243C1121.4 191.237 1143.97 189.333 1146.72 189.733C1147.72 189.88 1146.98 191.893 1147.61 192.411C1148.1 192.823 1149.59 192.263 1150.1 192.712C1150.92 193.43 1149.44 195.625 1153.49 195.672L1153.84 203.239C1149.83 203.807 1151.5 205.799 1150.76 206.617C1150.02 207.436 1147.82 206.018 1147.7 210.013L1122.48 211.646C1121.93 207.867 1120.19 209.329 1119.25 208.561C1114 204.2 1115.62 201.61 1115.43 194.821L1115.42 194.823Z" fill="#EC1D1D"/>
<path d="M1173.05 196.512C1173.4 196.152 1175.22 196.625 1175.81 195.995C1176.26 195.522 1175.72 194.036 1176.24 193.347C1179.29 189.324 1194.25 188.102 1199.2 189.071C1199.59 189.151 1204.64 191.656 1204.83 191.919C1207.2 195.485 1206.98 204.777 1202.55 207.114C1200.75 208.055 1198.56 207.985 1196.77 208.693C1195.95 209.021 1196.09 210.533 1195.28 210.776C1194.29 211.072 1185.51 212.571 1185.01 212.455C1183.56 212.084 1183.53 209.719 1182.39 209.518C1180.83 209.259 1177.61 210.419 1176.81 209.753C1176.52 209.518 1176.89 207.824 1176.28 207.124C1175.62 206.364 1173.95 206.429 1173.44 205.236C1172.98 204.104 1172.64 196.94 1173.03 196.535L1173.05 196.512Z" fill="#EC1D1D"/>
<path d="M1173.05 196.512C1173.4 196.152 1175.22 196.625 1175.81 195.995C1176.26 195.522 1175.72 194.036 1176.24 193.347C1179.29 189.324 1194.25 188.102 1199.2 189.071C1199.59 189.151 1204.64 191.656 1204.83 191.919C1207.2 195.485 1206.98 204.777 1202.55 207.114C1200.75 208.055 1198.56 207.985 1196.77 208.693C1195.95 209.021 1196.09 210.533 1195.28 210.776C1194.29 211.072 1185.51 212.571 1185.01 212.455C1183.56 212.084 1183.53 209.719 1182.39 209.518C1180.83 209.259 1177.61 210.419 1176.81 209.753C1176.52 209.518 1176.89 207.824 1176.28 207.124C1175.62 206.364 1173.95 206.429 1173.44 205.236C1172.98 204.104 1172.64 196.94 1173.03 196.535L1173.05 196.512Z" fill="#EC1D1D"/>
<path d="M1054.43 195.738C1057.26 196.188 1057.43 193.476 1058.64 192.912C1060.99 191.81 1085.71 189.724 1088.73 190.162C1089.83 190.323 1089.01 192.529 1089.7 193.096C1090.24 193.547 1091.88 192.934 1092.43 193.426C1093.33 194.212 1091.71 196.618 1096.14 196.668L1096.53 204.959C1092.13 205.581 1093.97 207.763 1093.16 208.66C1092.34 209.557 1089.94 208.003 1089.8 212.38L1062.17 214.169C1061.57 210.029 1059.66 211.63 1058.63 210.789C1052.89 206.011 1054.66 203.174 1054.45 195.737L1054.43 195.738Z" fill="#EC1D1D"/>
<path d="M1054.43 195.738C1057.26 196.188 1057.43 193.476 1058.64 192.912C1060.99 191.81 1085.71 189.724 1088.73 190.162C1089.83 190.323 1089.01 192.529 1089.7 193.096C1090.24 193.547 1091.88 192.934 1092.43 193.426C1093.33 194.212 1091.71 196.618 1096.14 196.668L1096.53 204.959C1092.13 205.581 1093.97 207.763 1093.16 208.66C1092.34 209.557 1089.94 208.003 1089.8 212.38L1062.17 214.169C1061.57 210.029 1059.66 211.63 1058.63 210.789C1052.89 206.011 1054.66 203.174 1054.45 195.737L1054.43 195.738Z" fill="#EC1D1D"/>
<path d="M946.517 195.459C949.095 195.87 949.252 193.394 950.36 192.879C952.5 191.873 975.068 189.969 977.822 190.369C978.825 190.516 978.08 192.529 978.71 193.047C979.199 193.459 980.696 192.899 981.205 193.348C982.021 194.066 980.542 196.262 984.588 196.308L984.947 203.875C980.93 204.443 982.607 206.435 981.864 207.253C981.122 208.072 978.925 206.654 978.802 210.65L953.585 212.282C953.034 208.503 951.287 209.965 950.352 209.197C945.106 204.836 946.722 202.246 946.537 195.457L946.517 195.459Z" fill="#EC1D1D"/>
<path d="M946.517 195.459C949.095 195.87 949.252 193.394 950.36 192.879C952.5 191.873 975.068 189.969 977.822 190.369C978.825 190.516 978.08 192.529 978.71 193.047C979.199 193.459 980.696 192.899 981.205 193.348C982.021 194.066 980.542 196.262 984.588 196.308L984.947 203.875C980.93 204.443 982.607 206.435 981.864 207.253C981.122 208.072 978.925 206.654 978.802 210.65L953.585 212.282C953.034 208.503 951.287 209.965 950.352 209.197C945.106 204.836 946.722 202.246 946.537 195.457L946.517 195.459Z" fill="#EC1D1D"/>
<path d="M1004.15 197.142C1004.5 196.781 1006.32 197.255 1006.91 196.625C1007.36 196.152 1006.82 194.666 1007.34 193.976C1010.39 189.954 1025.35 188.732 1030.3 189.7C1030.69 189.781 1035.74 192.286 1035.92 192.549C1038.3 196.115 1038.08 205.407 1033.64 207.744C1031.85 208.685 1029.66 208.615 1027.87 209.322C1027.05 209.65 1027.18 211.163 1026.38 211.405C1025.39 211.702 1016.61 213.2 1016.11 213.085C1014.66 212.714 1014.63 210.348 1013.49 210.148C1011.93 209.889 1008.71 211.049 1007.91 210.382C1007.62 210.147 1007.99 208.454 1007.37 207.754C1006.72 206.993 1005.05 207.059 1004.54 205.866C1004.08 204.734 1003.74 197.57 1004.13 197.164L1004.15 197.142Z" fill="#EC1D1D"/>
<path d="M1004.15 197.142C1004.5 196.781 1006.32 197.255 1006.91 196.625C1007.36 196.152 1006.82 194.666 1007.34 193.976C1010.39 189.954 1025.35 188.732 1030.3 189.7C1030.69 189.781 1035.74 192.286 1035.92 192.549C1038.3 196.115 1038.08 205.407 1033.64 207.744C1031.85 208.685 1029.66 208.615 1027.87 209.322C1027.05 209.65 1027.18 211.163 1026.38 211.405C1025.39 211.702 1016.61 213.2 1016.11 213.085C1014.66 212.714 1014.63 210.348 1013.49 210.148C1011.93 209.889 1008.71 211.049 1007.91 210.382C1007.62 210.147 1007.99 208.454 1007.37 207.754C1006.72 206.993 1005.05 207.059 1004.54 205.866C1004.08 204.734 1003.74 197.57 1004.13 197.164L1004.15 197.142Z" fill="#EC1D1D"/>
<path d="M1894.57 191.607C1897.39 192.057 1897.56 189.345 1898.78 188.781C1901.12 187.679 1925.85 185.593 1928.86 186.031C1929.96 186.192 1929.15 188.398 1929.84 188.965C1930.37 189.416 1932.01 188.803 1932.57 189.295C1933.46 190.081 1931.84 192.487 1936.27 192.537L1936.67 200.828C1932.27 201.45 1934.1 203.632 1933.29 204.529C1932.48 205.426 1930.07 203.872 1929.94 208.249L1902.31 210.038C1901.71 205.898 1899.79 207.499 1898.77 206.658C1893.02 201.88 1894.79 199.043 1894.59 191.606L1894.57 191.607Z" fill="#EC1D1D"/>
<path d="M1894.57 191.607C1897.39 192.057 1897.56 189.345 1898.78 188.781C1901.12 187.679 1925.85 185.593 1928.86 186.031C1929.96 186.192 1929.15 188.398 1929.84 188.965C1930.37 189.416 1932.01 188.803 1932.57 189.295C1933.46 190.081 1931.84 192.487 1936.27 192.537L1936.67 200.828C1932.27 201.45 1934.1 203.632 1933.29 204.529C1932.48 205.426 1930.07 203.872 1929.94 208.249L1902.31 210.038C1901.71 205.898 1899.79 207.499 1898.77 206.658C1893.02 201.88 1894.79 199.043 1894.59 191.606L1894.57 191.607Z" fill="#EC1D1D"/>
<path d="M1786.65 191.323C1789.23 191.735 1789.38 189.259 1790.49 188.744C1792.63 187.738 1815.2 185.834 1817.95 186.234C1818.96 186.381 1818.21 188.394 1818.84 188.912C1819.33 189.324 1820.83 188.764 1821.34 189.213C1822.15 189.931 1820.67 192.126 1824.72 192.173L1825.08 199.74C1821.06 200.308 1822.74 202.299 1822 203.118C1821.25 203.937 1819.06 202.518 1818.93 206.514L1793.72 208.147C1793.17 204.368 1791.42 205.829 1790.48 205.062C1785.24 200.701 1786.85 198.111 1786.67 191.322L1786.65 191.323Z" fill="#EC1D1D"/>
<path d="M1786.65 191.323C1789.23 191.735 1789.38 189.259 1790.49 188.744C1792.63 187.738 1815.2 185.834 1817.95 186.234C1818.96 186.381 1818.21 188.394 1818.84 188.912C1819.33 189.324 1820.83 188.764 1821.34 189.213C1822.15 189.931 1820.67 192.126 1824.72 192.173L1825.08 199.74C1821.06 200.308 1822.74 202.299 1822 203.118C1821.25 203.937 1819.06 202.518 1818.93 206.514L1793.72 208.147C1793.17 204.368 1791.42 205.829 1790.48 205.062C1785.24 200.701 1786.85 198.111 1786.67 191.322L1786.65 191.323Z" fill="#EC1D1D"/>
<path d="M1844.28 193.011C1844.63 192.65 1846.45 193.124 1847.04 192.494C1847.49 192.021 1846.95 190.535 1847.47 189.846C1850.52 185.823 1865.48 184.601 1870.43 185.57C1870.82 185.65 1875.87 188.155 1876.05 188.418C1878.43 191.984 1878.21 201.276 1873.77 203.613C1871.98 204.554 1869.79 204.484 1868 205.192C1867.18 205.519 1867.31 207.032 1866.51 207.274C1865.52 207.571 1856.74 209.069 1856.24 208.954C1854.79 208.583 1854.76 206.217 1853.62 206.017C1852.06 205.758 1848.84 206.918 1848.04 206.251C1847.75 206.016 1848.12 204.323 1847.5 203.623C1846.85 202.862 1845.18 202.928 1844.67 201.735C1844.21 200.603 1843.87 193.439 1844.26 193.033L1844.28 193.011Z" fill="#EC1D1D"/>
<path d="M1844.28 193.011C1844.63 192.65 1846.45 193.124 1847.04 192.494C1847.49 192.021 1846.95 190.535 1847.47 189.846C1850.52 185.823 1865.48 184.601 1870.43 185.57C1870.82 185.65 1875.87 188.155 1876.05 188.418C1878.43 191.984 1878.21 201.276 1873.77 203.613C1871.98 204.554 1869.79 204.484 1868 205.192C1867.18 205.519 1867.31 207.032 1866.51 207.274C1865.52 207.571 1856.74 209.069 1856.24 208.954C1854.79 208.583 1854.76 206.217 1853.62 206.017C1852.06 205.758 1848.84 206.918 1848.04 206.251C1847.75 206.016 1848.12 204.323 1847.5 203.623C1846.85 202.862 1845.18 202.928 1844.67 201.735C1844.21 200.603 1843.87 193.439 1844.26 193.033L1844.28 193.011Z" fill="#EC1D1D"/>
<path d="M1727.96 192.256C1730.79 192.706 1730.96 189.994 1732.17 189.43C1734.52 188.328 1759.24 186.242 1762.26 186.68C1763.36 186.841 1762.54 189.047 1763.23 189.614C1763.77 190.065 1765.41 189.452 1765.96 189.944C1766.86 190.73 1765.24 193.136 1769.67 193.186L1770.06 201.477C1765.66 202.099 1767.5 204.281 1766.69 205.178C1765.87 206.075 1763.47 204.521 1763.33 208.898L1735.7 210.687C1735.1 206.547 1733.19 208.148 1732.16 207.307C1726.42 202.529 1728.19 199.692 1727.98 192.255L1727.96 192.256Z" fill="#EC1D1D"/>
<path d="M1727.96 192.256C1730.79 192.706 1730.96 189.994 1732.17 189.43C1734.52 188.328 1759.24 186.242 1762.26 186.68C1763.36 186.841 1762.54 189.047 1763.23 189.614C1763.77 190.065 1765.41 189.452 1765.96 189.944C1766.86 190.73 1765.24 193.136 1769.67 193.186L1770.06 201.477C1765.66 202.099 1767.5 204.281 1766.69 205.178C1765.87 206.075 1763.47 204.521 1763.33 208.898L1735.7 210.687C1735.1 206.547 1733.19 208.148 1732.16 207.307C1726.42 202.529 1728.19 199.692 1727.98 192.255L1727.96 192.256Z" fill="#EC1D1D"/>
<path d="M1620.03 191.964C1622.61 192.375 1622.77 189.899 1623.88 189.384C1626.02 188.379 1648.58 186.475 1651.34 186.875C1652.34 187.022 1651.6 189.035 1652.23 189.553C1652.72 189.964 1654.21 189.405 1654.72 189.854C1655.54 190.571 1654.06 192.767 1658.1 192.813L1658.46 200.38C1654.45 200.949 1656.12 202.94 1655.38 203.759C1654.64 204.577 1652.44 203.159 1652.32 207.155L1627.1 208.787C1626.55 205.008 1624.8 206.47 1623.87 205.702C1618.62 201.341 1620.24 198.751 1620.05 191.963L1620.03 191.964Z" fill="#EC1D1D"/>
<path d="M1620.03 191.964C1622.61 192.375 1622.77 189.899 1623.88 189.384C1626.02 188.379 1648.58 186.475 1651.34 186.875C1652.34 187.022 1651.6 189.035 1652.23 189.553C1652.72 189.964 1654.21 189.405 1654.72 189.854C1655.54 190.571 1654.06 192.767 1658.1 192.813L1658.46 200.38C1654.45 200.949 1656.12 202.94 1655.38 203.759C1654.64 204.577 1652.44 203.159 1652.32 207.155L1627.1 208.787C1626.55 205.008 1624.8 206.47 1623.87 205.702C1618.62 201.341 1620.24 198.751 1620.05 191.963L1620.03 191.964Z" fill="#EC1D1D"/>
<path d="M1677.67 193.654C1678.01 193.293 1679.84 193.767 1680.43 193.137C1680.88 192.664 1680.33 191.177 1680.86 190.488C1683.9 186.466 1698.87 185.244 1703.82 186.212C1704.21 186.293 1709.26 188.798 1709.44 189.061C1711.82 192.626 1711.59 201.919 1707.16 204.256C1705.36 205.196 1703.17 205.127 1701.39 205.834C1700.57 206.162 1700.7 207.675 1699.9 207.917C1698.91 208.214 1690.13 209.712 1689.63 209.596C1688.18 209.225 1688.15 206.86 1687 206.659C1685.45 206.401 1682.22 207.56 1681.42 206.894C1681.13 206.659 1681.5 204.966 1680.89 204.265C1680.23 203.505 1678.56 203.571 1678.06 202.378C1677.6 201.245 1677.26 194.082 1677.65 193.676L1677.67 193.654Z" fill="#EC1D1D"/>
<path d="M1677.67 193.654C1678.01 193.293 1679.84 193.767 1680.43 193.137C1680.88 192.664 1680.33 191.177 1680.86 190.488C1683.9 186.466 1698.87 185.244 1703.82 186.212C1704.21 186.293 1709.26 188.798 1709.44 189.061C1711.82 192.626 1711.59 201.919 1707.16 204.256C1705.36 205.196 1703.17 205.127 1701.39 205.834C1700.57 206.162 1700.7 207.675 1699.9 207.917C1698.91 208.214 1690.13 209.712 1689.63 209.596C1688.18 209.225 1688.15 206.86 1687 206.659C1685.45 206.401 1682.22 207.56 1681.42 206.894C1681.13 206.659 1681.5 204.966 1680.89 204.265C1680.23 203.505 1678.56 203.571 1678.06 202.378C1677.6 201.245 1677.26 194.082 1677.65 193.676L1677.67 193.654Z" fill="#EC1D1D"/>
<path d="M1559.05 192.877C1561.87 193.328 1562.05 190.615 1563.26 190.051C1565.6 188.95 1590.33 186.864 1593.35 187.302C1594.44 187.463 1593.63 189.668 1594.32 190.236C1594.85 190.686 1596.49 190.074 1597.05 190.565C1597.95 191.352 1596.33 193.757 1600.76 193.808L1601.15 202.098C1596.75 202.72 1598.59 204.902 1597.77 205.799C1596.96 206.696 1594.56 205.142 1594.42 209.52L1566.79 211.308C1566.19 207.168 1564.28 208.769 1563.25 207.928C1557.5 203.15 1559.27 200.313 1559.07 192.876L1559.05 192.877Z" fill="#EC1D1D"/>
<path d="M1559.05 192.877C1561.87 193.328 1562.05 190.615 1563.26 190.051C1565.6 188.95 1590.33 186.864 1593.35 187.302C1594.44 187.463 1593.63 189.668 1594.32 190.236C1594.85 190.686 1596.49 190.074 1597.05 190.565C1597.95 191.352 1596.33 193.757 1600.76 193.808L1601.15 202.098C1596.75 202.72 1598.59 204.902 1597.77 205.799C1596.96 206.696 1594.56 205.142 1594.42 209.52L1566.79 211.308C1566.19 207.168 1564.28 208.769 1563.25 207.928C1557.5 203.15 1559.27 200.313 1559.07 192.876L1559.05 192.877Z" fill="#EC1D1D"/>
<path d="M1451.13 192.6C1453.71 193.011 1453.87 190.535 1454.97 190.02C1457.11 189.015 1479.68 187.111 1482.44 187.511C1483.44 187.658 1482.69 189.671 1483.32 190.189C1483.81 190.6 1485.31 190.041 1485.82 190.49C1486.64 191.207 1485.16 193.403 1489.2 193.449L1489.56 201.017C1485.54 201.585 1487.22 203.576 1486.48 204.395C1485.74 205.213 1483.54 203.795 1483.42 207.791L1458.2 209.423C1457.65 205.645 1455.9 207.106 1454.97 206.338C1449.72 201.977 1451.34 199.388 1451.15 192.599L1451.13 192.6Z" fill="#EC1D1D"/>
<path d="M1451.13 192.6C1453.71 193.011 1453.87 190.535 1454.97 190.02C1457.11 189.015 1479.68 187.111 1482.44 187.511C1483.44 187.658 1482.69 189.671 1483.32 190.189C1483.81 190.6 1485.31 190.041 1485.82 190.49C1486.64 191.207 1485.16 193.403 1489.2 193.449L1489.56 201.017C1485.54 201.585 1487.22 203.576 1486.48 204.395C1485.74 205.213 1483.54 203.795 1483.42 207.791L1458.2 209.423C1457.65 205.645 1455.9 207.106 1454.97 206.338C1449.72 201.977 1451.34 199.388 1451.15 192.599L1451.13 192.6Z" fill="#EC1D1D"/>
<path d="M1508.77 194.286C1509.12 193.925 1510.94 194.399 1511.53 193.769C1511.98 193.296 1511.44 191.809 1511.96 191.12C1515.01 187.098 1529.97 185.875 1534.92 186.844C1535.31 186.924 1540.36 189.43 1540.54 189.693C1542.92 193.258 1542.69 202.551 1538.26 204.888C1536.46 205.828 1534.28 205.759 1532.49 206.466C1531.67 206.794 1531.8 208.307 1531 208.549C1530.01 208.846 1521.23 210.344 1520.73 210.228C1519.28 209.857 1519.25 207.492 1518.11 207.291C1516.55 207.033 1513.33 208.192 1512.52 207.526C1512.23 207.291 1512.6 205.598 1511.99 204.897C1511.33 204.137 1509.67 204.203 1509.16 203.01C1508.7 201.877 1508.36 194.713 1508.75 194.308L1508.77 194.286Z" fill="#EC1D1D"/>
<path d="M1508.77 194.286C1509.12 193.925 1510.94 194.399 1511.53 193.769C1511.98 193.296 1511.44 191.809 1511.96 191.12C1515.01 187.098 1529.97 185.875 1534.92 186.844C1535.31 186.924 1540.36 189.43 1540.54 189.693C1542.92 193.258 1542.69 202.551 1538.26 204.888C1536.46 205.828 1534.28 205.759 1532.49 206.466C1531.67 206.794 1531.8 208.307 1531 208.549C1530.01 208.846 1521.23 210.344 1520.73 210.228C1519.28 209.857 1519.25 207.492 1518.11 207.291C1516.55 207.033 1513.33 208.192 1512.52 207.526C1512.23 207.291 1512.6 205.598 1511.99 204.897C1511.33 204.137 1509.67 204.203 1509.16 203.01C1508.7 201.877 1508.36 194.713 1508.75 194.308L1508.77 194.286Z" fill="#EC1D1D"/>
</svg>
