<svg width="2252" height="248" viewBox="0 0 2252 248" fill="none" xmlns="http://www.w3.org/2000/svg">
<g clip-path="url(#clip0_1240_545)">
<rect width="2252" height="248" fill="black"/>
<rect x="1126" width="1126" height="250" fill="white"/>
<path d="M1899.89 258.197C1879.82 258.197 1860.96 253.016 1843.31 242.655C1825.67 232.294 1811.34 217.481 1800.33 198.215C1789.48 178.95 1784.06 156.123 1784.06 129.735C1784.06 103.346 1789.48 80.762 1800.33 61.9825C1811.18 43.041 1825.42 28.5516 1843.07 18.5142C1860.72 8.47685 1879.66 3.45817 1899.89 3.45817C1919.97 3.45817 1937.45 7.50549 1952.35 15.6001C1967.24 23.5329 1979.22 34.2988 1988.29 47.8978C1997.52 61.4968 2003.51 76.8766 2006.26 94.0372C2009.17 111.036 2008.61 128.601 2004.56 146.733H1845.5V107.393H1947.73L1936.56 114.679C1937.05 109.012 1936.81 103.265 1935.83 97.437C1935.03 91.6089 1933.33 86.2664 1930.73 81.4096C1928.14 76.3909 1924.42 72.4245 1919.56 69.5105C1914.87 66.4345 1908.8 64.8965 1901.35 64.8965C1893.09 64.8965 1885.89 66.9202 1879.74 70.9675C1873.75 74.8529 1869.05 80.6001 1865.65 88.2091C1862.42 95.6562 1860.8 104.803 1860.8 115.65V146.248C1860.8 156.447 1862.25 165.27 1865.17 172.717C1868.08 180.164 1872.37 185.992 1878.04 190.202C1883.87 194.249 1891.15 196.273 1899.89 196.273C1907.02 196.273 1913.25 194.816 1918.59 191.902C1923.94 188.987 1927.66 184.373 1929.76 178.06H2006.99C2004.56 192.954 1998.57 206.472 1989.02 218.614C1979.63 230.756 1967.32 240.388 1952.1 247.512C1937.05 254.635 1919.65 258.197 1899.89 258.197Z" fill="black"/>
<path fill-rule="evenodd" clip-rule="evenodd" d="M1674.83 241.404C1692.48 251.765 1711.34 256.946 1731.41 256.946C1751.17 256.946 1768.57 253.384 1783.63 246.261C1798.84 239.137 1811.15 229.505 1820.54 217.363C1830.09 205.221 1836.08 191.703 1838.51 176.809H1761.28C1759.18 183.122 1755.46 187.736 1750.11 190.65C1744.77 193.564 1738.54 195.021 1731.41 195.021C1722.67 195.021 1715.39 192.998 1709.56 188.95C1703.89 184.741 1699.6 178.913 1696.69 171.466C1693.82 164.137 1692.36 155.476 1692.32 145.482H1836.08C1840.13 127.35 1840.69 109.785 1837.78 92.7861C1835.03 75.6255 1829.04 60.2456 1819.81 46.6466C1810.74 33.0476 1798.76 22.2818 1783.87 14.349C1768.97 6.25435 1751.49 2.20703 1731.41 2.20703C1723.42 2.20703 1715.64 2.98939 1708.05 4.55412L1638.03 206.809C1648.05 221.352 1660.32 232.883 1674.83 241.404ZM1692.66 106.142C1693.29 98.8285 1694.79 92.4337 1697.17 86.958C1700.57 79.349 1705.27 73.6018 1711.26 69.7164C1717.41 65.669 1724.62 63.6454 1732.87 63.6454C1740.32 63.6454 1746.39 65.1834 1751.08 68.2593C1755.94 71.1734 1759.67 75.1398 1762.26 80.1585C1764.85 85.0153 1766.55 90.3577 1767.35 96.1859C1767.91 99.5313 1768.23 102.85 1768.31 106.142H1692.66Z" fill="black"/>
<path d="M1430.1 5.80325H1520.2L1559.3 178.705H1555.9L1594.99 5.80325H1684.84L1602.04 245H1512.91L1430.1 5.80325Z" fill="black"/>
<path d="M1130.04 245V4.34622H1207.75V245H1130.04ZM1191.24 143.007C1191.24 110.467 1195.36 83.7547 1203.62 62.8705C1211.88 41.9863 1222.32 26.5255 1234.95 16.4882C1247.57 6.45083 1260.44 1.43215 1273.56 1.43215C1276.15 1.43215 1278.74 1.59404 1281.33 1.91782C1283.92 2.07972 1286.35 2.40351 1288.61 2.88918L1289.34 81.0835C1285.3 80.5978 1281.17 80.274 1276.96 80.1121C1272.75 79.7883 1268.78 79.6264 1265.06 79.6264C1253.73 79.6264 1243.69 81.731 1234.95 85.9402C1226.37 90.1495 1219.65 96.868 1214.79 106.096C1210.1 115.324 1207.75 127.628 1207.75 143.007H1191.24Z" fill="black"/>
<path d="M1496.49 242.55H1406.4L1367.3 69.6487H1370.7L1331.6 242.55H1241.75L1324.56 3.35352H1413.68L1496.49 242.55Z" fill="black"/>
<path d="M2170.59 250.426V111.036C2170.59 98.4084 2167.51 89.0995 2161.36 83.1095C2155.21 76.9575 2147.76 73.8816 2139.02 73.8816C2130.12 73.8816 2121.94 76.3909 2114.49 81.4096C2107.05 86.4283 2101.06 94.5229 2096.52 105.694C2092.15 116.702 2089.97 131.354 2089.97 149.647H2066.41C2066.41 115.326 2070.46 87.3996 2078.55 65.8679C2086.81 44.3361 2097.98 28.5516 2112.07 18.5142C2126.31 8.47685 2142.42 3.45817 2160.39 3.45817C2180.95 3.45817 2197.71 8.07212 2210.66 17.3C2223.77 26.5279 2233.4 39.2365 2239.56 55.4258C2245.71 71.6151 2248.78 90.1518 2248.78 111.036V250.426H2170.59ZM2012.26 250.426V11.229H2080.74L2089.97 50.8118V250.426H2012.26Z" fill="black"/>
<path d="M770.894 258.197C750.82 258.197 731.959 253.016 714.313 242.655C696.666 232.294 682.339 217.481 671.33 198.215C660.483 178.95 655.06 156.123 655.06 129.735C655.06 103.346 660.483 80.762 671.33 61.9825C682.177 43.041 696.424 28.5516 714.07 18.5142C731.716 8.47685 750.658 3.45817 770.894 3.45817C790.969 3.45817 808.453 7.50549 823.348 15.6001C838.242 23.5329 850.222 34.2988 859.288 47.8978C868.516 61.4968 874.506 76.8766 877.258 94.0372C880.172 111.036 879.605 128.601 875.558 146.733H716.498V107.393H818.734L807.563 114.679C808.049 109.012 807.806 103.265 806.835 97.437C806.025 91.6089 804.325 86.2664 801.735 81.4096C799.145 76.3909 795.421 72.4245 790.564 69.5105C785.869 66.4345 779.798 64.8965 772.351 64.8965C764.095 64.8965 756.891 66.9202 750.739 70.9675C744.749 74.8529 740.054 80.6001 736.654 88.2091C733.416 95.6562 731.797 104.803 731.797 115.65V146.248C731.797 156.447 733.254 165.27 736.168 172.717C739.082 180.164 743.373 185.992 749.039 190.202C754.867 194.249 762.152 196.273 770.894 196.273C778.018 196.273 784.25 194.816 789.593 191.902C794.935 188.987 798.659 184.373 800.764 178.06H877.986C875.558 192.954 869.568 206.472 860.016 218.614C850.627 230.756 838.323 240.388 823.105 247.512C808.049 254.635 790.645 258.197 770.894 258.197Z" fill="white"/>
<path fill-rule="evenodd" clip-rule="evenodd" d="M545.833 241.404C563.48 251.765 582.34 256.946 602.415 256.946C622.166 256.946 639.569 253.384 654.625 246.261C669.843 239.137 682.147 229.505 691.537 217.363C701.088 205.221 707.079 191.703 709.507 176.809H632.284C630.179 183.122 626.456 187.736 621.113 190.65C615.771 193.564 609.538 195.021 602.415 195.021C593.673 195.021 586.387 192.998 580.559 188.95C574.893 184.741 570.603 178.913 567.689 171.466C564.821 164.137 563.364 155.476 563.319 145.482H707.079C711.126 127.35 711.692 109.785 708.778 92.7861C706.026 75.6255 700.036 60.2456 690.808 46.6466C681.742 33.0476 669.762 22.2818 654.868 14.349C639.974 6.25435 622.489 2.20703 602.415 2.20703C594.425 2.20703 586.637 2.98939 579.05 4.55412L509.031 206.809C519.054 221.352 531.321 232.883 545.833 241.404ZM563.658 106.142C564.288 98.8285 565.794 92.4337 568.174 86.958C571.574 79.349 576.269 73.6018 582.259 69.7164C588.411 65.669 595.615 63.6454 603.872 63.6454C611.319 63.6454 617.39 65.1834 622.085 68.2593C626.942 71.1734 630.665 75.1398 633.255 80.1585C635.846 85.0153 637.546 90.3577 638.355 96.1859C638.913 99.5313 639.23 102.85 639.308 106.142H563.658Z" fill="white"/>
<path d="M301.105 5.80325H391.198L430.295 178.705H426.896L465.993 5.80325H555.843L473.035 245H383.913L301.105 5.80325Z" fill="white"/>
<path d="M1.03985 245V4.34622H78.7484V245H1.03985ZM62.2354 143.007C62.2354 110.467 66.3636 83.7547 74.6202 62.8705C82.8767 41.9863 93.3188 26.5255 105.946 16.4882C118.574 6.45083 131.445 1.43215 144.558 1.43215C147.148 1.43215 149.738 1.59404 152.329 1.91782C154.919 2.07972 157.347 2.40351 159.614 2.88918L160.342 81.0835C156.295 80.5978 152.167 80.274 147.958 80.1121C143.748 79.7883 139.782 79.6264 136.059 79.6264C124.726 79.6264 114.689 81.731 105.946 85.9402C97.3661 90.1495 90.6476 96.868 85.7908 106.096C81.0959 115.324 78.7484 127.628 78.7484 143.007H62.2354Z" fill="white"/>
<path d="M367.493 242.55H277.399L238.302 69.6487H241.702L202.605 242.55H112.754L195.563 3.35352H284.685L367.493 242.55Z" fill="white"/>
<path d="M1041.59 250.426V111.036C1041.59 98.4084 1038.51 89.0995 1032.36 83.1095C1026.21 76.9575 1018.76 73.8816 1010.02 73.8816C1001.12 73.8816 992.941 76.3909 985.494 81.4096C978.047 86.4283 972.057 94.5229 967.524 105.694C963.153 116.702 960.967 131.354 960.967 149.647H937.412C937.412 115.326 941.459 87.3996 949.554 65.8679C957.81 44.3361 968.981 28.5516 983.066 18.5142C997.312 8.47685 1013.42 3.45817 1031.39 3.45817C1051.95 3.45817 1068.71 8.07212 1081.66 17.3C1094.77 26.5279 1104.4 39.2365 1110.56 55.4258C1116.71 71.6151 1119.78 90.1518 1119.78 111.036V250.426H1041.59ZM883.259 250.426V11.229H951.739L960.967 50.8118V250.426H883.259Z" fill="white"/>
</g>
<defs>
<clipPath id="clip0_1240_545">
<rect width="2252" height="248" fill="white"/>
</clipPath>
</defs>
</svg>
