<svg width="353" height="272" viewBox="0 0 353 272" fill="none" xmlns="http://www.w3.org/2000/svg">
<path d="M175.043 233.391V204.217H250.53V233.391H175.043Z" fill="#238655"/>
<path d="M204.217 262.566V233.392H233.391V262.566H204.217Z" fill="#238655"/>
<path d="M233.391 291.739V96.6392H320.912V291.739H233.391Z" fill="#238655"/>
<path d="M262.565 291.739V262.565H291.738V291.739H262.565Z" fill="#238655"/>
<path d="M291.738 291.739V262.565H320.912L320.912 291.739H291.738Z" fill="#238655"/>
<path d="M320.912 262.565L320.912 233.392H350.086V262.566L320.912 262.565Z" fill="#238655"/>
<path d="M58.3478 204.218V175.044H87.5216V204.218H58.3478Z" fill="#238655"/>
<path d="M87.5216 175.044L87.5216 145.869H116.695V175.043L87.5216 175.044Z" fill="#238655"/>
<path d="M117.319 204.775L116.695 175.043V145.869L145.869 145.87L145.869 175.043L145.049 204.775H117.319Z" fill="#238655"/>
<path d="M145.869 175.043V58.3479H233.391V175.043H145.869Z" fill="#238655"/>
<path d="M175.043 204.217V175.044H320.912V204.218L175.043 204.217Z" fill="#238655"/>
<path d="M0 204.218V175.044H29.1738V204.218H0Z" fill="#238655"/>
<path d="M0 204.218V145.87L87.5216 145.869L87.5216 204.218H0Z" fill="#238655"/>
<path d="M29.174 145.87V116.696H58.3478V145.87H29.174Z" fill="#238655"/>
<path d="M58.3478 145.87V116.696H87.5216L87.5216 145.869L58.3478 145.87Z" fill="#238655"/>
<path d="M87.5216 145.869L87.5216 116.696H116.695V145.869H87.5216Z" fill="#238655"/>
<path d="M116.695 145.869V116.696H145.869V145.87L116.695 145.869Z" fill="#238655"/>
<path d="M145.869 116.696L145.869 87.523H175.043V116.697L145.869 116.696Z" fill="#238655"/>
<path d="M145.869 145.87V116.696L175.043 116.697V145.87H145.869Z" fill="#238655"/>
<path d="M145.869 29.1741V0.000244141H175.043V29.1741H145.869Z" fill="#238655"/>
<path d="M145.869 87.523V58.3479L175.043 58.3482V87.523H145.869Z" fill="#238655"/>
<path d="M116.695 58.3489V29.175L145.869 29.1741V58.3479L116.695 58.3489Z" fill="#238655"/>
<path d="M175.043 58.3482V29.1741L204.217 29.175V58.3489L175.043 58.3482Z" fill="#238655"/>
<path d="M204.217 87.5221L204.217 58.3489L233.391 58.3479L233.391 87.5221H204.217Z" fill="#238655"/>
<path d="M233.391 116.697L233.391 87.5221L262.565 87.523V116.697H233.391Z" fill="#238655"/>
<path d="M262.565 116.697V87.523H291.738V116.697H262.565Z" fill="#238655"/>
<path d="M262.565 87.523L262.565 58.3482H291.738V87.523H262.565Z" fill="#238655"/>
<path d="M291.738 58.3482L291.738 29.175H320.912V58.3489L291.738 58.3482Z" fill="#238655"/>
<path d="M320.912 175.044V145.869H350.086V175.043L320.912 175.044Z" fill="#238655"/>
<path d="M320.912 233.392V204.218L350.086 204.217V233.392H320.912Z" fill="#238655"/>
<path d="M320.912 204.218V175.044L350.086 175.043V204.217L320.912 204.218Z" fill="#238655"/>
<path d="M320.912 145.869V116.696H350.086V145.869H320.912Z" fill="#238655"/>
<path d="M320.912 116.696V87.523H350.086V116.696H320.912Z" fill="#238655"/>
<path d="M291.738 116.697V58.3482L320.912 58.3489L320.912 116.696L291.738 116.697Z" fill="#238655"/>
</svg>
