<svg width="612" height="842" viewBox="0 0 612 842" fill="none" xmlns="http://www.w3.org/2000/svg">
<path d="M-47.2088 152.878C-45.5735 152.393 -38.8067 158.538 -29.2908 154.352C-18.7887 149.651 -11.4726 142.133 -2.08451 136.396L9.47548 146.137L26.3168 134.012L37.8737 143.893L60.3613 126.276L74.5364 135.297C79.408 135.386 86.0226 122.92 95.4882 120.979C98.0177 120.466 144.577 123.358 146.999 124.034C157.083 127.106 168.106 139.068 172.329 139.126C174.521 139.159 205.842 133.331 208.763 133.468C215.092 133.766 219.383 148.922 232.883 133.691L254.539 153.243L269.167 145.648C281.373 155.559 291.992 167.432 307.191 174.255C314.911 177.707 320.869 172.792 324.233 174.916C330.325 178.572 393.785 235.685 396.281 240.296C400.025 247.212 393.755 251.55 396.028 255.238C408.951 276.696 424.986 293.317 432.539 318.806C438.209 337.676 426.544 358.049 450.451 371.389L440.084 380.94C459.133 397.211 455.016 417.868 456.916 438.247C457.296 443.039 463.315 468.104 463.274 469.927C463.152 475.398 445.862 478.516 463.863 490.806L440.746 511.131L450.042 524.064L416.814 549.741L426.11 562.674C426.083 567.517 398.388 581.87 392.82 591.156C389.105 597.44 397.953 604.946 394.684 609.496C386.554 620.698 320.479 673.261 305.284 680.76C301.753 682.49 296.027 677.025 291.767 678.65C251.714 693.545 214.908 712.172 168.016 713.266C150.461 713.704 118.704 709.963 95.234 709.771C90.2797 709.749 56.7635 697.501 54.6507 697.542C49.8556 697.668 45.2218 705.102 42.5457 704.906C38.0846 704.626 31.2621 693.704 24.2734 690.216C17.2847 686.728 10.309 693.56 -0.231069 689.063C-26.4571 677.72 -79.7481 648.956 -100.912 636.447C-117.827 626.454 -163.522 592.151 -170.841 578.046C-174.267 571.426 -165.182 564.693 -168.244 559.986C-178.053 544.571 -210.359 525.429 -223.404 509.441L-213.55 497.408L-235.71 474.953C-224.319 463.203 -234.01 435.297 -232.579 414.865C-232.107 408.288 -224.716 404.704 -224.898 401.958C-225.634 391.252 -245.584 393.473 -211.207 370.869C-229.45 358.498 -211.836 355.395 -211.554 350.073C-211.38 345.939 -223.136 341.314 -219.545 336.919C-212.611 328.33 -200.795 322.988 -193.534 310.693C-183.994 294.504 -169.163 252.447 -155.699 238.759C-143.395 226.139 -58.1633 156.013 -47.0434 152.745L-47.2088 152.878ZM23.2985 258.061C19.1399 258.778 13.1553 250.353 1.23769 256.602C-8.6247 261.755 -52.8563 303.692 -60.0477 312.901C-62.4714 315.947 -55.5999 321.044 -58.1189 324.716C-71.0381 343.064 -90.6455 362.641 -98.5297 384.665C-99.2227 386.598 -91.29 416.879 -91.337 418.983C-91.3327 422.423 -98.6311 425.52 -100.899 428.853L-78.7389 451.308L-89.7581 460.969C-65.269 473.705 -74.4957 486.75 -70.0604 495.453C-65.6252 504.157 -36.0887 549.073 -30.0737 552.515C-26.3056 554.729 -20.2709 550.028 -16.4107 551.754C6.18132 562.154 14.9911 578.645 29.8249 587.276C33.5931 589.49 58.0052 580.248 69.2346 601.136C84.9671 584.114 89.5608 611.148 105.456 594.134C120.901 615.361 147.026 598.547 167.802 592.083C174.509 590.011 190.507 597.433 203.626 577.411L217.884 586.365L312.421 510.569L303.126 497.636L326.405 477.319C306.898 463.343 325.617 461.696 332.333 448.322C332.928 447.157 334.104 423.623 333.817 421.925C328.141 385.152 316.298 366.271 296.859 334.747C294.507 330.986 301.432 326.397 299.229 323.205C275.962 288.552 258.121 301.754 240.133 288.903C224.302 277.627 211.347 261.292 196.766 248.601L182.138 256.197L157.827 235.466C148.39 247.027 120.548 235.327 109.445 234.173C106.61 233.829 57.0307 238.868 54.4918 239.802C41.9689 244.057 31.0399 256.951 23.7027 258.151L23.2985 258.061Z" fill="#238655"/>
<path d="M114.086 385.627L123.516 392.73L135.747 387.003L168.058 418.098C168.362 423.367 124.194 462.087 120.623 461.973C119.565 461.939 109.179 452.406 103.06 449.925C96.2898 447.194 92.8621 454.573 86.3755 448.307C83.0636 445.229 86.0188 424.117 73.507 417.831L114.086 385.627Z" fill="#238655"/>
</svg>
