<svg width="730" height="730" viewBox="0 0 730 730" fill="none" xmlns="http://www.w3.org/2000/svg">
<path d="M236.598 132.627C237.823 132.207 242.893 137.538 250.023 133.907C257.891 129.828 263.373 123.306 270.406 118.329L279.067 126.779L291.685 116.26L300.344 124.832L317.192 109.549L327.813 117.376C331.462 117.453 336.418 106.638 343.51 104.954C345.405 104.509 380.289 107.018 382.103 107.604C389.659 110.269 397.917 120.647 401.081 120.697C402.723 120.726 426.19 115.67 428.379 115.789C433.12 116.047 436.335 129.195 446.449 115.982L462.675 132.945L473.634 126.355C482.779 134.954 490.735 145.254 502.123 151.173C507.907 154.168 512.371 149.904 514.891 151.746C519.455 154.918 567.001 204.466 568.871 208.466C571.676 214.466 566.979 218.23 568.682 221.429C578.363 240.045 590.378 254.464 596.036 276.576C600.284 292.948 591.545 310.621 609.457 322.194L601.689 330.481C615.961 344.596 612.877 362.517 614.3 380.196C614.585 384.353 619.094 406.099 619.064 407.68C618.972 412.426 606.018 415.131 619.505 425.793L602.185 443.426L609.15 454.646L584.255 476.921L591.22 488.142C591.199 492.343 570.45 504.795 566.278 512.851C563.495 518.302 570.124 524.815 567.674 528.762C561.584 538.48 512.078 584.08 500.694 590.586C498.048 592.086 493.758 587.346 490.566 588.755C460.558 601.677 432.982 617.837 397.849 618.786C384.697 619.166 360.904 615.921 343.32 615.755C339.608 615.735 314.497 605.11 312.914 605.145C309.321 605.254 305.849 611.703 303.844 611.533C300.502 611.29 295.39 601.815 290.154 598.789C284.918 595.763 279.692 601.691 271.795 597.789C252.146 587.948 212.219 562.995 196.362 552.143C183.689 543.474 149.454 513.714 143.97 501.478C141.403 495.735 148.21 489.893 145.916 485.809C138.567 472.436 114.362 455.831 104.589 441.96L111.972 431.521L95.3689 412.041C103.903 401.847 96.642 377.638 97.7147 359.912C98.0683 354.206 103.605 351.097 103.469 348.714C102.918 339.426 87.971 341.353 113.727 321.744C100.059 311.011 113.256 308.319 113.467 303.702C113.597 300.115 104.79 296.103 107.48 292.291C112.675 284.839 121.528 280.205 126.968 269.539C134.116 255.493 145.227 219.007 155.315 207.132C164.533 196.184 228.391 135.347 236.722 132.512L236.598 132.627ZM289.424 223.878C286.308 224.5 281.824 217.191 272.895 222.612C265.506 227.082 232.367 263.465 226.979 271.454C225.163 274.096 230.311 278.518 228.424 281.704C218.745 297.621 204.054 314.605 198.147 333.712C197.628 335.389 203.572 361.659 203.536 363.484C203.539 366.468 198.071 369.155 196.372 372.047L212.975 391.527L204.719 399.909C223.067 410.958 216.154 422.275 219.477 429.825C222.8 437.376 244.93 476.343 249.436 479.329C252.259 481.249 256.781 477.171 259.673 478.668C276.599 487.691 283.2 501.998 294.314 509.485C297.137 511.405 315.427 503.388 323.84 521.509C335.627 506.742 339.069 530.195 350.978 515.435C362.55 533.849 382.123 519.263 397.689 513.655C402.714 511.858 414.7 518.297 424.53 500.926L435.212 508.695L506.041 442.939L499.077 431.718L516.518 414.093C501.903 401.968 515.928 400.539 520.96 388.937C521.405 387.926 522.287 367.51 522.072 366.036C517.819 334.134 508.946 317.755 494.382 290.407C492.619 287.143 497.808 283.163 496.158 280.393C478.725 250.33 465.359 261.783 451.881 250.634C440.021 240.853 430.314 226.681 419.39 215.671L408.43 222.261L390.216 204.276C383.145 214.306 362.285 204.155 353.967 203.154C351.843 202.856 314.697 207.227 312.795 208.037C303.412 211.729 295.224 222.915 289.727 223.956L289.424 223.878Z" fill="#238655"/>
<path d="M357.442 334.547L364.508 340.708L373.671 335.74L397.879 362.717C398.107 367.287 365.016 400.878 362.34 400.78C361.547 400.75 353.766 392.48 349.181 390.327C344.109 387.958 341.541 394.36 336.681 388.924C334.2 386.254 336.414 367.938 327.039 362.485L357.442 334.547Z" fill="#238655"/>
</svg>
