<svg width="1917" height="375" viewBox="0 0 1917 375" fill="none" xmlns="http://www.w3.org/2000/svg">
<path d="M1242.47 114.719H1233.91V254.639H1242.47V114.719Z" fill="white"/>
<path d="M1255.31 63.8379H1246.75V305.518H1255.31V63.8379Z" fill="white"/>
<path d="M1268.15 76.5586H1259.59V292.799H1268.15V76.5586Z" fill="white"/>
<path d="M1281.31 72.5586H1272.75V289.119H1281.31V72.5586Z" fill="white"/>
<path d="M1294.44 43.5586H1285.88V295.918H1294.44V43.5586Z" fill="white"/>
<path d="M1306.55 74.5586H1297.99V265.398H1306.55V74.5586Z" fill="white"/>
<path d="M1319.51 68.0781H1310.95V301.278H1319.51V68.0781Z" fill="white"/>
<path d="M1332.36 114.719H1323.8V254.639H1332.36V114.719Z" fill="white"/>
<path d="M1345.2 152.879H1336.64V216.479H1345.2V152.879Z" fill="white"/>
<path d="M1358.04 127.439H1349.47V241.919H1358.04V127.439Z" fill="white"/>
<path d="M1370.87 110.479H1362.31V258.879H1370.87V110.479Z" fill="white"/>
<path d="M1383.71 165.598H1375.15V203.758H1383.71V165.598Z" fill="white"/>
<path d="M1395.38 115.559H1386.82V255.038H1395.38V115.559Z" fill="white"/>
<path d="M1409.39 123.199H1400.83V246.159H1409.39V123.199Z" fill="white"/>
<path d="M1422.24 157.119H1413.68V212.239H1422.24V157.119Z" fill="white"/>
<path d="M1435.08 144.398H1426.52V224.958H1435.08V144.398Z" fill="white"/>
<path d="M1447.92 157.119H1439.36V212.239H1447.92V157.119Z" fill="white"/>
<path d="M1460.76 165.598H1452.2V203.758H1460.76V165.598Z" fill="white"/>
<path d="M1473.6 174.078H1465.04V195.278H1473.6V174.078Z" fill="white"/>
<path d="M1486.44 131.678H1477.88V237.678H1486.44V131.678Z" fill="white"/>
<path d="M1499.28 165.598H1490.72V203.758H1499.28V165.598Z" fill="white"/>
<path d="M1512.12 169.838H1503.56V199.518H1512.12V169.838Z" fill="white"/>
<path d="M1524.97 178.318H1516.41V191.038H1524.97V178.318Z" fill="white"/>
<path d="M1537.8 165.598H1529.24V203.758H1537.8V165.598Z" fill="white"/>
<path d="M1542.08 182.558H1156.86V186.798H1542.08V182.558Z" fill="white"/>
<path d="M1147.9 207.758H1156.46V161.118H1147.9V207.758Z" fill="white"/>
<path d="M1135.06 195.039H1143.62V173.839H1135.06V195.039Z" fill="white"/>
<path d="M1122.22 190.799H1130.78V178.079H1122.22V190.799Z" fill="white"/>
<path d="M1109.37 195.039H1117.93V173.839H1109.37V195.039Z" fill="white"/>
<path d="M1096.54 207.758H1105.1V161.118H1096.54V207.758Z" fill="white"/>
<path d="M1083.69 271.359H1092.25V97.5193H1083.69V271.359Z" fill="white"/>
<path d="M1070.86 254.398H1079.42V114.478H1070.86V254.398Z" fill="white"/>
<path d="M1058.02 305.279H1066.58V63.5992H1058.02V305.279Z" fill="white"/>
<path d="M1045.18 292.558H1053.74V76.3185H1045.18V292.558Z" fill="white"/>
<path d="M1032.34 373.119H1040.9V-0.000976562H1032.34V373.119Z" fill="white"/>
<path d="M1019.5 351.918H1028.06V16.9579H1019.5V351.918Z" fill="white"/>
<path d="M1006.65 360.398H1015.21V8.4783H1006.65V360.398Z" fill="white"/>
<path d="M993.81 301.039H1002.37V67.839H993.81V301.039Z" fill="white"/>
<path d="M980.972 254.398H989.533V114.478H980.972V254.398Z" fill="white"/>
<path d="M968.131 216.238H976.691V152.638H968.131V216.238Z" fill="white"/>
<path d="M955.293 241.678H963.853V127.198H955.293V241.678Z" fill="white"/>
<path d="M942.455 258.639H951.015V110.239H942.455V258.639Z" fill="white"/>
<path d="M929.613 203.519H938.174V165.359H929.613V203.519Z" fill="white"/>
<path d="M916.768 296.799H925.328V72.0787H916.768V296.799Z" fill="white"/>
<path d="M903.926 245.918H912.487V122.958H903.926V245.918Z" fill="white"/>
<path d="M891.084 211.998H899.645V156.878H891.084V211.998Z" fill="white"/>
<path d="M878.247 224.719H886.807V144.159H878.247V224.719Z" fill="white"/>
<path d="M865.408 211.998H873.969V156.878H865.408V211.998Z" fill="white"/>
<path d="M852.567 203.519H861.127V165.359H852.567V203.519Z" fill="white"/>
<path d="M839.729 195.039H848.29V173.839H839.729V195.039Z" fill="white"/>
<path d="M826.892 237.439H835.452V131.439H826.892V237.439Z" fill="white"/>
<path d="M814.038 203.519H822.598V165.359H814.038V203.519Z" fill="white"/>
<path d="M801.2 199.279H809.761V169.599H801.2V199.279Z" fill="white"/>
<path d="M788.362 190.799H796.923V178.079H788.362V190.799Z" fill="white"/>
<path d="M775.525 203.519H784.086V165.359H775.525V203.519Z" fill="white"/>
<path d="M771.246 186.558H1156.46V182.318H771.246V186.558Z" fill="white"/>
<path d="M407.02 174.078H398.459V195.278H407.02V174.078Z" fill="white"/>
<path d="M419.86 178.318H411.299V191.038H419.86V178.318Z" fill="white"/>
<path d="M432.703 174.078H424.143V195.278H432.703V174.078Z" fill="white"/>
<path d="M445.543 161.359H436.982V207.999H445.543V161.359Z" fill="white"/>
<path d="M458.383 97.7578H449.822V271.598H458.383V97.7578Z" fill="white"/>
<path d="M471.226 114.719H462.666V254.639H471.226V114.719Z" fill="white"/>
<path d="M484.064 63.8379H475.504V305.518H484.064V63.8379Z" fill="white"/>
<path d="M496.908 76.5586H488.348V292.799H496.908V76.5586Z" fill="white"/>
<path d="M522.583 17.1992H514.023V352.159H522.583V17.1992Z" fill="white"/>
<path d="M535.425 8.71875H526.865V360.639H535.425V8.71875Z" fill="white"/>
<path d="M548.275 68.0781H539.714V301.278H548.275V68.0781Z" fill="white"/>
<path d="M573.954 152.879H565.394V216.479H573.954V152.879Z" fill="white"/>
<path d="M586.792 127.439H578.232V241.919H586.792V127.439Z" fill="white"/>
<path d="M599.63 110.479H591.069V258.879H599.63V110.479Z" fill="white"/>
<path d="M612.472 165.598H603.911V203.758H612.472V165.598Z" fill="white"/>
<path d="M625.309 72.3184H616.749V297.038H625.309V72.3184Z" fill="white"/>
<path d="M638.147 123.199H629.587V246.159H638.147V123.199Z" fill="white"/>
<path d="M651.001 157.119H642.44V212.239H651.001V157.119Z" fill="white"/>
<path d="M663.838 144.398H655.278V224.958H663.838V144.398Z" fill="white"/>
<path d="M676.676 157.119H668.116V212.239H676.676V157.119Z" fill="white"/>
<path d="M689.518 165.598H680.957V203.758H689.518V165.598Z" fill="white"/>
<path d="M702.356 174.078H693.795V195.278H702.356V174.078Z" fill="white"/>
<path d="M715.193 131.678H706.633V237.678H715.193V131.678Z" fill="white"/>
<path d="M728.035 165.598H719.475V203.758H728.035V165.598Z" fill="white"/>
<path d="M740.881 169.838H732.32V199.518H740.881V169.838Z" fill="white"/>
<path d="M753.722 178.318H745.162V191.038H753.722V178.318Z" fill="white"/>
<path d="M766.56 165.598H758V203.758H766.56V165.598Z" fill="white"/>
<path d="M770.837 182.558H385.619V186.798H770.837V182.558Z" fill="white"/>
<path d="M376.657 208.758H385.218V162.118H376.657V208.758Z" fill="white"/>
<path d="M363.818 196.039H372.378V174.839H363.818V196.039Z" fill="white"/>
<path d="M350.972 191.799H359.532V179.079H350.972V191.799Z" fill="white"/>
<path d="M338.135 196.039H346.695V174.839H338.135V196.039Z" fill="white"/>
<path d="M325.294 208.758H333.855V162.118H325.294V208.758Z" fill="white"/>
<path d="M312.455 272.359H321.015V98.5193H312.455V272.359Z" fill="white"/>
<path d="M299.611 255.398H308.172V115.478H299.611V255.398Z" fill="white"/>
<path d="M286.772 306.279H295.332V64.5992H286.772V306.279Z" fill="white"/>
<path d="M273.932 293.558H282.492V77.3185H273.932V293.558Z" fill="white"/>
<path d="M261.094 374.119H269.654V0.999023H261.094V374.119Z" fill="white"/>
<path d="M248.248 352.918H256.809V17.9579H248.248V352.918Z" fill="white"/>
<path d="M235.41 361.398H243.971V9.4783H235.41V361.398Z" fill="white"/>
<path d="M222.571 302.039H231.131V68.839H222.571V302.039Z" fill="white"/>
<path d="M209.725 255.398H218.285V115.478H209.725V255.398Z" fill="white"/>
<path d="M196.887 217.238H205.448V153.638H196.887V217.238Z" fill="white"/>
<path d="M184.047 242.678H192.608V128.198H184.047V242.678Z" fill="white"/>
<path d="M171.208 259.639H179.768V111.239H171.208V259.639Z" fill="white"/>
<path d="M158.364 204.519H166.924V166.359H158.364V204.519Z" fill="white"/>
<path d="M145.524 297.799H154.085V73.0787H145.524V297.799Z" fill="white"/>
<path d="M132.684 246.918H141.244V123.958H132.684V246.918Z" fill="white"/>
<path d="M119.847 212.998H128.407V157.878H119.847V212.998Z" fill="white"/>
<path d="M107.001 225.719H115.562V145.159H107.001V225.719Z" fill="white"/>
<path d="M94.164 212.998H102.724V157.878H94.164V212.998Z" fill="white"/>
<path d="M81.3236 204.519H89.884V166.359H81.3236V204.519Z" fill="white"/>
<path d="M68.4839 196.039H77.0443V174.839H68.4839V196.039Z" fill="white"/>
<path d="M55.6403 238.439H64.2007V132.439H55.6403V238.439Z" fill="white"/>
<path d="M42.8008 204.519H51.3612V166.359H42.8008V204.519Z" fill="white"/>
<path d="M29.9607 200.279H38.5211V170.599H29.9607V200.279Z" fill="white"/>
<path d="M17.123 191.799H25.6833V179.079H17.123V191.799Z" fill="white"/>
<path d="M4.27738 204.519H12.8378V166.359H4.27738V204.519Z" fill="white"/>
<path d="M0.000335693 187.558H385.218V183.318H0.000335693V187.558Z" fill="white"/>
<path d="M1818.24 313.559H1826.12V18.5586H1818.24V313.559Z" fill="white"/>
<path d="M1831.26 313.559H1839.14V18.5586H1831.26V313.559Z" fill="white"/>
<path d="M1844.27 313.559H1852.16V18.5586H1844.27V313.559Z" fill="white"/>
<path d="M1806.4 305.279H1814.29V63.5993H1806.4V305.279Z" fill="white"/>
<path d="M1857.28 307.238H1865.17V65.5583H1857.28V307.238Z" fill="white"/>
<path d="M1794.59 292.559H1802.48V76.3186H1794.59V292.559Z" fill="white"/>
<path d="M1782.46 296.559H1790.35V79.998H1782.46V296.559Z" fill="white"/>
<path d="M1770.38 325.559H1778.26V73.1992H1770.38V325.559Z" fill="white"/>
<path d="M1759.22 294.559H1767.11V103.719H1759.22V294.559Z" fill="white"/>
<path d="M1747.29 301.039H1755.17V67.8391H1747.29V301.039Z" fill="white"/>
<path d="M1735.45 254.398H1743.34V114.478H1735.45V254.398Z" fill="white"/>
<path d="M1723.62 216.238H1731.5V152.638H1723.62V216.238Z" fill="white"/>
<path d="M1868.45 216.158H1876.33V152.558H1868.45V216.158Z" fill="white"/>
<path d="M1711.8 241.678H1719.68V127.198H1711.8V241.678Z" fill="white"/>
<path d="M1699.97 258.639H1707.86V110.239H1699.97V258.639Z" fill="white"/>
<path d="M1688.15 203.52H1696.03V165.36H1688.15V203.52Z" fill="white"/>
<path d="M1677.4 253.559H1685.28V114.079H1677.4V253.559Z" fill="white"/>
<path d="M1664.49 245.918H1672.38V122.958H1664.49V245.918Z" fill="white"/>
<path d="M1652.74 228.998H1660.62V114.559H1652.74V228.998Z" fill="white"/>
<path d="M1640.83 224.719H1648.72V144.159H1640.83V224.719Z" fill="white"/>
<path d="M1629.01 211.998H1636.89V156.878H1629.01V211.998Z" fill="white"/>
<path d="M1617.18 203.52H1625.06V165.36H1617.18V203.52Z" fill="white"/>
<path d="M1605.36 195.039H1613.25V173.839H1605.36V195.039Z" fill="white"/>
<path d="M1593.53 270.559H1601.41V63.5586H1593.53V270.559Z" fill="white"/>
<path d="M1581.71 203.52H1589.59V165.36H1581.71V203.52Z" fill="white"/>
<path d="M1569.87 199.279H1577.76V169.599H1569.87V199.279Z" fill="white"/>
<path d="M1558.05 190.799H1565.93V178.079H1558.05V190.799Z" fill="white"/>
<path d="M1542.28 186.559H1916.8V182.319H1542.28V186.559Z" fill="white"/>
</svg>
